<?xml version="1.0" encoding="utf-8"?>
<!-- Generator: Adobe Illustrator 19.0.0, SVG Export Plug-In . SVG Version: 6.00 Build 0)  -->
<svg version="1.1" id="Layer_1" xmlns="http://www.w3.org/2000/svg" xmlns:xlink="http://www.w3.org/1999/xlink" x="0px" y="0px"
	 viewBox="522 -394 1092 837" style="enable-background:new 522 -394 1092 837;" xml:space="preserve">
<path d="M1305.4,41.6c-4.4,4.5-9.8,6.8-16.2,6.8c-7.5,0-13.1-3.2-14.6-7.6V65h-10.9V1.6h10.9v6.6c1.5-4.5,7.1-7.6,14.6-7.6
	c6.4,0,11.9,2.3,16.2,6.9c4.4,4.5,6.6,10.2,6.6,17C1312,31.4,1309.8,37,1305.4,41.6z M1297.3,14.5c-2.5-2.6-5.7-4-9.6-4
	c-3.9,0-7.3,1.4-10,4c-2.6,2.6-4,6-4,10s1.4,7.4,4,10c2.7,2.6,6.1,4,10,4c3.9,0,7.1-1.4,9.6-4c2.6-2.6,3.9-6,3.9-10
	S1299.9,17.2,1297.3,14.5z M1231,48.8c-7,0-12.9-2.4-17.7-7c-4.8-4.6-7.3-10.5-7.3-17.3c0-6.8,2.5-12.6,7.3-17.3
	c4.8-4.6,10.7-7,17.7-7s12.9,2.4,17.7,7c4.8,4.6,7.3,10.5,7.3,17.3c0,6.8-2.5,12.6-7.3,17.3C1243.9,46.5,1238,48.8,1231,48.8z
	 M1241.1,14.4c-2.7-2.8-6.1-4.2-10.1-4.2c-4.1,0-7.4,1.4-10.2,4.2c-2.6,2.7-4,6.1-4,10.2c0,4.1,1.4,7.5,4,10.3
	c2.7,2.7,6.1,4.1,10.2,4.1c4,0,7.4-1.4,10.1-4.1c2.7-2.8,4.1-6.2,4.1-10.3C1245.2,20.5,1243.8,17.1,1241.1,14.4z M1197.3,47.9
	c-7.2,0-10.7-4-10.7-12V20.6c0-6.3-3.4-10.2-9.2-10.2c-5.9,0-10.1,4.4-10.1,10.6v26.4h-10.8v-63.4h10.8V8c2.1-4.4,7.1-7.3,13.3-7.3
	c10.5,0,16.7,7,16.7,18.4v14.5c0,3.5,0.6,4.8,3.1,4.8c0.5,0,1.1-0.1,1.5-0.2v9.2C1200.9,47.7,1199.4,47.9,1197.3,47.9z M1131.8,18.5
	c1.4,0.4,3.9,1.3,5.7,1.9c8.4,3,12.3,7.1,12.3,13.6c0,8.5-6.4,14.5-18.8,14.5c-9.2,0-16-3.5-18.9-9.3l7-5.9
	c2.1,3.3,6.5,5.7,12.1,5.7c5.7,0,8.2-2.2,8.2-5c0-1.5-1.1-2.8-2.6-3.6c-1-0.6-2.9-1.3-4.3-1.7c-1.4-0.5-4.1-1.3-5.6-1.9
	c-7.4-2.6-11.3-6.4-11.3-12.9c0-4.3,1.5-7.5,4.6-10c3.2-2.5,7-3.7,11.5-3.7c6.4,0,11.3,2.3,14.8,6.7l-6.1,6.5c-2-2.5-5-3.8-8.9-3.8
	c-3.4,0-5.5,1.6-5.5,4.1c0,1.5,0.8,2.4,2.1,3.2C1128.8,17.4,1130.6,18.1,1131.8,18.5z M1105.3,11.1c-7.5,0-12.3,4.7-12.3,12.3v24.1
	h-10.8V1.6h10.8v6.8c2.2-4.8,7.2-7.7,13.6-7.7c1.3,0,2.4,0.1,3.3,0.3v10.5C1108.5,11.3,1106.9,11.1,1105.3,11.1z M1039.1,27.3
	c0.4,7.3,5.7,12,13.8,12c4.7,0,8.8-1.7,12.3-5.3l6.5,6.4c-5.2,5.5-11.5,8.2-19.2,8.2c-7.2,0-13.1-2.2-17.5-6.5
	c-4.4-4.3-6.7-10-6.7-17.2v-0.4c0-7.3,2.3-13.1,6.7-17.5c4.5-4.5,10.3-6.6,17.2-6.6c6.6,0,12.1,2.2,16.2,6.6
	c4.3,4.5,6.4,9.9,6.4,16.5c0,1.4-0.1,2.6-0.2,3.8H1039.1z M1060.4,12.6c-2.3-2-4.9-3-8.1-3c-3.4,0-6.4,1-8.8,2.9
	c-2.5,1.9-3.8,4.3-4.1,7.1h24.4C1063.8,16.9,1062.6,14.5,1060.4,12.6z M1019.4,47.9c-7.2,0-10.7-4-10.7-12V20.6
	c0-6.3-3.5-10.2-9.6-10.2c-6.1,0-10.3,4.4-10.3,10.6v26.4H978V1.6h10.8v6.5c2.2-4.5,7.3-7.5,13.7-7.5c10.8,0,17.1,7,17.1,18.4v14.5
	c0,3.5,0.6,4.8,3.1,4.8c0.5,0,1.1-0.1,1.5-0.2v9.2C1022.9,47.7,1021.3,47.9,1019.4,47.9z M965.7,11.1c-7.5,0-12.3,4.7-12.3,12.3
	v24.1h-10.8V1.6h10.8v6.8c2.2-4.8,7.2-7.7,13.6-7.7c1.3,0,2.4,0.1,3.3,0.3v10.5C968.9,11.3,967.3,11.1,965.7,11.1z M910,48.8
	c-7,0-12.9-2.4-17.7-7c-4.8-4.6-7.3-10.5-7.3-17.3c0-6.8,2.5-12.6,7.3-17.3c4.8-4.6,10.7-7,17.7-7c7,0,12.9,2.4,17.7,7
	c4.8,4.6,7.3,10.5,7.3,17.3c0,6.8-2.5,12.6-7.3,17.3C922.9,46.5,917,48.8,910,48.8z M920,14.4c-2.7-2.8-6.1-4.2-10.1-4.2
	c-4.1,0-7.4,1.4-10.2,4.2c-2.6,2.7-4,6.1-4,10.2c0,4.1,1.4,7.5,4,10.3c2.7,2.7,6.1,4.1,10.2,4.1c4,0,7.4-1.4,10.1-4.1
	c2.7-2.8,4.1-6.2,4.1-10.3C924.1,20.5,922.8,17.1,920,14.4z M856.6,38.3c7.2,0,13.1-2.6,17.5-7.9l7.6,6.6
	c-6.2,7.3-15.3,11.5-25.1,11.5c-9.4,0-17.3-3.1-23.9-9.3c-6.4-6.3-9.7-14.1-9.7-23.5c0-9.4,3.3-17.2,9.7-23.5
	c6.5-6.3,14.5-9.4,23.9-9.4c10.1,0,18.4,3.8,25.1,11.4L873.9,1c-4.5-5.2-10.3-7.7-17.3-7.7c-6.4,0-11.7,2.2-16,6.5
	c-4.3,4.3-6.4,9.6-6.4,16.1c0,6.5,2.1,11.8,6.4,16.1C844.9,36.2,850.2,38.3,856.6,38.3z"/>
</svg>
