<?xml version="1.0" standalone="no"?>
<!DOCTYPE svg PUBLIC "-//W3C//DTD SVG 1.1//EN" "http://www.w3.org/Graphics/SVG/1.1/DTD/svg11.dtd" >
<svg xmlns="http://www.w3.org/2000/svg">
<metadata></metadata>
<defs>
<font id="upcdigitalbold" horiz-adv-x="1122" >
<font-face units-per-em="2048" ascent="1638" descent="-410" />
<missing-glyph horiz-adv-x="451" />
<glyph horiz-adv-x="2048" />
<glyph horiz-adv-x="2048" />
<glyph unicode="&#xd;" horiz-adv-x="451" />
<glyph unicode=" "  horiz-adv-x="451" />
<glyph unicode="&#x09;" horiz-adv-x="451" />
<glyph unicode="&#xa0;" horiz-adv-x="451" />
<glyph unicode="!" horiz-adv-x="614" d="M158 106v46q0 39 20 73.5t54.5 48t72.5 13.5q56 0 91 -23t47 -54t12 -58v-46q0 -44 -22 -76t-55.5 -45.5t-72.5 -13.5q-38 0 -65.5 11t-45.5 30t-27 43t-9 51zM168 1399q-2 37 12.5 48t52.5 11h146q38 0 52.5 -11t12.5 -48l-30 -895q-3 -38 -15.5 -49t-50.5 -11h-84 q-38 0 -51 11.5t-14 48.5z" />
<glyph unicode="&#x22;" horiz-adv-x="940" d="M133 1399q-2 37 12.5 48t53.5 11h125q40 0 53.5 -11t11.5 -48l-24 -494q-2 -37 -15 -48t-51 -11h-76q-38 0 -51 11t-14 48zM551 1399q-2 37 12.5 48t52.5 11h125q37 0 52 -12t14 -47l-25 -494q-3 -38 -15 -48.5t-50 -10.5h-76q-38 0 -51 11t-15 48z" />
<glyph unicode="#" horiz-adv-x="1223" d="M92 440v76q0 53 47 53h166v236h-166q-32 0 -39.5 10.5t-7.5 42.5v76q0 53 47 53h166v234q0 32 10.5 39.5t42.5 7.5h82q54 0 54 -47v-234h235v234q0 32 10.5 39.5t42.5 7.5h82q54 0 54 -47v-234h165q32 0 39.5 -10.5t7.5 -42.5v-76q0 -53 -47 -53h-165v-236h165 q32 0 39.5 -10.5t7.5 -42.5v-76q0 -53 -47 -53h-165v-233q0 -32 -11 -40t-43 -8h-82q-53 0 -53 48v233h-235v-233q0 -32 -11 -40t-43 -8h-82q-53 0 -53 48v233h-166q-32 0 -39.5 10.5t-7.5 42.5zM494 569h235v236h-235v-236z" />
<glyph unicode="$" horiz-adv-x="1204" d="M90 360q0 25 9 34t38 9h154q29 0 35.5 -10.5t9.5 -27.5q8 -52 35 -93.5t71.5 -63t100.5 -24.5v428l-174 47q-57 15 -107 43t-87.5 70t-59 98.5t-21.5 128.5v37q0 79 23.5 151.5t77 129.5t139 93t209.5 42v152q0 24 24 24h70q25 0 25 -24v-152q95 -6 161 -26t112 -49.5 t73 -55.5q43 -43 65.5 -101.5t22.5 -134.5q0 -29 -12 -39t-52 -10h-125q-35 0 -47 10t-14 31q-4 50 -29 88.5t-67.5 57.5t-87.5 22v-422l129 -35q133 -36 205.5 -93t96 -127.5t23.5 -137.5v-53q0 -97 -33 -169.5t-93 -122t-143.5 -76.5t-184.5 -32v-172q0 -24 -25 -24h-70 q-24 0 -24 24v172q-72 4 -127.5 16t-97 29t-71 37t-50.5 41q-56 56 -81.5 122t-25.5 138zM340 1053q0 -39 10 -68.5t33 -53t62 -42t98 -35.5v395q-106 -9 -154.5 -59.5t-48.5 -136.5zM662 182q97 11 149.5 57t52.5 121q0 65 -20.5 104.5t-61.5 65.5q-18 14 -120 48v-396z " />
<glyph unicode="%" horiz-adv-x="1772" d="M61 967v172q0 66 8 107t25 73q37 75 112.5 119.5t203.5 44.5q124 0 199 -44.5t112 -119.5q17 -32 25 -73t8 -107v-172q0 -66 -8 -107.5t-25 -73.5q-37 -75 -112 -119t-199 -44q-128 0 -203.5 44t-112.5 119q-17 32 -25 73.5t-8 107.5zM258 969q0 -80 19 -122.5 t55.5 -53.5t77.5 -11q59 0 92.5 21.5t45 66.5t11.5 99v168q0 78 -19.5 120t-55 54t-74.5 12q-41 0 -70 -9t-47 -30.5t-26.5 -57t-8.5 -89.5v-168zM428 18q0 9 6 21l735 1397q7 12 17 17t28 5h107q14 0 21 -4.5t8.5 -13.5t-4.5 -21l-736 -1396q-6 -13 -16 -18t-29 -5h-106 q-13 0 -22 4.5t-9 13.5zM1018 315v172q0 66 8 107.5t25 73.5q37 75 112 119t203 44q125 0 199.5 -44t111.5 -119q17 -32 25 -73.5t8 -107.5v-172q0 -66 -8 -107t-25 -73q-37 -75 -111.5 -119.5t-199.5 -44.5q-95 0 -161 25t-101 63t-53 76q-17 32 -25 73t-8 107zM1214 317 q0 -78 19 -121t55.5 -54t77.5 -11q60 0 94 22t45 66t11 98v168q0 81 -20.5 122.5t-55.5 53t-74 11.5q-41 0 -70 -9t-47 -30.5t-26.5 -57.5t-8.5 -90v-168z" />
<glyph unicode="&#x26;" horiz-adv-x="1343" d="M113 346v57q0 73 26 135.5t79.5 104t121.5 59.5q-99 41 -147 128t-48 204q0 110 58.5 202t162.5 133.5t224 41.5q92 0 163.5 -18t115.5 -46.5t73 -56.5q47 -46 67.5 -102.5t20.5 -118.5q0 -31 -13.5 -42t-51.5 -11h-123q-37 0 -49 10.5t-15 32.5q-8 51 -29 83t-61 48 t-90 16q-84 0 -134.5 -35t-62.5 -81.5t-12 -90.5q0 -57 17.5 -96t49 -63t75 -34.5t94.5 -10.5h65q32 0 39.5 -11t7.5 -43v-84q0 -53 -47 -53h-72q-95 0 -154.5 -32.5t-79 -78t-19.5 -85.5v-33q0 -40 15 -75.5t46 -62t79 -42t113 -15.5q70 0 119 18.5t80 49.5q28 28 40.5 72 t12.5 147v262q0 38 11.5 52t48.5 14h295q32 0 39.5 -11t7.5 -43v-84q0 -53 -47 -53h-105v-190q0 -89 -13.5 -151.5t-38 -99.5t-48.5 -61q-60 -59 -160 -95t-242 -36q-131 0 -226 29t-157 80t-92 119.5t-30 146.5z" />
<glyph unicode="'" horiz-adv-x="563" d="M154 1399q-2 37 12.5 48t52.5 11h125q40 0 54 -11t12 -48l-25 -494q-2 -30 -10 -42.5t-22.5 -14.5t-33.5 -2h-75q-38 0 -51.5 11t-14.5 48z" />
<glyph unicode="(" horiz-adv-x="678" d="M111 252v604q0 116 9.5 188.5t31.5 124.5q18 50 44 89t60 73q40 40 102 72t113.5 43.5t87.5 11.5q32 0 39.5 -10.5t7.5 -42.5v-111q0 -32 -7.5 -43t-37.5 -14q-42 -6 -73 -20t-60 -43q-34 -36 -55 -109.5t-21 -192.5v-636q0 -119 21 -192.5t55 -109.5q29 -29 60 -43 t73 -20q28 -3 36.5 -13t8.5 -44v-111q0 -53 -47 -53q-55 0 -115 19.5t-109.5 49t-78.5 58.5q-34 34 -60 73t-44 89q-23 52 -32 123.5t-9 189.5z" />
<glyph unicode=")" horiz-adv-x="678" d="M72 -186q0 23 3 35.5t14 16t28 5.5q42 6 73 20t60 43q34 36 55 109.5t21 192.5v636q0 119 -21 192.5t-55 109.5q-29 29 -60 43t-73 20q-45 5 -45 57v111q0 53 47 53q56 0 115.5 -19.5t108.5 -49t79 -58.5q34 -34 60 -73t44 -89q21 -51 31 -123t10 -190v-604 q0 -120 -10 -191t-31 -122q-18 -50 -44 -89t-60 -73q-41 -40 -103 -72t-113.5 -43.5t-86.5 -11.5q-32 0 -39.5 10.5t-7.5 42.5v111z" />
<glyph unicode="*" horiz-adv-x="895" d="M94 1115.5q-6 18.5 6 55.5l27 80q12 39 28.5 51.5t47.5 -6.5l176 -100l-43 203q-8 35 9.5 47t55.5 12h84q39 0 55.5 -12t10.5 -47l-37 -203l178 104q31 19 47.5 6t28.5 -51l27 -79q12 -38 6 -56.5t-41 -23.5l-197 -29l152 -137q26 -25 19.5 -44t-38.5 -42l-67 -49 q-32 -23 -52.5 -23.5t-35.5 31.5l-88 186l-88 -186q-16 -32 -36.5 -31.5t-52.5 23.5l-67 49q-31 23 -38 42t19 44l150 137l-203 25q-37 5 -43 23.5z" />
<glyph unicode="+" d="M92 635v106q0 54 47 54h316v323q0 32 10.5 39.5t42.5 7.5h106q54 0 54 -47v-323h315q32 0 39.5 -11t7.5 -43v-106q0 -53 -47 -53h-315v-324q0 -32 -11 -39.5t-43 -7.5h-106q-53 0 -53 47v324h-316q-32 0 -39.5 10.5t-7.5 42.5z" />
<glyph unicode="," horiz-adv-x="582" d="M121 125v51q0 44 22 80q19 31 52.5 50.5t87.5 19.5q74 0 114 -40.5t52 -100t12 -111.5v-19q0 -89 -11 -159.5t-42.5 -120t-88 -75.5t-147.5 -26q-18 0 -18 19v98q0 14 20 14q75 0 105 48.5t30 138.5q-9 -6 -24 -10.5t-33 -4.5q-44 0 -75.5 23.5t-43.5 57.5t-12 67z" />
<glyph unicode="-" horiz-adv-x="795" d="M78 502v94q0 44 11 60t48 16h520q37 0 48.5 -15t11.5 -59v-96q0 -45 -11.5 -59.5t-48.5 -14.5h-520q-36 0 -47.5 13t-11.5 61z" />
<glyph unicode="." horiz-adv-x="569" d="M119 127v49q0 48 22 84t60.5 51t81.5 15q59 0 99 -25t53.5 -60t13.5 -65v-49q0 -46 -23.5 -83t-62 -52t-80.5 -15t-73 12t-51.5 33t-30 48t-9.5 57z" />
<glyph unicode="/" horiz-adv-x="721" d="M4 59l485 1340q15 39 25 49t45 10h94q39 0 57.5 -12t4.5 -47l-486 -1340q-20 -59 -69 -59h-94q-39 0 -56.5 12t-5.5 47z" />
<glyph unicode="0" horiz-adv-x="1126" d="M63 545v286q0 117 10.5 181.5t34.5 117.5q41 99 110.5 161.5t161.5 88t184 25.5q132 0 229.5 -43t147.5 -106.5t76 -125.5q21 -48 33 -117.5t12 -181.5v-286q0 -101 -10.5 -172.5t-34.5 -126.5q-40 -97 -109.5 -161t-161 -89t-182.5 -25q-92 0 -165 19.5t-129 55 t-96 86.5t-66 114q-27 59 -36 125.5t-9 173.5zM323 537q0 -98 13.5 -163t42.5 -104t74.5 -55t110.5 -16q99 0 152 38.5t70.5 120t17.5 179.5v303q0 145 -30.5 219.5t-88.5 96.5t-121 22q-99 0 -154 -40.5t-71 -120.5t-16 -177v-303z" />
<glyph unicode="1" horiz-adv-x="1126" d="M207 1212v99q0 38 11 51.5t48 13.5h393q37 0 48.5 -13.5t11.5 -51.5v-1252q0 -37 -14 -48t-52 -11h-113q-38 0 -51.5 11t-13.5 48v1088h-209q-37 0 -48 13.5t-11 51.5z" />
<glyph unicode="2" horiz-adv-x="1126" d="M80 59v121q0 140 66.5 239.5t157 157.5t161.5 97q58 32 113 64t97.5 69.5t68.5 83.5t26 106v21q0 60 -24.5 102.5t-73 60t-105.5 17.5q-81 0 -126 -29t-59 -69.5t-20 -77.5q-3 -22 -14.5 -32.5t-48.5 -10.5h-127q-38 0 -52 12.5t-14 50.5q0 46 13.5 93.5t33.5 82.5t43 58 q43 43 103.5 73t133.5 43t144 13q114 0 198.5 -27t140.5 -76.5t84 -118.5t28 -153v-61q0 -89 -39.5 -160t-101.5 -128.5t-137.5 -104.5t-147.5 -89q-101 -57 -153 -96t-76.5 -81t-24.5 -81h598q37 0 48 -13.5t11 -51.5v-98q0 -39 -11 -52.5t-48 -13.5h-801q-38 0 -51.5 11 t-13.5 48z" />
<glyph unicode="3" horiz-adv-x="1126" d="M63 322q0 38 13.5 50.5t51.5 12.5h127q37 0 49 -10.5t15 -32.5q5 -38 19.5 -68t40.5 -51t66 -32t97 -11q84 0 136 29.5t68.5 73.5t16.5 84v49q0 100 -57 146t-154 46h-73q-32 0 -39.5 10.5t-7.5 43.5v114q0 53 47 53h49q49 0 89.5 10t70 32t45.5 57t16 86v24 q0 58 -23.5 95.5t-71 55t-102.5 17.5q-87 0 -137 -30t-65 -69t-21 -73q-3 -21 -14.5 -32t-48.5 -11h-119q-38 0 -52 13t-14 51q0 54 22 114t69 107q40 42 102 73t139.5 43.5t155.5 12.5q158 0 260.5 -53t138 -135t35.5 -166v-41q0 -78 -35 -140t-84 -95t-90 -50 q77 -19 131 -64t75 -106.5t21 -126.5v-76q0 -128 -69 -219.5t-177.5 -126.5t-222.5 -35q-142 0 -242.5 33.5t-156.5 89.5q-44 43 -67 106.5t-23 121.5z" />
<glyph unicode="4" horiz-adv-x="1126" d="M78 303v156q0 53 24 90l500 776q15 22 22.5 31t22 14.5t31.5 5.5h156q38 0 51.5 -11t13.5 -48v-852h94q32 0 39.5 -10.5t7.5 -42.5v-109q0 -53 -47 -53h-94v-191q0 -37 -13.5 -48t-51.5 -11h-105q-38 0 -51.5 11t-13.5 48v191h-539q-32 0 -39.5 10.5t-7.5 42.5zM297 465 h367v577z" />
<glyph unicode="5" horiz-adv-x="1126" d="M84 305q0 38 13.5 51t51.5 13h127q37 0 49 -11t15 -32q6 -53 32.5 -86.5t71.5 -46.5t103 -13q83 0 128.5 32t58.5 82t13 95v78q0 77 -24 128.5t-68 72t-92 20.5q-82 0 -149 -31q-8 -4 -30.5 -14t-38 -12t-32.5 -2h-110q-39 0 -52.5 11t-13.5 48v629q0 37 13.5 48t52.5 11 h686q37 0 48 -13.5t11 -51.5v-92q0 -39 -11 -52.5t-48 -13.5h-525v-317q48 23 86 35t78.5 18t85.5 6q96 0 169 -24.5t122.5 -76.5t74.5 -132.5t25 -192.5v-92q0 -87 -27.5 -161.5t-83.5 -128.5t-140.5 -85t-198.5 -31q-142 0 -235 31.5t-148 87.5q-47 47 -67.5 104 t-20.5 111z" />
<glyph unicode="6" horiz-adv-x="1126" d="M90 485v279q0 152 8 220.5t26 129.5q32 106 101 173.5t160.5 92.5t185.5 25q105 0 180.5 -17t115.5 -40.5t64 -44.5q56 -48 75.5 -103t19.5 -117q0 -31 -14 -42t-52 -11h-123q-37 0 -48.5 10.5t-14.5 32.5q-5 29 -13.5 51t-25.5 39q-22 23 -60 36t-98 13t-102 -15 t-70 -46q-32 -38 -47.5 -95t-15.5 -126v-144q21 32 68 58.5t107.5 39.5t118.5 13q149 0 247 -53.5t134.5 -146t36.5 -193.5v-119q0 -92 -29.5 -168.5t-89.5 -131t-150.5 -84.5t-211.5 -30q-159 0 -265 52t-159 149q-33 56 -46 127.5t-13 185.5zM333 410q0 -125 59.5 -183.5 t180.5 -58.5q118 0 178 58.5t60 183.5v49q0 125 -60 183t-178 58q-121 0 -180.5 -58t-59.5 -183v-49z" />
<glyph unicode="7" horiz-adv-x="1126" d="M84 1212v99q0 38 11.5 51.5t51.5 13.5h793q40 0 55 -11t15 -48v-121q0 -119 -43 -210t-98 -151.5t-99 -105.5q-74 -78 -120.5 -148t-66.5 -148.5t-20 -162.5v-211q0 -37 -13.5 -48t-53.5 -11h-125q-42 0 -56 11t-14 48v162q0 172 47 298.5t111 198.5t112 120 q63 61 100 106t55.5 98t18.5 105h-598q-43 0 -53 13.5t-10 51.5z" />
<glyph unicode="8" horiz-adv-x="1126" d="M59 346v57q0 73 26 135.5t79.5 104t121.5 59.5q-76 30 -123 87t-57 109t-10 89v51q0 119 65.5 207.5t173.5 124t229 35.5q119 0 206.5 -29t145 -79t85.5 -117t28 -142v-51q0 -65 -22 -121t-67.5 -99t-100.5 -65q90 -25 145 -83t68.5 -116.5t13.5 -99.5v-57 q0 -78 -30 -146.5t-91.5 -119.5t-156.5 -80t-224 -29q-131 0 -226 29t-157 80t-92 119.5t-30 146.5zM311 375q0 -40 15 -76.5t46 -64t79 -44t113 -16.5q90 0 152 34t81 80.5t19 86.5v33q0 62 -33.5 108.5t-93.5 67t-125 20.5q-95 0 -154.5 -32.5t-79 -78t-19.5 -85.5v-33z M343 991q0 -41 14 -76.5t41.5 -61.5t69 -41t96.5 -15t97 15t69.5 41t41.5 61.5t14 76.5v29q0 64 -32.5 109.5t-84 63t-105.5 17.5q-55 0 -96.5 -14t-69 -39.5t-41.5 -60.5t-14 -76v-29z" />
<glyph unicode="9" horiz-adv-x="1126" d="M72 872v119q0 92 29.5 168.5t89.5 131t150.5 84.5t211.5 30q159 0 265 -52t159 -149q24 -43 36 -88.5t17.5 -105.5t5.5 -119v-279q0 -129 -8 -207.5t-26 -142.5q-42 -138 -151 -214.5t-296 -76.5q-74 0 -129 7t-97.5 20.5t-76.5 34t-65 47.5q-50 43 -68.5 97t-18.5 116 q0 31 14 42t52 11h125q37 0 48.5 -10.5t14.5 -32.5q5 -29 15.5 -53.5t31.5 -42.5t55 -28.5t85 -10.5q62 0 108 16t74 45q32 35 47 89t15 126v146q-21 -32 -69 -59t-108.5 -39.5t-117.5 -12.5q-98 0 -175.5 23.5t-131.5 72t-82.5 122.5t-28.5 175zM309 918q0 -130 60.5 -186 t177.5 -56q120 0 180 56t60 186v49q0 129 -60 185t-180 56q-117 0 -177.5 -56t-60.5 -185v-49z" />
<glyph unicode=":" horiz-adv-x="569" d="M119 127v49q0 48 22 84t60.5 51t81.5 15q59 0 99 -25t53.5 -60t13.5 -65v-49q0 -46 -23.5 -83t-62 -52t-80.5 -15t-73 12t-51.5 33t-30 48t-9.5 57zM119 893v49q0 48 22 84t60.5 51t81.5 15q59 0 99 -25t53.5 -60t13.5 -65v-49q0 -46 -23.5 -83t-62.5 -52t-80 -15 q-42 0 -73 12t-51.5 33t-30 48t-9.5 57z" />
<glyph unicode=";" horiz-adv-x="569" d="M119 893v49q0 30 11.5 64.5t52.5 60t100 25.5q41 0 80.5 -15.5t62.5 -51.5t23 -83v-49q0 -30 -13 -64.5t-52.5 -60t-100.5 -25.5q-43 0 -81 14.5t-60.5 51t-22.5 84.5zM121 125v51q0 44 22 80q19 31 52.5 50.5t87.5 19.5q51 0 93.5 -25t63.5 -84.5t21 -142.5v-19 q0 -89 -14.5 -178.5t-79.5 -146t-195 -56.5q-9 0 -13.5 4t-4.5 15v98q0 14 20 14q75 0 105 48.5t30 138.5q-9 -6 -24 -10.5t-33 -4.5q-29 0 -59 13.5t-51 49.5t-21 85z" />
<glyph unicode="&#x3c;" d="M174 623v131q0 17 6 26.5t19 16.5l706 352q6 4 19 4q26 0 26 -29v-145q0 -40 -26 -51l-527 -240l527 -239q14 -7 20 -16t6 -36v-145q0 -29 -26 -29q-13 0 -19 4l-706 353q-13 6 -19 16t-6 27z" />
<glyph unicode="=" d="M92 422v106q0 54 47 54h844q32 0 39.5 -11t7.5 -43v-106q0 -53 -47 -53h-844q-32 0 -39.5 10.5t-7.5 42.5zM92 848v106q0 54 47 54h844q32 0 39.5 -11t7.5 -43v-106q0 -53 -47 -53h-844q-32 0 -39.5 10.5t-7.5 42.5z" />
<glyph unicode="&#x3e;" d="M172 252v145q0 29 6.5 37.5t20.5 14.5l526 239l-526 240q-27 11 -27 51v145q0 29 27 29q11 0 18 -4l707 -352q12 -7 18 -16.5t6 -26.5v-131q0 -17 -6 -27t-18 -16l-707 -353q-7 -4 -18 -4q-27 0 -27 29z" />
<glyph unicode="?" horiz-adv-x="1090" d="M68 1133q0 54 21.5 114t68.5 107q45 45 101 74.5t131 42t151 12.5q104 0 183.5 -27t133 -76.5t80.5 -118.5t27 -153v-41q0 -52 -19 -104.5t-60 -101t-104.5 -90t-152.5 -71.5v-170q0 -37 -14 -48t-52 -11h-100q-37 0 -50.5 11t-13.5 48v269q0 40 45 57q105 33 164 69 t81 81.5t22 95.5v18q0 52 -24 91.5t-67 58t-96 18.5q-84 0 -131.5 -29.5t-61.5 -71t-20 -75.5q-3 -22 -14.5 -32.5t-46.5 -10.5h-117q-38 0 -51.5 12.5t-13.5 51.5zM367 106v46q0 39 20 73.5t54.5 48t72.5 13.5q56 0 91 -23t47 -54t12 -58v-46q0 -44 -21.5 -75.5t-56 -45.5 t-72.5 -14t-65.5 11t-45.5 30t-27 43t-9 51z" />
<glyph unicode="@" horiz-adv-x="1452" d="M111 627v192q0 144 34.5 261.5t102 201.5t168 130t233.5 46h211q137 0 229 -34t148 -94.5t80 -144t24 -181.5v-295q0 -76 -12 -125t-28.5 -76.5t-34.5 -46.5q-45 -47 -114 -74t-165 -27h-72q-108 0 -190.5 17t-138.5 57t-84.5 105.5t-28.5 162.5q0 134 59 214 t160.5 105.5t208.5 25.5h205v38q0 67 -33 111t-96 63t-139 19h-170q-95 0 -161.5 -32t-108.5 -91.5t-61.5 -144.5t-19.5 -191v-178q0 -106 19 -191t64 -144.5t118.5 -91.5t183.5 -32h584v-182h-651q-126 0 -223.5 46t-164.5 128.5t-101.5 198t-34.5 254.5zM713 686 q0 -69 50 -104t157 -35h2q100 0 142 35.5t42 103.5v174h-158q-104 0 -156 -23.5t-65.5 -64.5t-13.5 -86z" />
<glyph unicode="A" horiz-adv-x="1260" d="M4 59l471 1362q6 19 17.5 28t48.5 9h184q21 0 36.5 -5t21 -14t8.5 -18l464 -1362q5 -14 5 -24q0 -13 -8 -21q-14 -14 -38 -14h-143q-39 0 -50.5 11.5t-23.5 47.5l-98 287h-549l-96 -289q-13 -37 -24.5 -47t-49.5 -10h-135q-23 0 -37 14q-8 8 -9 21q0 10 5 24zM426 575 h395l-200 584z" />
<glyph unicode="B" horiz-adv-x="1290" d="M147 59v1340q0 37 14 48t52 11h532q82 0 144 -15.5t107 -41.5t74.5 -60.5t47.5 -72.5q16 -34 23.5 -72t7.5 -86v-68q0 -54 -7 -91t-24 -68q-25 -48 -73.5 -83.5t-114.5 -47.5q69 -5 125 -37.5t84 -87.5q15 -32 22.5 -75t7.5 -103v-54q0 -69 -8.5 -116t-23.5 -84 q-41 -93 -147 -144t-285 -51h-492q-38 0 -52 11t-14 48zM393 225h299q75 0 120 18t71 58q12 20 19 47.5t7 69.5v41q0 43 -7 72t-21 49q-26 38 -71 54.5t-108 16.5h-309v-426zM393 874h316q62 0 101.5 15t59.5 47q13 19 18 47t5 57v27q0 31 -6 57.5t-17 44.5q-39 64 -157 64 h-320v-359z" />
<glyph unicode="C" horiz-adv-x="1249" d="M111 569v320q0 108 11.5 181.5t35.5 131.5q28 67 73 120.5t107.5 91t142.5 57.5t178 20q135 0 237 -35.5t165 -101.5q47 -52 70.5 -103t31.5 -107.5t8 -105.5q0 -32 -15.5 -43.5t-53.5 -11.5h-141q-36 0 -48 11.5t-14 39.5q-3 51 -11 90.5t-36 71.5q-22 24 -51 39.5 t-69.5 23t-84.5 7.5q-69 0 -120 -18t-84 -60t-49.5 -112t-16.5 -175v-344q0 -104 16 -173.5t49 -111.5t83.5 -59.5t119.5 -17.5q68 0 118.5 15.5t82.5 49.5q28 29 41 69t16 103q2 26 14.5 37.5t47.5 11.5h137q38 0 53.5 -12t15.5 -47q0 -88 -23.5 -167t-92.5 -149 q-66 -65 -168 -102t-244 -37q-92 0 -169 20t-137.5 57.5t-105.5 91t-73 120.5q-24 54 -35.5 129t-11.5 184z" />
<glyph unicode="D" horiz-adv-x="1280" d="M147 59v1340q0 37 14 48t52 11h418q144 0 250 -45.5t160 -109t79 -119.5q20 -45 29 -86.5t14.5 -100.5t5.5 -116v-303q0 -105 -12.5 -178t-36.5 -126q-24 -56 -65.5 -105.5t-102 -87t-140.5 -59.5t-181 -22h-418q-38 0 -52 11t-14 48zM397 238h230q106 0 170 40.5t86 121 t22 178.5v303q0 139 -38.5 217.5t-105 100.5t-134.5 22h-230v-983z" />
<glyph unicode="E" d="M147 59v1340q0 37 14 48t52 11h768q37 0 48 -13.5t11 -51.5v-107q0 -38 -11 -51.5t-48 -13.5h-580v-336h527q37 0 48 -14t11 -52v-106q0 -38 -11 -52t-48 -14h-527v-409h588q37 0 48.5 -14t11.5 -52v-106q0 -39 -11.5 -52.5t-48.5 -13.5h-776q-38 0 -52 11t-14 48z" />
<glyph unicode="F" horiz-adv-x="1102" d="M147 59v1340q0 37 14 48t52 11h764q37 0 48 -13.5t11 -51.5v-107q0 -38 -11 -51.5t-48 -13.5h-576v-336h523q37 0 48 -14t11 -52v-106q0 -38 -11 -52t-48 -14h-523v-581q0 -39 -11 -52.5t-48 -13.5h-129q-38 0 -52 11t-14 48z" />
<glyph unicode="G" horiz-adv-x="1272" d="M111 569v320q0 108 11.5 181.5t35.5 131.5q28 67 73 120.5t107 91t141.5 57.5t177.5 20q131 0 228 -35t162 -100q43 -45 71 -106.5t39.5 -121t11.5 -110.5q0 -32 -15.5 -43.5t-53.5 -11.5h-142q-35 0 -47 11.5t-14 39.5q-8 132 -70 192t-186 60q-69 0 -119 -18t-83 -60 t-48.5 -112t-15.5 -175v-344q0 -104 15.5 -173.5t48.5 -111.5t83 -59.5t119 -17.5q97 0 156 34.5t81.5 105t22.5 154.5v41h-121q-38 0 -51.5 11.5t-13.5 48.5v100q0 37 13.5 48.5t51.5 11.5h324q38 0 51.5 -11.5t13.5 -48.5v-231q0 -101 -32 -190.5t-97 -156.5t-164.5 -106 t-234.5 -39q-97 0 -174 20t-136 57.5t-102 91t-71 120.5q-24 54 -35.5 129t-11.5 184z" />
<glyph unicode="H" horiz-adv-x="1348" d="M147 59v1340q0 37 14 48t52 11h119q38 0 51.5 -11t13.5 -48v-512h553v512q0 37 14 48t52 11h119q38 0 51.5 -11t13.5 -48v-1340q0 -37 -13.5 -48t-51.5 -11h-119q-38 0 -52 11t-14 48v582h-553v-582q0 -37 -13.5 -48t-51.5 -11h-119q-38 0 -52 11t-14 48z" />
<glyph unicode="I" horiz-adv-x="545" d="M147 59v1340q0 37 14 48t52 11h119q38 0 51.5 -11t13.5 -48v-1340q0 -37 -13.5 -48t-51.5 -11h-119q-38 0 -52 11t-14 48z" />
<glyph unicode="J" horiz-adv-x="1161" d="M72 393q0 35 15.5 47.5t53.5 12.5h131q35 0 47.5 -12t14.5 -38q2 -42 14.5 -83t40.5 -70q31 -32 67.5 -43.5t84.5 -11.5q99 0 149 40t63 124t13 182v858q0 37 13.5 48t51.5 11h119q38 0 52 -11t14 -48v-930q0 -88 -13 -160.5t-45 -134.5q-49 -97 -149 -152t-266 -55 q-102 0 -190.5 28.5t-164.5 102.5q-58 59 -87 134.5t-29 160.5z" />
<glyph unicode="K" horiz-adv-x="1212" d="M147 59v1340q0 37 14 48t52 11h119q38 0 51.5 -11t13.5 -48v-557l463 557q12 14 20 25t16.5 18.5t20.5 11.5t31 4h170q38 0 53 -15.5t-10 -43.5l-403 -467l444 -873q10 -19 10 -31q0 -8 -5 -14q-12 -14 -50 -14h-151q-38 0 -53.5 12t-32.5 47l-340 666l-183 -211v-455 q0 -37 -13.5 -48t-51.5 -11h-119q-38 0 -52 11t-14 48z" />
<glyph unicode="L" horiz-adv-x="1085" d="M147 59v1340q0 37 14 48t52 11h129q37 0 48 -13.5t11 -51.5v-1155h584q37 0 48 -14t11 -52v-106q0 -39 -11 -52.5t-48 -13.5h-772q-38 0 -52 11t-14 48z" />
<glyph unicode="M" horiz-adv-x="1518" d="M147 59v1340q0 37 14 48t52 11h137q26 0 39.5 -7t24.5 -30l344 -741l346 741q11 23 24 30t39 7h138q38 0 51.5 -11t13.5 -48v-1340q0 -37 -13.5 -48t-51.5 -11h-113q-38 0 -52 11t-14 48v916l-235 -512q-14 -26 -24.5 -31.5t-41.5 -5.5h-133q-23 0 -37 4.5t-19 14 t-9 18.5l-236 512v-916q0 -37 -13.5 -48t-51.5 -11h-113q-38 0 -52 11t-14 48z" />
<glyph unicode="N" horiz-adv-x="1307" d="M147 59v1340q0 37 14 48t52 11h139q43 0 64 -37l499 -948v948q0 26 19 31.5t45 5.5h115q38 0 51.5 -11t13.5 -48v-1340q0 -37 -13.5 -48t-51.5 -11h-119q-34 0 -49 5t-24 16.5t-17 27.5l-494 938v-928q0 -37 -13.5 -48t-51.5 -11h-113q-38 0 -52 11t-14 48z" />
<glyph unicode="O" horiz-adv-x="1307" d="M111 569v320q0 108 11.5 181.5t35.5 131.5q28 67 73 120.5t107 91t141 57.5t176 20q140 0 245 -43.5t162 -111t87 -134.5q23 -56 35 -129.5t12 -183.5v-320q0 -111 -12.5 -185.5t-34.5 -127.5q-45 -104 -124.5 -171.5t-177 -92.5t-192.5 -25q-97 0 -176 20t-141 57.5 t-107 91t-73 120.5q-24 54 -35.5 129t-11.5 184zM377 557q0 -104 17.5 -173.5t52.5 -111.5t87 -59.5t121 -17.5q107 0 169.5 42t85 129t22.5 191v344q0 153 -38 234.5t-104.5 105t-134.5 23.5q-69 0 -121 -17.5t-87 -59.5t-52.5 -111.5t-17.5 -174.5v-344z" />
<glyph unicode="P" horiz-adv-x="1171" d="M147 59v1340q0 37 14 48t52 11h428q133 0 216.5 -30t133.5 -82q47 -47 70.5 -122t23.5 -190v-82q0 -105 -23.5 -178.5t-70.5 -120.5q-50 -52 -133.5 -82t-216.5 -30h-248v-482q0 -37 -13.5 -48t-51.5 -11h-115q-38 0 -52 11t-14 48zM393 764h225q85 0 134.5 33.5t61 81 t11.5 88.5v49q0 80 -24 128.5t-72.5 69.5t-110.5 21h-225v-471z" />
<glyph unicode="Q" horiz-adv-x="1307" d="M111 602v287q0 108 11.5 181.5t35.5 131.5q28 67 73 120.5t107 91t141 57.5t176 20q140 0 245 -43.5t162 -111t87 -134.5q23 -56 35 -129.5t12 -183.5v-287q0 -120 -17.5 -194t-56.5 -118t-90 -77h172q34 0 45 -13t11 -48v-91q0 -35 -11 -48t-45 -13h-549q-97 0 -176 20 t-141 57.5t-107 91t-73 120.5q-24 54 -35.5 129t-11.5 184zM377 582q0 -105 17.5 -174.5t52.5 -111.5t87 -59.5t121 -17.5q107 0 169.5 42t85 129t22.5 192v319q0 153 -38 234.5t-104.5 105t-134.5 23.5q-69 0 -121 -17.5t-87 -59.5t-52.5 -111.5t-17.5 -174.5v-319z" />
<glyph unicode="R" horiz-adv-x="1229" d="M147 59v1340q0 37 14 48t52 11h459q95 0 163.5 -16t113.5 -44.5t71 -54.5q46 -46 71 -111.5t25 -168.5v-68q0 -99 -25.5 -173t-71 -116.5t-95.5 -62.5l254 -584q9 -20 9 -32q0 -9 -5 -15q-11 -12 -49 -12h-148q-53 0 -86 59l-215 521h-291v-521q0 -37 -13.5 -48 t-51.5 -11h-115q-38 0 -52 11t-14 48zM393 803h256q85 0 134 33.5t61 77.5t12 79v51q0 62 -24 105.5t-73 64.5t-110 21h-256v-432z" />
<glyph unicode="S" horiz-adv-x="1176" d="M72 362q0 26 10 36t39 10h164q29 0 35.5 -11t9.5 -28q6 -33 19.5 -67t42 -61.5t74.5 -45t118 -17.5q92 0 147.5 24.5t75.5 72t20 102.5t-20.5 94t-69.5 69.5t-112 49.5l-228 67q-61 17 -106.5 37.5t-68.5 36.5t-40 33q-48 46 -75 109.5t-27 148.5v39q0 137 62 239 t177 146.5t250 44.5q157 0 256 -37t156 -100q42 -45 64 -105t22 -137q0 -30 -10.5 -40.5t-50.5 -10.5h-144q-35 0 -46 10t-13 33q-4 62 -34 102.5t-84.5 58t-119.5 17.5q-126 0 -180.5 -54t-54.5 -151q0 -42 9.5 -71.5t34.5 -52.5t67.5 -41.5t107.5 -37.5l225 -65 q125 -38 196 -101.5t94 -137.5t23 -142v-47q0 -106 -36.5 -184t-102 -129t-157 -76t-201.5 -25q-88 0 -154 11.5t-115.5 29.5t-84 41t-58.5 47q-56 57 -81 125.5t-25 140.5z" />
<glyph unicode="T" horiz-adv-x="1106" d="M10 1286v107q0 38 11.5 51.5t48.5 13.5h966q37 0 48.5 -13.5t11.5 -51.5v-107q0 -38 -11.5 -51.5t-48.5 -13.5h-358v-1155q0 -39 -11.5 -52.5t-48.5 -13.5h-131q-37 0 -48 13.5t-11 52.5v1155h-358q-40 0 -50 13.5t-10 51.5z" />
<glyph unicode="U" horiz-adv-x="1278" d="M133 508v891q0 37 13.5 48t52.5 11h118q39 0 52.5 -11t13.5 -48v-889q0 -68 12.5 -125t42 -98t77.5 -63.5t120 -22.5h27q102 0 160 47t73.5 120t15.5 142v889q0 37 14 48t52 11h119q38 0 51.5 -11t13.5 -48v-891q0 -128 -30.5 -228.5t-93 -170t-157.5 -106t-223 -36.5 h-18q-128 0 -223 36.5t-158 106.5t-94 170t-31 228z" />
<glyph unicode="V" horiz-adv-x="1151" d="M4 1399q-4 13 -4 23q0 17 12 24q19 12 58 12h127q52 0 69 -59l316 -1080l311 1080q8 36 19.5 47.5t48.5 11.5h120q39 0 58 -12q12 -8 12 -24q0 -10 -4 -23l-414 -1362q-8 -23 -20.5 -30t-44.5 -7h-183q-37 0 -49 9t-16 28z" />
<glyph unicode="W" horiz-adv-x="1616" d="M23 1399q-3 11 -3 20q0 19 12 27q18 12 56 12h117q37 0 49.5 -11.5t19.5 -47.5l195 -989l205 960q4 19 16 28t47 9h142q37 0 49.5 -9t15.5 -28l184 -960l213 989q8 36 19.5 47.5t50.5 11.5h117q38 0 56 -12q12 -8 12 -27q0 -9 -3 -20l-307 -1362q-5 -22 -18.5 -29.5 t-46.5 -7.5h-162q-37 0 -49 9t-17 28l-194 921l-193 -921q-3 -19 -15.5 -28t-49.5 -9h-162q-37 0 -49 9t-17 28z" />
<glyph unicode="X" horiz-adv-x="1198" d="M30 34q0 13 11 32l410 677l-390 650q-20 35 -2.5 50t58.5 15h141q51 0 88 -61l246 -434l250 434q16 28 25.5 39.5t25 16.5t37.5 5h133q34 0 50 -10t16 -25q0 -12 -11 -30l-387 -643l408 -684q10 -18 10 -31q0 -12 -9 -20q-18 -15 -57 -15h-143q-50 0 -86 61l-266 469 l-271 -469q-21 -35 -26.5 -42.5t-22 -13t-37.5 -5.5h-135q-34 0 -50 8.5t-16 25.5z" />
<glyph unicode="Y" horiz-adv-x="1139" d="M8 1446q6 6 18 9t27 3h162q28 0 39.5 -6.5t18 -21.5t16.5 -31l291 -568l284 568q9 17 13.5 28.5t10 18t15.5 9.5t29 3h135q32 0 50 -7t21 -21q1 -4 1 -8q0 -11 -6 -23l-437 -846v-494q0 -37 -13.5 -48t-51.5 -11h-119q-38 0 -52 11t-14 48v494l-438 846q-8 16 -8 27 q0 12 8 20z" />
<glyph unicode="Z" horiz-adv-x="1069" d="M31 59v115q0 29 20 59l660 996h-590q-37 0 -48.5 13.5t-11.5 51.5v99q0 38 11.5 51.5t48.5 13.5h835q39 0 52.5 -11t13.5 -48v-113q0 -20 -6.5 -34.5t-14.5 -26.5l-659 -996h637q37 0 48 -13.5t11 -51.5v-98q0 -39 -11 -52.5t-48 -13.5h-883q-38 0 -51.5 11t-13.5 48z " />
<glyph unicode="[" horiz-adv-x="700" d="M147 -295v1698q0 34 13.5 44.5t48.5 10.5h364q34 0 45 -13t11 -48v-80q0 -35 -11 -48.5t-45 -13.5h-188v-1402h188q34 0 45 -13.5t11 -48.5v-80q0 -35 -11 -48t-45 -13h-364q-35 0 -48.5 10.5t-13.5 44.5z" />
<glyph unicode="\" horiz-adv-x="721" d="M4 1399q-12 35 5.5 47t56.5 12h94q49 0 69 -59l486 -1340q14 -35 -4.5 -47t-57.5 -12h-94q-48 0 -70 59z" />
<glyph unicode="]" horiz-adv-x="700" d="M72 -209q0 35 10.5 48.5t44.5 13.5h188v1402h-188q-34 0 -44.5 13.5t-10.5 48.5v80q0 35 10.5 48t44.5 13h365q35 0 48 -10.5t13 -44.5v-1698q0 -34 -13 -44.5t-48 -10.5h-365q-34 0 -44.5 13t-10.5 48v80z" />
<glyph unicode="^" horiz-adv-x="1188" d="M75.5 429q-8.5 13 2.5 32l414 706q8 13 17 19t26 6h118q27 0 43 -25l414 -706q11 -19 2.5 -32t-27.5 -13h-165q-38 0 -52 26l-278 488l-279 -488q-15 -26 -51 -26h-158q-18 0 -26.5 13z" />
<glyph unicode="_" horiz-adv-x="1024" d="M0 -133h1024v-217h-1024v217z" />
<glyph unicode="`" horiz-adv-x="737" d="M170 1440q0 16 47 16h160q35 0 45.5 -9.5t36.5 -53.5l90 -156q18 -35 18 -51q0 -8 -8.5 -11.5t-30.5 -3.5h-122q-31 0 -48 8t-26.5 24t-22.5 34l-108 152q-31 44 -31 51z" />
<glyph unicode="a" horiz-adv-x="1090" d="M82 322q0 184 107 266t321 82q105 0 231 -11v84q0 70 -21.5 111t-67.5 56.5t-101 15.5q-43 0 -71.5 -7.5t-45.5 -19.5t-26 -22q-18 -18 -29 -48q-14 -38 -66 -38h-133q-34 0 -45.5 11.5t-11.5 33.5q0 45 18 81.5t45 67.5q37 40 95 68t129 38.5t141 10.5q179 0 277 -49.5 t123.5 -130t25.5 -162.5v-451q0 -107 -47.5 -185t-143 -111t-213.5 -33h-57q-107 0 -188 17t-136 57t-82.5 105.5t-27.5 162.5zM322 303q0 -69 45.5 -105t142.5 -36h35q79 0 122.5 26t58.5 78t15 115v92q-111 12 -184 12q-101 0 -154 -25t-67 -68.5t-14 -88.5z" />
<glyph unicode="b" horiz-adv-x="1133" d="M113 451v948q0 37 13.5 48t51.5 11h113q38 0 51.5 -11t13.5 -48v-438q29 47 72.5 80t99.5 47t113 14q143 0 236.5 -65.5t128 -172t34.5 -217.5v-221q0 -97 -28 -180t-85.5 -144t-145.5 -96t-208 -35t-206.5 32.5t-143.5 88.5q-45 43 -70.5 101.5t-32.5 123.5t-7 134z M352 457q0 -144 55 -212.5t166 -68.5q113 0 168.5 68.5t55.5 212.5v155q0 144 -53.5 213.5t-165.5 69.5t-169 -69.5t-57 -213.5v-155z" />
<glyph unicode="c" horiz-adv-x="1061" d="M92 426v221q0 97 24.5 180t78 144t138 96t204.5 35q92 0 163.5 -18t116 -47t72.5 -56q54 -54 71 -113t17 -120q0 -31 -13.5 -42.5t-52.5 -11.5h-120q-34 0 -48 10t-16 33q-9 59 -29.5 93t-61.5 50.5t-91 16.5q-88 0 -136 -39.5t-60.5 -104.5t-12.5 -137v-159 q0 -72 10.5 -124.5t34 -87t62 -51t94.5 -16.5q72 0 114 25t56.5 63t19.5 72q2 17 13 29t42 12h131q39 0 52.5 -11t13.5 -36q0 -68 -22 -129.5t-70 -112.5q-48 -53 -135.5 -86t-214.5 -33q-120 0 -204.5 35t-138 96t-78 144t-24.5 180z" />
<glyph unicode="d" horiz-adv-x="1133" d="M92 426v221q0 111 27 195.5t78.5 142.5t125.5 87.5t169 29.5q57 0 101.5 -11t79 -30t60 -44.5t43.5 -55.5v438q0 37 14 48t52 11h112q39 0 52.5 -11t13.5 -48v-991q0 -107 -27 -183.5t-84 -132.5t-143 -88.5t-207 -32.5q-120 0 -207.5 35t-145.5 96t-86 144t-28 180z M336 457q0 -144 55.5 -212.5t167.5 -68.5t166.5 68.5t54.5 212.5v155q0 144 -57 213.5t-168 69.5q-112 0 -165.5 -69.5t-53.5 -213.5v-155z" />
<glyph unicode="e" horiz-adv-x="1104" d="M92 444v181q0 105 28 192.5t86 151t145.5 98.5t207.5 35q119 0 205.5 -33.5t142.5 -96t82.5 -150t26.5 -195.5v-97q0 -37 -14 -48t-52 -11h-614v-14q0 -144 56 -211.5t171 -67.5q67 0 111.5 20.5t60 45t21.5 41.5q5 15 16 24.5t39 9.5h127q38 0 50.5 -11t12.5 -36 q0 -32 -15 -68t-35 -64.5t-36 -45.5q-41 -43 -100 -70.5t-126.5 -40t-129.5 -12.5q-120 0 -207.5 35t-145.5 98t-86 149.5t-28 190.5zM338 655h430q0 131 -53 190.5t-156 59.5t-160.5 -59.5t-60.5 -190.5z" />
<glyph unicode="f" horiz-adv-x="719" d="M47 922v98q0 53 47 53h111v158q0 76 30 130t82.5 75.5t110.5 21.5h227q32 0 39.5 -10.5t7.5 -42.5v-94q0 -54 -47 -54h-114q-53 0 -72.5 -19.5t-19.5 -72.5v-92h188q32 0 39.5 -10.5t7.5 -42.5v-98q0 -54 -47 -54h-188v-809q0 -37 -14 -48t-52 -11h-113q-38 0 -51.5 11 t-13.5 48v809h-111q-32 0 -39.5 11t-7.5 43z" />
<glyph unicode="g" horiz-adv-x="1133" d="M92 467v190q0 97 28 178.5t86 140.5t145.5 92.5t207.5 33.5q250 0 361 -117q52 -54 76 -125t24 -170v-670q0 -190 -106 -294.5t-320 -104.5h-94q-84 0 -141.5 14.5t-95 37t-60.5 42.5q-32 27 -52 70.5t-20 64.5q0 19 10 30t35 11h141q47 0 66 -30q17 -26 53 -44t94 -18 h27q56 0 98 13t74 45q22 21 34.5 55t12.5 90v152q-30 -50 -74.5 -82.5t-98.5 -46t-111 -13.5q-95 0 -169 29.5t-125.5 87.5t-78.5 142.5t-27 195.5zM336 500q0 -144 53.5 -213.5t165.5 -69.5q111 0 168 69.5t57 213.5v127q0 143 -54.5 206.5t-166.5 63.5t-167.5 -63.5 t-55.5 -206.5v-127z" />
<glyph unicode="h" horiz-adv-x="1141" d="M133 59v1340q0 37 13.5 48t52.5 11h112q38 0 52 -11t14 -48v-438q41 62 113.5 101.5t183.5 39.5q83 0 144 -25t102 -67q45 -47 66.5 -113t21.5 -166v-672q0 -37 -14 -48t-52 -11h-113q-38 0 -51.5 11t-13.5 48v635q0 56 -11.5 93t-33.5 59q-25 25 -58.5 34t-76.5 9 q-69 0 -118.5 -32t-69 -84.5t-19.5 -113.5v-600q0 -37 -14 -48t-52 -11h-112q-39 0 -52.5 11t-13.5 48z" />
<glyph unicode="i" horiz-adv-x="532" d="M123 1315v43q0 40 19.5 70t52.5 43.5t71 13.5q52 0 87 -21.5t47 -51.5t12 -54v-43q0 -40 -20.5 -71t-54 -43.5t-71.5 -12.5t-65 10.5t-44 27.5t-25.5 40t-8.5 49zM143 59v955q0 37 14 48t52 11h113q38 0 51.5 -11t13.5 -48v-955q0 -37 -13.5 -48t-51.5 -11h-113 q-38 0 -52 11t-14 48z" />
<glyph unicode="j" horiz-adv-x="532" d="M-98 -201q0 54 47 54h92q57 0 79.5 25t22.5 81v1055q0 37 14 48t52 11h113q38 0 51.5 -11t13.5 -48v-1125q0 -81 -35 -136t-94.5 -79t-124.5 -24h-184q-32 0 -39.5 10.5t-7.5 42.5v96zM123 1315v43q0 40 19.5 70t52.5 43.5t71 13.5q52 0 87 -21.5t47 -51.5t12 -54v-43 q0 -40 -20.5 -71t-54 -43.5t-71.5 -12.5t-65 10.5t-44 27.5t-25.5 40t-8.5 49z" />
<glyph unicode="k" horiz-adv-x="1071" d="M133 59v1340q0 37 13.5 48t52.5 11h112q38 0 52 -11t14 -48v-719l371 358q7 7 12 13.5t11.5 11t16.5 7.5t27 3h174q17 0 26.5 -7t12.5 -17t-0.5 -21.5t-11.5 -19.5l-307 -291l354 -654q8 -13 8 -25q1 -10 -5 -18q-12 -20 -44 -20h-158q-35 0 -44.5 9.5t-22.5 35.5 l-265 506l-155 -148v-344q0 -37 -14 -48t-52 -11h-112q-39 0 -52.5 11t-13.5 48z" />
<glyph unicode="l" horiz-adv-x="510" d="M133 59v1340q0 37 13.5 48t52.5 11h112q38 0 52 -11t14 -48v-1340q0 -37 -14 -48t-52 -11h-112q-39 0 -52.5 11t-13.5 48z" />
<glyph unicode="m" horiz-adv-x="1722" d="M133 59v955q0 37 13.5 48t52.5 11h108q38 0 52 -11t14 -48v-60q37 54 77.5 87.5t94.5 47t114 13.5q81 0 140.5 -26t99.5 -68q26 -29 41 -58q46 54 96.5 88t110.5 49t119 15q80 0 139.5 -26t99.5 -68q45 -47 64.5 -112t19.5 -165v-672q0 -37 -13.5 -48t-51.5 -11h-113 q-38 0 -51.5 11t-13.5 48v635q0 56 -11 93t-32 59q-25 25 -55.5 34t-73.5 9q-66 0 -111 -30.5t-62.5 -84.5t-17.5 -115v-600q0 -37 -13.5 -48t-51.5 -11h-113q-38 0 -52 11t-14 48v635q0 109 -43 152q-24 25 -54.5 34t-74.5 9q-65 0 -110 -30.5t-62.5 -84.5t-17.5 -115v-600 q0 -37 -14 -48t-52 -11h-112q-39 0 -52.5 11t-13.5 48z" />
<glyph unicode="n" horiz-adv-x="1141" d="M133 59v955q0 37 13.5 48t52.5 11h108q38 0 52 -11t14 -48v-60q40 53 85 87t102.5 47.5t117.5 13.5q80 0 140.5 -25t101.5 -67q45 -47 66.5 -113t21.5 -166v-672q0 -37 -14 -48t-52 -11h-113q-38 0 -51.5 11t-13.5 48v635q0 56 -11.5 93t-33.5 59q-25 25 -58.5 34 t-76.5 9q-69 0 -118.5 -32t-69 -84.5t-19.5 -113.5v-600q0 -37 -14 -48t-52 -11h-112q-39 0 -52.5 11t-13.5 48z" />
<glyph unicode="o" horiz-adv-x="1116" d="M92 426v221q0 97 28 180t86 144t145.5 96t207.5 35q119 0 206.5 -35t145 -96t85.5 -144t28 -180v-221q0 -97 -28 -180t-85.5 -144t-145 -96t-206.5 -35q-120 0 -207.5 35t-145.5 96t-86 144t-28 180zM336 457q0 -144 55.5 -211.5t167.5 -67.5t166.5 67.5t54.5 211.5v159 q0 144 -54.5 211.5t-166.5 67.5t-167.5 -67.5t-55.5 -211.5v-159z" />
<glyph unicode="p" horiz-adv-x="1133" d="M113 -291v881q0 120 13.5 199.5t37.5 119.5t51 68q56 59 144.5 92t213.5 33q120 0 208 -33.5t145.5 -92.5t85.5 -140.5t28 -178.5v-190q0 -111 -27 -195.5t-78 -142.5t-125.5 -87.5t-168.5 -29.5q-57 0 -101.5 11t-79 30t-60 45t-44.5 56v-445q0 -37 -13.5 -48t-51.5 -11 h-113q-38 0 -51.5 11t-13.5 48zM352 500q0 -144 57 -213.5t169 -69.5t165.5 69.5t53.5 213.5v127q0 143 -55.5 206.5t-168.5 63.5q-111 0 -166 -63.5t-55 -206.5v-127z" />
<glyph unicode="q" horiz-adv-x="1133" d="M92 467v190q0 97 28 178.5t86 140.5t145.5 92.5t207.5 33.5q125 0 214 -33t145 -92q52 -54 77 -124.5t25 -152.5v-991q0 -37 -13.5 -48t-52.5 -11h-112q-38 0 -52 11t-14 48v445q-30 -50 -74.5 -82.5t-98.5 -46t-111 -13.5q-95 0 -169 29.5t-125.5 87.5t-78.5 142.5 t-27 195.5zM336 500q0 -144 53.5 -213.5t165.5 -69.5q111 0 168 69.5t57 213.5v127q0 143 -54.5 206.5t-166.5 63.5t-167.5 -63.5t-55.5 -206.5v-127z" />
<glyph unicode="r" horiz-adv-x="721" d="M133 59v955q0 37 13.5 48t52.5 11h108q38 0 52 -11t14 -48v-125q21 60 67 104t94 62t87 18h53q32 0 39.5 -10.5t7.5 -42.5v-119q0 -53 -47 -53h-62q-79 0 -136 -40.5t-78 -98.5t-21 -111v-539q0 -37 -14 -48t-52 -11h-112q-39 0 -52.5 11t-13.5 48z" />
<glyph unicode="s" horiz-adv-x="1042" d="M76 270q0 25 13 35t42 10h137q31 0 41.5 -11t14.5 -28q4 -24 15 -45t33.5 -37.5t59 -26t92.5 -9.5q98 0 151.5 26.5t53.5 94.5q0 58 -35 89.5t-87 45t-97 24.5l-188 45q-50 12 -93.5 34t-76 55t-51.5 77.5t-19 100.5v28q0 64 23 122.5t74.5 103.5t133.5 71.5t199 26.5 q134 0 221.5 -27.5t136.5 -75.5q38 -35 57 -80t19 -104q0 -29 -13.5 -39t-51.5 -10h-117q-37 0 -48.5 9.5t-15.5 31.5q-4 39 -28 64.5t-65.5 37t-88.5 11.5q-74 0 -113 -12t-63 -36q-35 -33 -35 -84q0 -27 9.5 -48t31.5 -37.5t58.5 -30t91.5 -25.5l184 -39 q110 -24 175 -71.5t85.5 -104t20.5 -108.5v-39q0 -117 -68.5 -191.5t-170 -98.5t-196.5 -24q-75 0 -132.5 8t-100 21.5t-72.5 31t-51 36.5q-50 45 -73 96t-23 106z" />
<glyph unicode="t" horiz-adv-x="741" d="M35 922v98q0 53 47 53h113v242q0 37 13.5 48t51.5 11h113q38 0 51.5 -11t13.5 -48v-242h191q32 0 39.5 -10.5t7.5 -42.5v-98q0 -54 -47 -54h-191v-551q0 -55 23 -80.5t80 -25.5h92q32 0 39.5 -10.5t7.5 -42.5v-105q0 -53 -47 -53h-184q-93 0 -154.5 38.5t-80.5 94.5 t-19 107v628h-113q-32 0 -39.5 11t-7.5 43z" />
<glyph unicode="u" horiz-adv-x="1141" d="M133 342v672q0 37 13.5 48t52.5 11h112q38 0 52 -11t14 -48v-635q0 -56 11.5 -93t33.5 -59q25 -24 58.5 -33.5t76.5 -9.5q65 0 115 30t71 84.5t21 115.5v600q0 37 13.5 48t51.5 11h113q38 0 52 -11t14 -48v-955q0 -37 -14 -48t-52 -11h-108q-39 0 -52.5 11t-13.5 48v60 q-24 -32 -50.5 -59.5t-61.5 -47t-80 -30.5t-105 -11q-80 0 -145 25t-105 67q-45 47 -66.5 113t-21.5 166z" />
<glyph unicode="v" horiz-adv-x="985" d="M4 1010q-4 14 -4 25q0 12 5 21q10 17 42 17h127q32 0 47 -13.5t23 -41.5l252 -760l245 762q10 28 24 40.5t46 12.5h125q49 0 49 -34q0 -12 -6 -27l-342 -977q-5 -21 -17.5 -28t-48.5 -7h-161q-41 0 -50.5 8t-15.5 27z" />
<glyph unicode="w" horiz-adv-x="1442" d="M4 1014q-3 12 -3 22q-1 14 5 22q10 16 43 15h129q32 0 47.5 -15t24.5 -50l170 -744l160 733q3 17 15 26t50 9h154q33 0 46.5 -8t18.5 -27l164 -753l166 764q8 35 24 50t48 15h129q33 1 43 -15q6 -9 5 -22q0 -10 -3 -22l-266 -975q-8 -24 -21 -31.5t-47 -7.5h-164 q-38 0 -51 9.5t-17 29.5l-151 735l-154 -735q-5 -23 -19 -31t-48 -8h-164q-38 0 -51 9.5t-17 29.5z" />
<glyph unicode="x" horiz-adv-x="975" d="M18 20q-3 7 -3 14q0 14 10 29l331 480l-313 467q-15 23 -6.5 43t43.5 20h143q31 0 46 -12.5t32 -38.5l191 -293l196 295q19 27 33 38t45 11h127q35 0 43.5 -21t-6.5 -44l-312 -453l332 -492q10 -15 10 -29q0 -7 -2 -14q-8 -20 -45 -20h-147q-31 0 -46 11.5t-32 37.5 l-207 318l-209 -316q-34 -51 -77 -51h-134q-35 0 -43 20z" />
<glyph unicode="y" horiz-adv-x="993" d="M6 1056q11 17 43 17h137q27 0 42.5 -12t27.5 -43l256 -690l229 694q10 28 24 39.5t46 11.5h135q49 0 49 -34q0 -11 -6 -27l-403 -1118q-33 -89 -60 -135.5t-80 -77.5t-118 -31h-185q-32 0 -39.5 10.5t-7.5 42.5v104q0 54 47 54h107q49 0 70 14t36 51l37 92l-387 992 q-6 15 -6 26q0 12 6 20z" />
<glyph unicode="z" horiz-adv-x="944" d="M47 53v99q0 33 21 61l518 655h-461q-32 0 -39.5 11t-7.5 43v98q0 53 47 53h719q32 0 39.5 -10.5t7.5 -42.5v-100q0 -33 -21 -60l-518 -655h512q32 0 39.5 -10.5t7.5 -42.5v-99q0 -53 -47 -53h-770q-32 0 -39.5 10.5t-7.5 42.5z" />
<glyph unicode="{" horiz-adv-x="772" d="M61 500v104q0 35 11 48.5t45 13.5h33q36 0 60 19t33 45.5t9 47.5v391q0 82 18.5 137.5t57 89.5t98 48t141.5 14h88q34 0 45 -12t11 -49v-103q0 -35 -11 -48t-45 -13h-39q-57 0 -84.5 -16t-32.5 -48.5t-5 -72.5v-336q0 -64 -20 -107t-45.5 -64.5t-45.5 -37.5 q46 -38 66 -60t32.5 -61t12.5 -86v-332q0 -63 11.5 -91t42 -37t68.5 -9h39q34 0 45 -13t11 -48v-103q0 -35 -11 -48t-45 -13h-88q-82 0 -141.5 15.5t-98 50t-57 91t-18.5 138.5v381q0 21 -6.5 41.5t-19.5 36t-32 25t-44 9.5h-33q-34 0 -45 13.5t-11 48.5z" />
<glyph unicode="|" horiz-adv-x="575" d="M178 -303v1714q0 32 10.5 39.5t42.5 7.5h113q53 0 53 -47v-1714q0 -32 -10.5 -39.5t-42.5 -7.5h-113q-53 0 -53 47z" />
<glyph unicode="}" horiz-adv-x="772" d="M61 -186q0 35 11 48t45 13h39q56 0 83 16t33.5 48.5t6.5 72.5v332q0 62 19.5 104t45.5 64.5t45 38.5q-19 16 -38.5 33t-35.5 40.5t-26 56t-10 79.5v336q0 64 -13.5 91.5t-43 36.5t-66.5 9h-39q-34 0 -45 13t-11 48v103q0 37 11 49t45 12h88q128 0 197 -34.5t93.5 -104 t24.5 -150.5v-391q0 -21 6.5 -41.5t19.5 -36t32 -25t45 -9.5h32q34 0 45 -13.5t11 -48.5v-104q0 -35 -11 -48.5t-45 -13.5h-32q-37 0 -63 -21t-33 -45.5t-7 -45.5v-381q0 -122 -41.5 -188t-116.5 -86.5t-157 -20.5h-88q-34 0 -45 13t-11 48v103z" />
<glyph unicode="~" horiz-adv-x="1495" d="M92 532v119q0 106 22 178t63 115.5t101 62.5t136 19q90 0 159.5 -30.5t126.5 -75t103 -76.5q40 -29 70 -56.5t59 -50t61 -36t74 -13.5q57 0 85 33t28 115v122q0 32 10.5 40t42.5 8h117q53 0 53 -48v-118q0 -106 -21.5 -178t-63 -115.5t-101 -62.5t-134.5 -19 q-70 0 -125 17t-100.5 42.5t-83 56t-72.5 56.5q-36 28 -70 57.5t-67.5 53.5t-67.5 39.5t-69 15.5q-57 0 -85 -36.5t-28 -115.5v-119q0 -32 -10.5 -39.5t-42.5 -7.5h-117q-53 0 -53 47z" />
<glyph unicode="&#xa1;" horiz-adv-x="614" d="M160 922v45q0 39 20 73t55 48t74 14q55 0 89.5 -22.5t46.5 -54t12 -58.5v-45q0 -45 -22 -77.5t-55.5 -45.5t-70.5 -13q-54 0 -90.5 23.5t-47.5 54t-11 58.5zM170 -291l31 885q1 37 14 48t51 11h84q35 0 49 -11t17 -48l30 -885q2 -37 -12.5 -48t-52.5 -11h-145 q-39 0 -53.5 11t-12.5 48z" />
<glyph unicode="&#xa2;" horiz-adv-x="1061" d="M92 426v221q0 92 23 172t72 140t125 97t182 44v182q0 25 24 25h64q24 0 24 -25v-182q103 -8 177 -38.5t122 -80.5q47 -46 67.5 -102.5t20.5 -118.5q0 -31 -13.5 -42t-51.5 -11h-115q-37 0 -48.5 10.5t-14.5 32.5q-5 39 -22.5 70.5t-50 49.5t-71.5 23v-711q48 5 80 30 t46 57.5t18 56.5q3 17 13.5 29t41.5 12h125q38 0 51.5 -11.5t13.5 -36.5q0 -55 -22 -116.5t-70 -112.5q-42 -46 -118 -77.5t-179 -39.5v-186q0 -25 -24 -25h-64q-24 0 -24 25v186q-106 8 -182 45.5t-125 97.5t-72 139t-23 171zM332 457q0 -126 38 -196.5t124 -78.5v711 q-88 -9 -125 -81.5t-37 -195.5v-159z" />
<glyph unicode="&#xa3;" horiz-adv-x="1217" d="M135 702v68q0 53 47 53h72v193q0 87 19.5 166.5t70 140t137.5 96t221 35.5q111 0 186 -20t109.5 -45t53.5 -41q34 -32 55 -79t28 -92t7 -75q0 -31 -14 -42t-52 -11h-123q-37 0 -48.5 10.5t-14.5 32.5q-4 27 -8 49t-12.5 40t-20.5 31q-22 23 -54.5 36.5t-86.5 13.5 q-84 0 -129 -33.5t-58.5 -95.5t-13.5 -134v-176h330q32 0 39.5 -10.5t7.5 -42.5v-68q0 -53 -47 -53h-330v-420h563q37 0 48 -13.5t11 -51.5v-98q0 -39 -11 -52.5t-48 -13.5h-756q-37 0 -48 13.5t-11 52.5v583h-72q-32 0 -39.5 10.5t-7.5 42.5z" />
<glyph unicode="&#xa4;" horiz-adv-x="1251" d="M91.5 1091.5q0.5 7.5 7 15.5t18.5 19l71 72q23 23 35 25t35 -21l117 -117q54 36 117 54t133 18q69 0 132 -19.5t117 -54.5l119 119q23 23 35 21t35 -25l72 -72q11 -11 17.5 -19t7 -15.5t-4.5 -15.5t-16 -19l-119 -119q35 -54 54.5 -116.5t19.5 -131.5t-19.5 -132 t-54.5 -116l119 -120q20 -22 20 -33t-24 -37l-72 -72q-23 -23 -35 -25t-35 21l-119 119q-54 -35 -117 -54.5t-132 -19.5q-70 0 -133 19.5t-115 54.5l-119 -119q-23 -23 -35 -21t-35 25l-71 72q-23 23 -25 35t21 35l118 118q-35 54 -55 117.5t-20 132.5t20 132.5t55 117.5 l-118 117q-12 11 -17 19t-4.5 15.5zM352 690q0 -57 21.5 -106.5t58 -86t86.5 -58t107 -21.5q83 0 149.5 44.5t94.5 107.5t28 120q0 83 -45.5 150t-108 94t-118.5 27q-87 0 -154 -45.5t-93 -107t-26 -118.5z" />
<glyph unicode="&#xa5;" horiz-adv-x="1114" d="M6 1370q-15 32 4 46t58 14h133q20 0 31 -3.5t18 -10.5t11.5 -18.5t12.5 -27.5l291 -567l285 567q9 17 13.5 28.5t10 18.5t15 10t29.5 3h122q33 0 51 -7t21 -21.5t-6 -31.5l-311 -608h221q24 0 24 -25v-73q0 -25 -24 -25h-285l-49 -96v-27h334q24 0 24 -24v-74 q0 -25 -24 -25h-334v-334q0 -37 -13.5 -48t-52.5 -11h-118q-39 0 -52.5 11t-13.5 48v334h-287q-24 0 -24 25v74q0 24 24 24h287v27l-49 96h-238q-24 0 -24 25v73q0 25 24 25h174z" />
<glyph unicode="&#xa6;" horiz-adv-x="575" d="M178 264q0 32 10.5 39.5t42.5 7.5h113q53 0 53 -47v-567q0 -32 -10.5 -39.5t-42.5 -7.5h-113q-53 0 -53 47v567zM178 844v567q0 32 10.5 39.5t42.5 7.5h113q53 0 53 -47v-567q0 -32 -10.5 -39.5t-42.5 -7.5h-113q-53 0 -53 47z" />
<glyph unicode="&#xa7;" horiz-adv-x="1071" d="M92 252q0 25 13 34t42 9h138q31 0 41.5 -9.5t13.5 -25.5q6 -38 31 -64.5t69.5 -36t100.5 -9.5q80 0 125.5 14t62 40t16.5 58q0 92 -219 141l-145 33q-65 15 -117.5 38.5t-89.5 56.5t-56.5 75.5t-19.5 95.5v23q0 51 21.5 99t50 76.5t57.5 43.5q-65 47 -97 96.5t-32 114.5 v25q0 96 55 169t156 105.5t219 32.5q135 0 222 -26.5t137 -71.5q37 -35 56.5 -76.5t19.5 -95.5q0 -29 -14 -38.5t-52 -9.5h-117q-37 0 -48.5 9t-14.5 30q-2 22 -13 42t-32.5 34t-55 22.5t-81.5 8.5q-72 0 -113 -12t-64 -33q-34 -32 -34 -80q0 -38 24 -62.5t67.5 -38.5 t98.5 -26l145 -31q133 -29 204.5 -74t93.5 -98.5t22 -103.5v-33q0 -74 -35.5 -128t-89.5 -83q70 -44 97.5 -96t27.5 -113v-35q0 -77 -32 -132.5t-89.5 -91.5t-137.5 -53.5t-175 -17.5q-75 0 -132.5 7.5t-100.5 20.5t-73 29t-51 33q-49 42 -72.5 90t-23.5 99zM330 748 q0 -39 16 -63t44 -38.5t67 -24t84 -20.5q48 -11 85.5 -6.5t64 20.5t40.5 41.5t14 57.5q0 39 -16 62.5t-44 38t-66.5 24t-83.5 20.5q-48 11 -86 7t-64.5 -20t-40.5 -41.5t-14 -57.5z" />
<glyph unicode="&#xa8;" horiz-adv-x="737" d="M53 1315v39q0 36 19 64.5t48 39t62 10.5q49 0 78 -19t40 -45.5t11 -49.5v-39q0 -36 -19 -65.5t-48 -40.5t-62 -11t-57.5 9.5t-40 25.5t-23.5 37.5t-8 44.5zM426 1315v39q0 36 19 64.5t48 39t62 10.5q49 0 78 -19t40 -45.5t11 -49.5v-39q0 -36 -19 -65.5t-48 -40.5 t-62 -11t-57.5 9.5t-40 25.5t-23.5 37.5t-8 44.5z" />
<glyph unicode="&#xa9;" horiz-adv-x="1683" d="M94 729q0 164 55 302.5t154 239t236.5 156.5t302.5 56q164 0 301.5 -56t236.5 -156.5t154 -239t55 -302.5t-55 -302.5t-154 -239t-236.5 -156.5t-301.5 -56q-165 0 -302.5 56t-236.5 156.5t-154 239t-55 302.5zM262 729q0 -128 42.5 -235.5t119 -185.5t183.5 -121.5 t235 -43.5t234.5 43.5t183 121.5t119 185.5t42.5 235.5q0 127 -42.5 234.5t-119 185.5t-183 122t-234.5 44t-235 -44t-183.5 -122t-119 -185.5t-42.5 -234.5zM506 643v160q0 73 19 137t60.5 110.5t106 73.5t156.5 27q111 0 186 -40t104 -102.5t29 -121.5q0 -17 -10 -24 t-35 -7h-98q-22 0 -28.5 7t-8.5 18q-5 66 -45.5 92t-103.5 26t-97.5 -27.5t-45.5 -79.5t-11 -114v-106q0 -62 9.5 -103t28.5 -66t48.5 -35.5t69.5 -10.5q38 0 65.5 9t48.5 26q17 17 26 41.5t9 46.5q0 12 8.5 18t30.5 6h94q25 0 35 -7t10 -26q0 -49 -18.5 -97t-56.5 -83 q-44 -40 -105 -63t-149 -23t-150.5 27t-103 73t-59.5 107.5t-19 130.5z" />
<glyph unicode="&#xaa;" horiz-adv-x="774" d="M74 952q0 119 69.5 176.5t208.5 57.5q53 0 164 -6v47q0 27 -5.5 47t-19.5 33t-37.5 19.5t-58.5 6.5q-39 0 -63 -7.5t-36 -22t-20 -29.5q-9 -17 -38 -17h-101q-21 0 -29 7.5t-8 21.5q0 29 13.5 56t44.5 53q29 23 61.5 37t77.5 20t98 6q116 0 182 -31.5t85.5 -84.5 t19.5 -105v-293q0 -70 -31 -119.5t-92.5 -71.5t-136.5 -22h-68q-68 0 -120.5 11t-88 36.5t-53.5 68t-18 105.5zM244 946q0 -45 30 -64.5t93 -19.5h22q53 0 80.5 15t37 47t9.5 73v50q-83 8 -133 8q-40 0 -67 -6.5t-43 -19.5t-22.5 -34t-6.5 -49z" />
<glyph unicode="&#xab;" horiz-adv-x="1104" d="M72 535v106q0 28 28 51l383 316q35 26 52 26q14 0 18 -17.5t4 -45.5v-125q0 -32 -22 -49l-250 -211l250 -211q22 -21 22 -51v-119q0 -35 -5.5 -50.5t-16.5 -15.5t-64 41l-371 303q-28 25 -28 52zM547 535v106q0 28 28 51l383 316q35 26 52 26q14 0 18 -17.5t4 -45.5v-125 q0 -32 -22 -49l-250 -211l250 -211q22 -21 22 -51v-119q0 -35 -5.5 -50.5t-16.5 -15.5t-64 41l-371 303q-28 25 -28 52z" />
<glyph unicode="&#xad;" horiz-adv-x="795" d="M78 502v94q0 44 11 60t48 16h520q37 0 48.5 -15t11.5 -59v-96q0 -45 -11.5 -59.5t-48.5 -14.5h-520q-36 0 -47.5 13t-11.5 61z" />
<glyph unicode="&#xae;" horiz-adv-x="1683" d="M94 729q0 164 55 302.5t154 239t236.5 156.5t302.5 56q164 0 301.5 -56t236.5 -156.5t154 -239t55 -302.5t-55 -302.5t-154 -239t-236.5 -156.5t-301.5 -56q-165 0 -302.5 56t-236.5 156.5t-154 239t-55 302.5zM262 729q0 -128 42.5 -235.5t119 -185.5t183.5 -121.5 t235 -43.5t234.5 43.5t183 121.5t119 185.5t42.5 235.5q0 127 -42.5 234.5t-119 185.5t-183 122t-234.5 44t-235 -44t-183.5 -122t-119 -185.5t-42.5 -234.5zM549 360v738q0 23 8.5 30t34.5 7h289q88 0 150.5 -34t87 -86t24.5 -102v-47q0 -84 -35 -132.5t-90 -69.5l127 -304 q11 -26 3.5 -32t-32.5 -6h-98q-41 0 -55 38l-109 271h-139v-271q0 -24 -9 -31t-34 -7h-80q-43 0 -43 38zM715 776h131q57 0 88 23.5t31 74.5v19q0 51 -30.5 74.5t-86.5 23.5h-133v-215z" />
<glyph unicode="&#xaf;" horiz-adv-x="1534" d="M9 626q0 313 222 535t535 222t535 -222t222 -535t-222 -535t-535 -222t-535 222t-222 535z" />
<glyph unicode="&#xb0;" horiz-adv-x="745" d="M61 1171q0 95 51.5 172t123.5 108.5t137 31.5q95 0 171 -51.5t108 -124t32 -136.5q0 -65 -24.5 -121.5t-66.5 -98.5t-99 -66.5t-121 -24.5q-65 0 -121.5 24.5t-99 66.5t-67 98.5t-24.5 121.5zM233 1171q0 -28 11 -53.5t30.5 -44.5t44.5 -30t54 -11q39 0 75 23t50 55.5 t14 60.5q0 41 -23 76t-55.5 49.5t-60.5 14.5q-44 0 -78 -24t-48 -56t-14 -60z" />
<glyph unicode="&#xb1;" d="M92 53v107q0 53 47 53h844q32 0 39.5 -10.5t7.5 -42.5v-107q0 -53 -47 -53h-844q-32 0 -39.5 10.5t-7.5 42.5zM92 678v106q0 54 47 54h316v280q0 32 10.5 39.5t42.5 7.5h106q54 0 54 -47v-280h315q32 0 39.5 -11t7.5 -43v-106q0 -53 -47 -53h-315v-281q0 -32 -11 -39.5 t-43 -7.5h-106q-53 0 -53 47v281h-316q-32 0 -39.5 10.5t-7.5 42.5z" />
<glyph unicode="&#xb2;" horiz-adv-x="819" d="M80 686v70q0 71 33 122t83 89t110 67t114 58q41 21 67.5 42.5t41 46.5t14.5 52v8q0 31 -16 52.5t-45.5 30.5t-63.5 9q-49 0 -77 -16.5t-37 -39t-13 -42.5q-3 -19 -14.5 -27t-38.5 -8h-82q-29 0 -42.5 10t-13.5 39q0 22 9 55t25.5 58t33.5 39q40 35 100.5 58.5t157.5 23.5 q112 0 186.5 -35t100.5 -90t26 -107v-34q0 -54 -26.5 -97t-69 -78.5t-94.5 -64t-103 -53.5q-68 -32 -110.5 -62t-50.5 -65h387q31 0 42 -11.5t11 -37.5v-58q0 -28 -11 -39.5t-42 -11.5h-537q-28 0 -41.5 9t-13.5 38z" />
<glyph unicode="&#xb3;" horiz-adv-x="819" d="M78 840q0 29 13 39t42 10h80q28 0 39 -8t14 -27q7 -38 38.5 -60t105.5 -22q48 0 80.5 17t43.5 42.5t11 45.5v14q0 53 -33.5 80.5t-95.5 27.5h-49q-28 0 -36.5 10t-8.5 33v60q0 23 8.5 33t36.5 10h32q65 0 100.5 23.5t35.5 74.5v12q0 29 -14 48.5t-42 28.5t-63 9 q-55 0 -87 -14t-42 -34.5t-13 -39.5q-3 -17 -15 -25.5t-40 -8.5h-74q-29 0 -42 10t-13 39q0 34 16 72t48 67q40 34 104 56t168 22q147 0 225 -57t78 -162v-25q0 -59 -33.5 -97t-95.5 -67q66 -23 103.5 -65t37.5 -113v-33q0 -52 -21.5 -96t-63 -76.5t-102 -50.5t-138.5 -18 q-96 0 -165 19.5t-110 53.5q-32 29 -47.5 68.5t-15.5 73.5z" />
<glyph unicode="&#xb4;" horiz-adv-x="737" d="M170 1188q0 17 18 51l91 156q27 48 35.5 55.5t45.5 7.5h160q23 0 35 -2.5t12 -13.5q0 -9 -30 -51l-109 -152q-33 -46 -45.5 -55.5t-50.5 -9.5h-123q-22 0 -30.5 3t-8.5 11z" />
<glyph unicode="&#xb6;" horiz-adv-x="1436" d="M113 975v65q0 107 36 185.5t100 130.5t151.5 77t189.5 25h651q38 0 52 -11t14 -48v-109q0 -38 -11.5 -51.5t-48.5 -13.5h-78v-1510q0 -38 -11 -51.5t-48 -13.5h-117q-38 0 -51.5 11t-13.5 48v1516h-178v-1510q0 -38 -11.5 -51.5t-48.5 -13.5h-117q-38 0 -51.5 11 t-13.5 48v873q-81 7 -153 38t-126 82t-85 120t-31 153z" />
<glyph unicode="&#xb7;" horiz-adv-x="580" d="M125 707v49q0 48 23.5 84t61.5 50.5t81 14.5q60 0 99 -25t52 -59.5t13 -64.5v-49q0 -45 -24 -83.5t-61.5 -52.5t-78.5 -14q-43 0 -74.5 12.5t-51.5 33.5t-30 48t-10 56z" />
<glyph unicode="&#xb8;" horiz-adv-x="737" d="M170 -391q0 9 31 51l100 154q31 48 42.5 56.5t53.5 8.5h131q22 0 30.5 -3.5t8.5 -12.5q0 -16 -18 -49l-90 -156q-27 -47 -31.5 -52.5t-17.5 -9.5t-33 -4h-160q-26 0 -36.5 4.5t-10.5 12.5z" />
<glyph unicode="&#xb9;" horiz-adv-x="690" d="M164 1348v59q0 28 11 39.5t42 11.5h258q31 0 42 -11.5t11 -39.5v-729q0 -28 -14 -36.5t-43 -8.5h-76q-28 0 -41.5 8.5t-13.5 36.5v620h-123q-31 0 -42 12t-11 38z" />
<glyph unicode="&#xba;" horiz-adv-x="760" d="M72 1034v123q0 64 18.5 119t57 95.5t96.5 63.5t137 23q114 0 186 -48.5t96.5 -119t24.5 -133.5v-123q0 -65 -18.5 -120t-56.5 -95t-96 -63t-136 -23q-79 0 -137 23t-96.5 63t-57 95t-18.5 120zM240 1053q0 -91 35 -133.5t106 -42.5q69 0 103 42.5t34 133.5v84 q0 93 -34 134.5t-103 41.5q-71 0 -106 -41.5t-35 -134.5v-84z" />
<glyph unicode="&#xbb;" horiz-adv-x="1104" d="M72 205v119q0 30 22 51l250 211l-250 211q-22 17 -22 49v125q0 28 4 45.5t18 17.5q16 0 51 -26l383 -316q29 -24 29 -51v-106q0 -26 -29 -52l-370 -303q-54 -41 -64 -41q-11 0 -16.5 15.5t-5.5 50.5zM547 205v119q0 30 22 51l250 211l-250 211q-22 17 -22 49v125 q0 28 4 45.5t18 17.5q16 0 52 -26l383 -316q28 -23 28 -51v-106q0 -20 -8.5 -31t-19.5 -21l-371 -303q-54 -41 -64 -41q-11 0 -16.5 15.5t-5.5 50.5z" />
<glyph unicode="&#xbc;" horiz-adv-x="1772" d="M121 1348v59q0 28 11 39.5t42 11.5h258q31 0 42 -11.5t11 -39.5v-729q0 -28 -14 -36.5t-43 -8.5h-76q-28 0 -41.5 8.5t-13.5 36.5v620h-123q-31 0 -42 12t-11 38zM357 18q0 9 5 21l736 1397q14 22 45 22h106q14 0 21 -4.5t8.5 -13.5t-4.5 -21l-735 -1396q-13 -23 -45 -23 h-107q-14 0 -22 4.5t-8 13.5zM981 188v107q0 34 18 59l299 437q11 18 23 26t37 8h141q29 0 43 -8.5t14 -36.5v-485h50q27 0 36 -10t9 -33v-64q0 -23 -9 -33t-36 -10h-50v-98q0 -29 -14 -38t-43 -9h-65q-29 0 -42.5 9t-13.5 38v98h-354q-28 0 -35.5 10t-7.5 33zM1143 295h235 v348z" />
<glyph unicode="&#xbd;" horiz-adv-x="1772" d="M125 1348v59q0 28 11 39.5t42 11.5h258q31 0 42 -11.5t11 -39.5v-729q0 -28 -14 -36.5t-43 -8.5h-76q-28 0 -41.5 8.5t-13.5 36.5v620h-123q-31 0 -42 12t-11 38zM322 19q0 8 6 20l735 1397q6 12 16 17t29 5h106q14 0 21 -4.5t8.5 -13.5t-4.5 -21l-735 -1396 q-11 -23 -45 -23h-107q-17 0 -23.5 5t-6.5 14zM987 45v72q0 70 33 121t83.5 89t110 67t113.5 57q41 21 67 42t41 47t15 52v8q0 31 -16 52.5t-45 30.5t-64 9q-50 0 -78 -16.5t-37 -39t-12 -42.5q-3 -19 -15 -27t-40 -8h-80q-29 0 -43 10t-14 39q0 23 9 54.5t26 58t34 41.5 q38 34 99.5 57t158.5 23q112 0 187.5 -35.5t101 -90.5t25.5 -106v-35q0 -75 -55.5 -135t-121.5 -95.5t-116 -59.5q-68 -34 -111 -64t-51 -65h387q31 0 42 -11t11 -39v-57q0 -28 -11 -39.5t-42 -11.5h-537q-27 0 -41 9.5t-14 37.5z" />
<glyph unicode="&#xbe;" horiz-adv-x="1772" d="M94 840q0 29 13.5 39t42.5 10h79q28 0 39.5 -8t14.5 -27q4 -19 13 -34.5t25.5 -26t42 -16t62.5 -5.5q48 0 80.5 17t43.5 42.5t11 45.5v14q0 53 -33.5 80.5t-95.5 27.5h-49q-28 0 -36.5 10t-8.5 33v60q0 23 8.5 33t36.5 10h33q65 0 100 23.5t35 74.5v12q0 29 -14 48.5 t-42 28.5t-63 9q-55 0 -86 -13.5t-41.5 -34.5t-13.5 -40q-3 -17 -15.5 -25.5t-39.5 -8.5h-74q-29 0 -42.5 10t-13.5 39q0 34 16 72t48 67q40 34 104 56t168 22q147 0 225 -57t78 -162v-25q0 -59 -33.5 -97t-95.5 -67q67 -23 104.5 -65t37.5 -113v-33q0 -52 -22 -96 t-63.5 -76.5t-102 -50.5t-138.5 -18q-96 0 -165 19.5t-109 53.5q-32 29 -48 68.5t-16 73.5zM483 18q0 9 6 21l736 1397q6 12 16 17t29 5h106q14 0 21 -4.5t8.5 -13.5t-4.5 -21l-735 -1396q-13 -23 -45 -23h-107q-13 0 -22 4.5t-9 13.5zM981 188v107q0 34 18 59l299 437 q11 18 23 26t37 8h141q29 0 43 -8.5t14 -36.5v-485h50q27 0 36 -10t9 -33v-64q0 -23 -9 -33t-36 -10h-50v-98q0 -29 -14 -38t-43 -9h-65q-29 0 -42.5 9t-13.5 38v98h-354q-28 0 -35.5 10t-7.5 33zM1143 295h235v348z" />
<glyph unicode="&#xbf;" horiz-adv-x="1090" d="M102 -4v41q0 52 19 104.5t60 101t104.5 89.5t152.5 71v160q0 37 14 48.5t52 11.5h100q37 0 50.5 -11.5t13.5 -48.5v-258q0 -29 -9 -39.5t-36 -17.5q-64 -20 -113.5 -42t-83.5 -51t-52 -66t-18 -87v-18q0 -50 22 -90t67 -59t98 -19q83 0 130 29t61.5 70.5t21.5 76.5 q3 21 14.5 32t46.5 11h117q38 0 51.5 -12.5t13.5 -51.5q0 -54 -21.5 -114t-68.5 -107q-43 -43 -99.5 -73t-132 -43t-151.5 -13q-104 0 -183.5 27t-133 76.5t-80.5 118.5t-27 153zM403 922v45q0 39 20 73t55.5 48t74.5 14q54 0 88.5 -22.5t46.5 -54t12 -58.5v-45 q0 -45 -22 -77.5t-55.5 -45.5t-69.5 -13q-55 0 -91.5 23.5t-47.5 54.5t-11 58z" />
<glyph unicode="&#xc0;" horiz-adv-x="1260" d="M4 59l471 1362q6 19 17.5 28t48.5 9h184q21 0 36.5 -5t21 -14t8.5 -18l464 -1362q11 -32 -3.5 -45.5t-37.5 -13.5h-143q-39 0 -50.5 11.5t-23.5 47.5l-98 287h-549l-96 -289q-13 -37 -24.5 -47t-49.5 -10h-135q-23 0 -37.5 13.5t-3.5 45.5zM348 1829q0 16 47 16h160 q35 0 45.5 -9.5t36.5 -53.5l90 -156q18 -35 18 -51q0 -8 -8.5 -11.5t-30.5 -3.5h-122q-31 0 -48 8t-26.5 24t-22.5 34l-108 152q-31 44 -31 51zM426 575h395l-200 584z" />
<glyph unicode="&#xc1;" horiz-adv-x="1260" d="M4 59l471 1362q6 19 17.5 28t48.5 9h184q21 0 36.5 -5t21 -14t8.5 -18l464 -1362q11 -32 -3.5 -45.5t-37.5 -13.5h-143q-39 0 -50.5 11.5t-23.5 47.5l-98 287h-549l-96 -289q-13 -37 -24.5 -47t-49.5 -10h-135q-23 0 -37.5 13.5t-3.5 45.5zM426 575h395l-200 584z M530 1577q0 17 18 51l91 156q27 48 35.5 55.5t45.5 7.5h160q23 0 35 -2.5t12 -13.5q0 -9 -30 -51l-109 -152q-33 -46 -45.5 -55.5t-50.5 -9.5h-123q-22 0 -30.5 3t-8.5 11z" />
<glyph unicode="&#xc2;" horiz-adv-x="1260" d="M4 59l471 1362q6 19 17.5 28t48.5 9h184q21 0 36.5 -5t21 -14t8.5 -18l464 -1362q11 -32 -3.5 -45.5t-37.5 -13.5h-143q-39 0 -50.5 11.5t-23.5 47.5l-98 287h-549l-96 -289q-13 -37 -24.5 -47t-49.5 -10h-135q-23 0 -37.5 13.5t-3.5 45.5zM270 1581q0 7 15 25l205 196 q25 25 42.5 35t41.5 10h94q35 0 84 -45l205 -196q14 -17 14 -25t-9 -13t-32 -5h-121q-54 0 -86 32l-102 97l-103 -97q-32 -32 -86 -32h-121q-23 0 -32 5t-9 13zM426 575h395l-200 584z" />
<glyph unicode="&#xc3;" horiz-adv-x="1260" d="M4 59l471 1362q6 19 17.5 28t48.5 9h184q21 0 36.5 -5t21 -14t8.5 -18l464 -1362q11 -32 -3.5 -45.5t-37.5 -13.5h-143q-39 0 -50.5 11.5t-23.5 47.5l-98 287h-549l-96 -289q-13 -37 -24.5 -47t-49.5 -10h-135q-23 0 -37.5 13.5t-3.5 45.5zM260 1616q0 71 25 120t71 69 t97 20q49 0 67 -6l207 -62q22 -8 43 -8q25 0 33 12t10.5 26t5.5 26t19 12h112q10 0 18.5 -6t8.5 -17q0 -9 1 -18t1 -19q0 -64 -23.5 -109.5t-66.5 -63t-90 -17.5q-52 0 -72 6l-207 63q-26 9 -45 9q-41 0 -49 -40t-24 -40h-113q-9 0 -17 6.5t-8 15.5q0 6 -2 11t-2 10z M426 575h395l-200 584z" />
<glyph unicode="&#xc4;" horiz-adv-x="1260" d="M4 59l471 1362q6 19 17.5 28t48.5 9h184q21 0 36.5 -5t21 -14t8.5 -18l464 -1362q11 -32 -3.5 -45.5t-37.5 -13.5h-143q-39 0 -50.5 11.5t-23.5 47.5l-98 287h-549l-96 -289q-13 -37 -24.5 -47t-49.5 -10h-135q-23 0 -37.5 13.5t-3.5 45.5zM323 1704v39q0 36 19 64.5 t48 39t62 10.5q49 0 78 -19t40 -45.5t11 -49.5v-39q0 -36 -19 -65.5t-48 -40.5t-62 -11t-57.5 9.5t-40 25.5t-23.5 37.5t-8 44.5zM426 575h395l-200 584zM696 1704v39q0 36 19 64.5t48 39t62 10.5q49 0 78 -19t40 -45.5t11 -49.5v-39q0 -36 -19 -65.5t-48 -40.5t-62 -11 t-57.5 9.5t-40 25.5t-23.5 37.5t-8 44.5z" />
<glyph unicode="&#xc5;" horiz-adv-x="1260" d="M4 59l471 1362q6 19 17.5 28t48.5 9h184q21 0 36.5 -5t21 -14t8.5 -18l464 -1362q11 -32 -3.5 -45.5t-37.5 -13.5h-143q-39 0 -50.5 11.5t-23.5 47.5l-98 287h-549l-96 -289q-13 -37 -24.5 -47t-49.5 -10h-135q-23 0 -37.5 13.5t-3.5 45.5zM411 1552q0 64 32.5 116.5 t83.5 74.5t106 22q75 0 129.5 -37.5t73 -87t18.5 -90.5q0 -63 -32.5 -116t-83.5 -75t-105 -22q-55 0 -96.5 18.5t-69.5 48.5t-42 68.5t-14 79.5zM426 575h395l-200 584zM540 1550q0 -17 6 -33.5t17.5 -29.5t29 -21t40.5 -8q33 0 55 17t29.5 37.5t7.5 37.5q0 29 -14.5 50.5 t-34.5 31.5t-43 10q-32 0 -54.5 -15.5t-30.5 -37t-8 -39.5z" />
<glyph unicode="&#xc6;" horiz-adv-x="1784" d="M0 35q0 12 6 24l680 1362q9 20 20.5 28.5t45.5 8.5h890q37 0 48.5 -13.5t11.5 -51.5v-107q0 -38 -11.5 -51.5t-48.5 -13.5h-538v-336h485q37 0 48.5 -14t11.5 -52v-106q0 -38 -11.5 -52t-48.5 -14h-485v-409h547q37 0 48 -14t11 -52v-106q0 -39 -11 -52.5t-48 -13.5h-727 q-39 0 -56.5 10.5t-17.5 48.5v308h-442l-154 -310q-19 -38 -28.5 -47.5t-45.5 -9.5h-133q-17 0 -32 8t-15 27zM516 580h334v673z" />
<glyph unicode="&#xc7;" horiz-adv-x="1249" d="M111 569v320q0 108 11.5 181.5t35.5 131.5q28 67 73 120.5t107.5 91t142.5 57.5t178 20q135 0 237 -35.5t165 -101.5q47 -52 70.5 -103t31.5 -107.5t8 -105.5q0 -32 -15.5 -43.5t-53.5 -11.5h-141q-36 0 -48 11.5t-14 39.5q-3 51 -11 90.5t-36 71.5q-22 24 -51 39.5 t-69.5 23t-84.5 7.5q-69 0 -120 -18t-84 -60t-49.5 -112t-16.5 -175v-344q0 -104 16 -173.5t49 -111.5t83.5 -59.5t119.5 -17.5q68 0 118.5 15.5t82.5 49.5q28 29 41 69t16 103q2 26 14.5 37.5t47.5 11.5h137q38 0 53.5 -12t15.5 -47q0 -88 -23.5 -167t-92.5 -149 q-66 -65 -168 -102t-244 -37q-92 0 -169 20t-137.5 57.5t-105.5 91t-73 120.5q-24 54 -35.5 129t-11.5 184zM397 -391q0 9 31 51l100 154q31 48 42.5 56.5t53.5 8.5h131q22 0 30.5 -3.5t8.5 -12.5q0 -16 -18 -49l-90 -156q-27 -47 -31.5 -52.5t-17.5 -9.5t-33 -4h-160 q-26 0 -36.5 4.5t-10.5 12.5z" />
<glyph unicode="&#xc8;" d="M147 59v1340q0 37 14 48t52 11h768q37 0 48 -13.5t11 -51.5v-107q0 -38 -11 -51.5t-48 -13.5h-580v-336h527q37 0 48 -14t11 -52v-106q0 -38 -11 -52t-48 -14h-527v-409h588q37 0 48.5 -14t11.5 -52v-106q0 -39 -11.5 -52.5t-48.5 -13.5h-776q-38 0 -52 11t-14 48z M350 1829q0 16 47 16h160q35 0 45.5 -9.5t36.5 -53.5l90 -156q18 -35 18 -51q0 -8 -8.5 -11.5t-30.5 -3.5h-122q-31 0 -48 8t-26.5 24t-22.5 34l-108 152q-31 44 -31 51z" />
<glyph unicode="&#xc9;" d="M147 59v1340q0 37 14 48t52 11h768q37 0 48 -13.5t11 -51.5v-107q0 -38 -11 -51.5t-48 -13.5h-580v-336h527q37 0 48 -14t11 -52v-106q0 -38 -11 -52t-48 -14h-527v-409h588q37 0 48.5 -14t11.5 -52v-106q0 -39 -11.5 -52.5t-48.5 -13.5h-776q-38 0 -52 11t-14 48z M461 1577q0 17 18 51l91 156q27 48 35.5 55.5t45.5 7.5h160q23 0 35 -2.5t12 -13.5q0 -9 -30 -51l-109 -152q-33 -46 -45.5 -55.5t-50.5 -9.5h-123q-22 0 -30.5 3t-8.5 11z" />
<glyph unicode="&#xca;" d="M147 59v1340q0 37 14 48t52 11h768q37 0 48 -13.5t11 -51.5v-107q0 -38 -11 -51.5t-48 -13.5h-580v-336h527q37 0 48 -14t11 -52v-106q0 -38 -11 -52t-48 -14h-527v-409h588q37 0 48.5 -14t11.5 -52v-106q0 -39 -11.5 -52.5t-48.5 -13.5h-776q-38 0 -52 11t-14 48z M243 1581q0 7 15 25l205 196q25 25 42.5 35t41.5 10h94q35 0 84 -45l205 -196q14 -17 14 -25t-9 -13t-32 -5h-121q-54 0 -86 32l-102 97l-103 -97q-32 -32 -86 -32h-121q-23 0 -32 5t-9 13z" />
<glyph unicode="&#xcb;" d="M147 59v1340q0 37 14 48t52 11h768q37 0 48 -13.5t11 -51.5v-107q0 -38 -11 -51.5t-48 -13.5h-580v-336h527q37 0 48 -14t11 -52v-106q0 -38 -11 -52t-48 -14h-527v-409h588q37 0 48.5 -14t11.5 -52v-106q0 -39 -11.5 -52.5t-48.5 -13.5h-776q-38 0 -52 11t-14 48z M270 1704v39q0 36 19 64.5t48 39t62 10.5q49 0 78 -19t40 -45.5t11 -49.5v-39q0 -36 -19 -65.5t-48 -40.5t-62 -11t-57.5 9.5t-40 25.5t-23.5 37.5t-8 44.5zM643 1704v39q0 36 19 64.5t48 39t62 10.5q49 0 78 -19t40 -45.5t11 -49.5v-39q0 -36 -19 -65.5t-48 -40.5t-62 -11 t-57.5 9.5t-40 25.5t-23.5 37.5t-8 44.5z" />
<glyph unicode="&#xcc;" horiz-adv-x="545" d="M-8 1829q0 16 47 16h160q35 0 45.5 -9.5t36.5 -53.5l90 -156q18 -35 18 -51q0 -8 -8.5 -11.5t-30.5 -3.5h-122q-31 0 -48 8t-26.5 24t-22.5 34l-108 152q-31 44 -31 51zM147 59v1340q0 37 14 48t52 11h119q38 0 51.5 -11t13.5 -48v-1340q0 -37 -13.5 -48t-51.5 -11h-119 q-38 0 -52 11t-14 48z" />
<glyph unicode="&#xcd;" horiz-adv-x="545" d="M147 59v1340q0 37 14 48t52 11h119q38 0 51.5 -11t13.5 -48v-1340q0 -37 -13.5 -48t-51.5 -11h-119q-38 0 -52 11t-14 48zM170 1577q0 17 18 51l91 156q27 48 35.5 55.5t45.5 7.5h160q23 0 35 -2.5t12 -13.5q0 -9 -30 -51l-109 -152q-33 -46 -45.5 -55.5t-50.5 -9.5h-123 q-22 0 -30.5 3t-8.5 11z" />
<glyph unicode="&#xce;" horiz-adv-x="545" d="M-74 1581q0 7 15 25l205 196q25 25 42.5 35t41.5 10h94q35 0 84 -45l205 -196q14 -17 14 -25t-9 -13t-32 -5h-121q-54 0 -86 32l-102 97l-103 -97q-32 -32 -86 -32h-121q-23 0 -32 5t-9 13zM147 59v1340q0 37 14 48t52 11h119q38 0 51.5 -11t13.5 -48v-1340 q0 -37 -13.5 -48t-51.5 -11h-119q-38 0 -52 11t-14 48z" />
<glyph unicode="&#xcf;" horiz-adv-x="545" d="M-43 1704v39q0 36 19 64.5t48 39t62 10.5q49 0 78 -19t40 -45.5t11 -49.5v-39q0 -36 -19 -65.5t-48 -40.5t-62 -11t-57.5 9.5t-40 25.5t-23.5 37.5t-8 44.5zM147 59v1340q0 37 14 48t52 11h119q38 0 51.5 -11t13.5 -48v-1340q0 -37 -13.5 -48t-51.5 -11h-119 q-38 0 -52 11t-14 48zM330 1704v39q0 36 19 64.5t48 39t62 10.5q49 0 78 -19t40 -45.5t11 -49.5v-39q0 -36 -19 -65.5t-48 -40.5t-62 -11t-57.5 9.5t-40 25.5t-23.5 37.5t-8 44.5z" />
<glyph unicode="&#xd0;" horiz-adv-x="1260" d="M-27 719v59q0 36 11.5 49t48.5 13h104v559q0 37 14 48t52 11h418q144 0 249 -45.5t160 -109t80 -119.5q20 -45 29 -86.5t14.5 -100.5t5.5 -116v-303q0 -105 -12.5 -178t-36.5 -126q-40 -90 -116 -155t-174 -92t-199 -27h-418q-38 0 -52 11t-14 48v592h-104 q-37 0 -48.5 15t-11.5 53zM387 238h229q107 0 171 40.5t86 121t22 178.5v303q0 139 -38.5 217.5t-105.5 100.5t-135 22h-229v-381h195q34 0 45.5 -13t11.5 -53v-57q0 -38 -11 -52t-48 -14h-193v-413z" />
<glyph unicode="&#xd1;" horiz-adv-x="1307" d="M147 59v1340q0 37 14 48t52 11h139q43 0 64 -37l499 -948v948q0 26 19 31.5t45 5.5h115q38 0 51.5 -11t13.5 -48v-1340q0 -37 -13.5 -48t-51.5 -11h-119q-34 0 -49 5t-24 16.5t-17 27.5l-494 938v-928q0 -37 -13.5 -48t-51.5 -11h-113q-38 0 -52 11t-14 48zM305 1616 q0 71 25 120t71 69t97 20q49 0 67 -6l207 -62q22 -8 43 -8q25 0 33 12t10.5 26t5.5 26t19 12h112q10 0 18.5 -6t8.5 -17q0 -9 1 -18t1 -19q0 -64 -23.5 -109.5t-66.5 -63t-90 -17.5q-52 0 -72 6l-207 63q-26 9 -45 9q-41 0 -49 -40t-24 -40h-113q-9 0 -17 6.5t-8 15.5 q0 6 -2 11t-2 10z" />
<glyph unicode="&#xd2;" horiz-adv-x="1307" d="M111 569v320q0 108 11.5 181.5t35.5 131.5q28 67 73 120.5t107 91t141 57.5t176 20q140 0 245 -43.5t162 -111t87 -134.5q23 -56 35 -129.5t12 -183.5v-320q0 -111 -12.5 -185.5t-34.5 -127.5q-45 -104 -124.5 -171.5t-177 -92.5t-192.5 -25q-97 0 -176 20t-141 57.5 t-107 91t-73 120.5q-24 54 -35.5 129t-11.5 184zM377 557q0 -104 17.5 -173.5t52.5 -111.5t87 -59.5t121 -17.5q107 0 169.5 42t85 129t22.5 191v344q0 153 -38 234.5t-104.5 105t-134.5 23.5q-69 0 -121 -17.5t-87 -59.5t-52.5 -111.5t-17.5 -174.5v-344zM406 1829 q0 16 47 16h160q35 0 45.5 -9.5t36.5 -53.5l90 -156q18 -35 18 -51q0 -8 -8.5 -11.5t-30.5 -3.5h-122q-31 0 -48 8t-26.5 24t-22.5 34l-108 152q-31 44 -31 51z" />
<glyph unicode="&#xd3;" horiz-adv-x="1307" d="M111 569v320q0 108 11.5 181.5t35.5 131.5q28 67 73 120.5t107 91t141 57.5t176 20q140 0 245 -43.5t162 -111t87 -134.5q23 -56 35 -129.5t12 -183.5v-320q0 -111 -12.5 -185.5t-34.5 -127.5q-45 -104 -124.5 -171.5t-177 -92.5t-192.5 -25q-97 0 -176 20t-141 57.5 t-107 91t-73 120.5q-24 54 -35.5 129t-11.5 184zM377 557q0 -104 17.5 -173.5t52.5 -111.5t87 -59.5t121 -17.5q107 0 169.5 42t85 129t22.5 191v344q0 153 -38 234.5t-104.5 105t-134.5 23.5q-69 0 -121 -17.5t-87 -59.5t-52.5 -111.5t-17.5 -174.5v-344zM524 1577 q0 17 18 51l91 156q27 48 35.5 55.5t45.5 7.5h160q23 0 35 -2.5t12 -13.5q0 -9 -30 -51l-109 -152q-33 -46 -45.5 -55.5t-50.5 -9.5h-123q-22 0 -30.5 3t-8.5 11z" />
<glyph unicode="&#xd4;" horiz-adv-x="1307" d="M111 569v320q0 108 11.5 181.5t35.5 131.5q28 67 73 120.5t107 91t141 57.5t176 20q140 0 245 -43.5t162 -111t87 -134.5q23 -56 35 -129.5t12 -183.5v-320q0 -111 -12.5 -185.5t-34.5 -127.5q-45 -104 -124.5 -171.5t-177 -92.5t-192.5 -25q-97 0 -176 20t-141 57.5 t-107 91t-73 120.5q-24 54 -35.5 129t-11.5 184zM303 1581q0 7 15 25l205 196q25 25 42.5 35t41.5 10h94q35 0 84 -45l205 -196q14 -17 14 -25t-9 -13t-32 -5h-121q-54 0 -86 32l-102 97l-103 -97q-32 -32 -86 -32h-121q-23 0 -32 5t-9 13zM377 557q0 -104 17.5 -173.5 t52.5 -111.5t87 -59.5t121 -17.5q107 0 169.5 42t85 129t22.5 191v344q0 153 -38 234.5t-104.5 105t-134.5 23.5q-69 0 -121 -17.5t-87 -59.5t-52.5 -111.5t-17.5 -174.5v-344z" />
<glyph unicode="&#xd5;" horiz-adv-x="1307" d="M111 569v320q0 108 11.5 181.5t35.5 131.5q28 67 73 120.5t107 91t141 57.5t176 20q140 0 245 -43.5t162 -111t87 -134.5q23 -56 35 -129.5t12 -183.5v-320q0 -111 -12.5 -185.5t-34.5 -127.5q-45 -104 -124.5 -171.5t-177 -92.5t-192.5 -25q-97 0 -176 20t-141 57.5 t-107 91t-73 120.5q-24 54 -35.5 129t-11.5 184zM286 1616q0 71 25 120t71 69t97 20q49 0 67 -6l207 -62q22 -8 43 -8q25 0 33 12t10.5 26t5.5 26t19 12h112q10 0 18.5 -6t8.5 -17q0 -9 1 -18t1 -19q0 -64 -23.5 -109.5t-66.5 -63t-90 -17.5q-52 0 -72 6l-207 63 q-26 9 -45 9q-41 0 -49 -40t-24 -40h-113q-9 0 -17 6.5t-8 15.5q0 6 -2 11t-2 10zM377 557q0 -104 17.5 -173.5t52.5 -111.5t87 -59.5t121 -17.5q107 0 169.5 42t85 129t22.5 191v344q0 153 -38 234.5t-104.5 105t-134.5 23.5q-69 0 -121 -17.5t-87 -59.5t-52.5 -111.5 t-17.5 -174.5v-344z" />
<glyph unicode="&#xd6;" horiz-adv-x="1307" d="M111 569v320q0 108 11.5 181.5t35.5 131.5q28 67 73 120.5t107 91t141 57.5t176 20q140 0 245 -43.5t162 -111t87 -134.5q23 -56 35 -129.5t12 -183.5v-320q0 -111 -12.5 -185.5t-34.5 -127.5q-45 -104 -124.5 -171.5t-177 -92.5t-192.5 -25q-97 0 -176 20t-141 57.5 t-107 91t-73 120.5q-24 54 -35.5 129t-11.5 184zM340 1704v39q0 36 19 64.5t48 39t62 10.5q49 0 78 -19t40 -45.5t11 -49.5v-39q0 -36 -19 -65.5t-48 -40.5t-62 -11t-57.5 9.5t-40 25.5t-23.5 37.5t-8 44.5zM377 557q0 -104 17.5 -173.5t52.5 -111.5t87 -59.5t121 -17.5 q107 0 169.5 42t85 129t22.5 191v344q0 153 -38 234.5t-104.5 105t-134.5 23.5q-69 0 -121 -17.5t-87 -59.5t-52.5 -111.5t-17.5 -174.5v-344zM713 1704v39q0 36 19 64.5t48 39t62 10.5q49 0 78 -19t40 -45.5t11 -49.5v-39q0 -36 -19 -65.5t-48 -40.5t-62 -11t-57.5 9.5 t-40 25.5t-23.5 37.5t-8 44.5z" />
<glyph unicode="&#xd7;" d="M141 403q0 15 21 35l248 246l-248 248q-21 20 -21 33q0 11 25 39l76 73q24 27 37 27q10 0 34 -21l246 -247l248 245q21 21 33 21t37 -25l75 -76q25 -24 25 -36t-21 -33l-245 -248l245 -248q23 -18 23 -33q0 -12 -27 -36l-73 -76q-25 -25 -39 -25q-13 0 -33 21l-248 248 l-248 -248q-17 -21 -32 -21q-14 0 -37 25l-76 76q-25 25 -25 36z" />
<glyph unicode="&#xd8;" horiz-adv-x="1307" d="M87.5 64.5q-4.5 17.5 16.5 46.5l74 108q-6 11 -11 22t-11 23q-24 54 -35.5 129t-11.5 185v303q0 108 11.5 181.5t35.5 131.5q28 67 73 120.5t107 91t141 57.5t176 20q109 0 194 -25.5t150 -73.5l52 74q21 29 39 31t49 -21l47 -34q32 -22 37 -38.5t-17 -47.5l-78 -111 q3 -5 21 -43q24 -60 35.5 -128.5t11.5 -184.5v-303q0 -119 -11.5 -188t-35.5 -126q-43 -103 -123.5 -171.5t-178 -93t-192.5 -24.5q-108 0 -194.5 25t-151.5 72l-49 -70q-23 -30 -40 -31.5t-48 21.5l-47 33q-31 22 -35.5 39.5zM356 573q0 -50 4 -94l504 717q-37 38 -89.5 55 t-121.5 17q-74 0 -129.5 -19.5t-92.5 -64.5t-56 -118t-19 -179v-314zM442 264q38 -38 90.5 -54.5t120.5 -16.5q115 0 181 46t90 136.5t24 197.5v314q0 62 -4 92z" />
<glyph unicode="&#xd9;" horiz-adv-x="1278" d="M133 508v891q0 37 13.5 48t52.5 11h118q39 0 52.5 -11t13.5 -48v-889q0 -68 12.5 -125t42 -98t77.5 -63.5t120 -22.5h27q102 0 160 47t73.5 120t15.5 142v889q0 37 14 48t52 11h119q38 0 51.5 -11t13.5 -48v-891q0 -128 -30.5 -228.5t-93 -170t-157.5 -106t-223 -36.5 h-18q-128 0 -223 36.5t-158 106.5t-94 170t-31 228zM385 1829q0 16 47 16h160q35 0 45.5 -9.5t36.5 -53.5l90 -156q18 -35 18 -51q0 -8 -8.5 -11.5t-30.5 -3.5h-122q-31 0 -48 8t-26.5 24t-22.5 34l-108 152q-31 44 -31 51z" />
<glyph unicode="&#xda;" horiz-adv-x="1278" d="M133 508v891q0 37 13.5 48t52.5 11h118q39 0 52.5 -11t13.5 -48v-889q0 -68 12.5 -125t42 -98t77.5 -63.5t120 -22.5h27q102 0 160 47t73.5 120t15.5 142v889q0 37 14 48t52 11h119q38 0 51.5 -11t13.5 -48v-891q0 -128 -30.5 -228.5t-93 -170t-157.5 -106t-223 -36.5 h-18q-128 0 -223 36.5t-158 106.5t-94 170t-31 228zM508 1577q0 17 18 51l91 156q27 48 35.5 55.5t45.5 7.5h160q23 0 35 -2.5t12 -13.5q0 -9 -30 -51l-109 -152q-33 -46 -45.5 -55.5t-50.5 -9.5h-123q-22 0 -30.5 3t-8.5 11z" />
<glyph unicode="&#xdb;" horiz-adv-x="1278" d="M133 508v891q0 37 13.5 48t52.5 11h118q39 0 52.5 -11t13.5 -48v-889q0 -68 12.5 -125t42 -98t77.5 -63.5t120 -22.5h27q102 0 160 47t73.5 120t15.5 142v889q0 37 14 48t52 11h119q38 0 51.5 -11t13.5 -48v-891q0 -128 -30.5 -228.5t-93 -170t-157.5 -106t-223 -36.5 h-18q-128 0 -223 36.5t-158 106.5t-94 170t-31 228zM305 1581q0 7 15 25l205 196q25 25 42.5 35t41.5 10h94q35 0 84 -45l205 -196q14 -17 14 -25t-9 -13t-32 -5h-121q-54 0 -86 32l-102 97l-103 -97q-32 -32 -86 -32h-121q-23 0 -32 5t-9 13z" />
<glyph unicode="&#xdc;" horiz-adv-x="1278" d="M133 508v891q0 37 13.5 48t52.5 11h118q39 0 52.5 -11t13.5 -48v-889q0 -68 12.5 -125t42 -98t77.5 -63.5t120 -22.5h27q102 0 160 47t73.5 120t15.5 142v889q0 37 14 48t52 11h119q38 0 51.5 -11t13.5 -48v-891q0 -128 -30.5 -228.5t-93 -170t-157.5 -106t-223 -36.5 h-18q-128 0 -223 36.5t-158 106.5t-94 170t-31 228zM327 1704v39q0 36 19 64.5t48 39t62 10.5q49 0 78 -19t40 -45.5t11 -49.5v-39q0 -36 -19 -65.5t-48 -40.5t-62 -11t-57.5 9.5t-40 25.5t-23.5 37.5t-8 44.5zM700 1704v39q0 36 19 64.5t48 39t62 10.5q49 0 78 -19 t40 -45.5t11 -49.5v-39q0 -36 -19 -65.5t-48 -40.5t-62 -11t-57.5 9.5t-40 25.5t-23.5 37.5t-8 44.5z" />
<glyph unicode="&#xdd;" horiz-adv-x="1139" d="M0.5 1427.5q0.5 11.5 7 18t18.5 9.5t27 3h162q28 0 39.5 -6.5t18 -21.5t16.5 -31l291 -568l284 568q9 17 13.5 28.5t10 18t15.5 9.5t29 3h135q32 0 50 -7t21 -21t-5 -31l-437 -846v-494q0 -37 -13.5 -48t-51.5 -11h-119q-38 0 -52 11t-14 48v494l-438 846 q-8 17 -7.5 28.5zM428 1577q0 17 18 51l91 156q27 48 35.5 55.5t45.5 7.5h160q23 0 35 -2.5t12 -13.5q0 -9 -30 -51l-109 -152q-33 -46 -45.5 -55.5t-50.5 -9.5h-123q-22 0 -30.5 3t-8.5 11z" />
<glyph unicode="&#xde;" horiz-adv-x="1171" d="M147 59v1340q0 37 14 48t52 11h115q38 0 51.5 -11t13.5 -48v-199h248q133 0 216.5 -30.5t133.5 -82.5q47 -46 70.5 -121t23.5 -190v-82q0 -105 -23.5 -178.5t-70.5 -120.5q-50 -52 -133.5 -82t-216.5 -30h-248v-224q0 -37 -13.5 -48t-51.5 -11h-115q-38 0 -52 11t-14 48z M393 506h225q85 0 134.5 33.5t61 81t11.5 88.5v49q0 80 -24 128.5t-72.5 69.5t-110.5 21h-225v-471z" />
<glyph unicode="&#xdf;" horiz-adv-x="1155" d="M133 59l2 985q0 156 48.5 256.5t156 143.5t246.5 43q109 0 198.5 -25.5t149.5 -85.5q42 -42 66 -96t24 -135v-51q0 -66 -28 -123t-68 -92t-74 -54q97 -40 153 -119t56 -208v-74q0 -97 -28 -175t-86 -133.5t-145.5 -85.5t-207.5 -30h-29q-32 0 -39.5 10.5t-7.5 42.5v99 q0 53 47 53q102 0 156.5 30t73 89t18.5 131v8q0 71 -13.5 118t-40.5 74.5t-68 38.5t-97 11h-29q-32 0 -39.5 10.5t-7.5 42.5v98q0 53 47 53h6q88 0 135 32t57.5 79t10.5 92q0 69 -24 113.5t-69 61t-97 16.5q-61 0 -101 -16t-64 -51.5t-34 -91.5t-10 -136v-949q0 -37 -14 -48 t-52 -11h-112q-39 0 -52.5 11t-13.5 48z" />
<glyph unicode="&#xe0;" horiz-adv-x="1090" d="M82 322q0 184 107 266t321 82q105 0 231 -11v84q0 70 -21.5 111t-67.5 56.5t-101 15.5q-43 0 -71.5 -7.5t-45.5 -19.5t-26 -22q-18 -18 -29 -48q-14 -38 -66 -38h-133q-34 0 -45.5 11.5t-11.5 33.5q0 45 18 81.5t45 67.5q37 40 95 68t129 38.5t141 10.5q179 0 277 -49.5 t123.5 -130t25.5 -162.5v-451q0 -107 -47.5 -185t-143 -111t-213.5 -33h-57q-107 0 -188 17t-136 57t-82.5 105.5t-27.5 162.5zM307 1440q0 16 47 16h160q35 0 45.5 -9.5t36.5 -53.5l90 -156q18 -35 18 -51q0 -8 -8.5 -11.5t-30.5 -3.5h-122q-31 0 -48 8t-26.5 24t-22.5 34 l-108 152q-31 44 -31 51zM322 303q0 -69 45.5 -105t142.5 -36h35q79 0 122.5 26t58.5 78t15 115v92q-111 12 -184 12q-101 0 -154 -25t-67 -68.5t-14 -88.5z" />
<glyph unicode="&#xe1;" horiz-adv-x="1090" d="M82 322q0 184 107 266t321 82q105 0 231 -11v84q0 70 -21.5 111t-67.5 56.5t-101 15.5q-43 0 -71.5 -7.5t-45.5 -19.5t-26 -22q-18 -18 -29 -48q-14 -38 -66 -38h-133q-34 0 -45.5 11.5t-11.5 33.5q0 45 18 81.5t45 67.5q37 40 95 68t129 38.5t141 10.5q179 0 277 -49.5 t123.5 -130t25.5 -162.5v-451q0 -107 -47.5 -185t-143 -111t-213.5 -33h-57q-107 0 -188 17t-136 57t-82.5 105.5t-27.5 162.5zM322 303q0 -69 45.5 -105t142.5 -36h35q79 0 122.5 26t58.5 78t15 115v92q-111 12 -184 12q-101 0 -154 -25t-67 -68.5t-14 -88.5zM426 1188 q0 17 18 51l91 156q27 48 35.5 55.5t45.5 7.5h160q23 0 35 -2.5t12 -13.5q0 -9 -30 -51l-109 -152q-33 -46 -45.5 -55.5t-50.5 -9.5h-123q-22 0 -30.5 3t-8.5 11z" />
<glyph unicode="&#xe2;" horiz-adv-x="1090" d="M82 322q0 184 107 266t321 82q105 0 231 -11v84q0 70 -21.5 111t-67.5 56.5t-101 15.5q-43 0 -71.5 -7.5t-45.5 -19.5t-26 -22q-18 -18 -29 -48q-14 -38 -66 -38h-133q-34 0 -45.5 11.5t-11.5 33.5q0 45 18 81.5t45 67.5q37 40 95 68t129 38.5t141 10.5q179 0 277 -49.5 t123.5 -130t25.5 -162.5v-451q0 -107 -47.5 -185t-143 -111t-213.5 -33h-57q-107 0 -188 17t-136 57t-82.5 105.5t-27.5 162.5zM213 1192q0 7 15 25l205 196q25 25 42.5 35t41.5 10h94q35 0 84 -45l205 -196q14 -17 14 -25t-9 -13t-32 -5h-121q-54 0 -86 32l-102 97 l-103 -97q-32 -32 -86 -32h-121q-23 0 -32 5t-9 13zM322 303q0 -69 45.5 -105t142.5 -36h35q79 0 122.5 26t58.5 78t15 115v92q-111 12 -184 12q-101 0 -154 -25t-67 -68.5t-14 -88.5z" />
<glyph unicode="&#xe3;" horiz-adv-x="1090" d="M82 322q0 184 107 266t321 82q105 0 231 -11v84q0 70 -21.5 111t-67.5 56.5t-101 15.5q-43 0 -71.5 -7.5t-45.5 -19.5t-26 -22q-18 -18 -29 -48q-14 -38 -66 -38h-133q-34 0 -45.5 11.5t-11.5 33.5q0 45 18 81.5t45 67.5q37 40 95 68t129 38.5t141 10.5q179 0 277 -49.5 t123.5 -130t25.5 -162.5v-451q0 -107 -47.5 -185t-143 -111t-213.5 -33h-57q-107 0 -188 17t-136 57t-82.5 105.5t-27.5 162.5zM188 1227q0 71 25 120t71 69t97 20q49 0 67 -6l207 -62q22 -8 43 -8q25 0 33 12t10.5 26t5.5 26t19 12h112q10 0 18.5 -6t8.5 -17q0 -9 1 -18 t1 -19q0 -64 -23.5 -109.5t-66.5 -63t-90 -17.5q-52 0 -72 6l-207 63q-26 9 -45 9q-41 0 -49 -40t-24 -40h-113q-9 0 -17 6.5t-8 15.5q0 6 -2 11t-2 10zM322 303q0 -69 45.5 -105t142.5 -36h35q79 0 122.5 26t58.5 78t15 115v92q-111 12 -184 12q-101 0 -154 -25t-67 -68.5 t-14 -88.5z" />
<glyph unicode="&#xe4;" horiz-adv-x="1090" d="M82 322q0 184 107 266t321 82q105 0 231 -11v84q0 70 -21.5 111t-67.5 56.5t-101 15.5q-43 0 -71.5 -7.5t-45.5 -19.5t-26 -22q-18 -18 -29 -48q-14 -38 -66 -38h-133q-34 0 -45.5 11.5t-11.5 33.5q0 45 18 81.5t45 67.5q37 40 95 68t129 38.5t141 10.5q179 0 277 -49.5 t123.5 -130t25.5 -162.5v-451q0 -107 -47.5 -185t-143 -111t-213.5 -33h-57q-107 0 -188 17t-136 57t-82.5 105.5t-27.5 162.5zM239 1315v39q0 36 19 64.5t48 39t62 10.5q49 0 78 -19t40 -45.5t11 -49.5v-39q0 -36 -19 -65.5t-48 -40.5t-62 -11t-57.5 9.5t-40 25.5 t-23.5 37.5t-8 44.5zM322 303q0 -69 45.5 -105t142.5 -36h35q79 0 122.5 26t58.5 78t15 115v92q-111 12 -184 12q-101 0 -154 -25t-67 -68.5t-14 -88.5zM612 1315v39q0 36 19 64.5t48 39t62 10.5q49 0 78 -19t40 -45.5t11 -49.5v-39q0 -36 -19 -65.5t-48 -40.5t-62 -11 t-57.5 9.5t-40 25.5t-23.5 37.5t-8 44.5z" />
<glyph unicode="&#xe5;" horiz-adv-x="1090" d="M82 322q0 184 107 266t321 82q105 0 231 -11v84q0 70 -21.5 111t-67.5 56.5t-101 15.5q-43 0 -71.5 -7.5t-45.5 -19.5t-26 -22q-18 -18 -29 -48q-14 -38 -66 -38h-133q-34 0 -45.5 11.5t-11.5 33.5q0 45 18 81.5t45 67.5q37 40 95 68t129 38.5t141 10.5q179 0 277 -49.5 t123.5 -130t25.5 -162.5v-451q0 -107 -47.5 -185t-143 -111t-213.5 -33h-57q-107 0 -188 17t-136 57t-82.5 105.5t-27.5 162.5zM322 303q0 -69 45.5 -105t142.5 -36h35q79 0 122.5 26t58.5 78t15 115v92q-111 12 -184 12q-101 0 -154 -25t-67 -68.5t-14 -88.5zM333 1380 q0 64 32.5 116.5t83.5 74.5t106 22q75 0 129.5 -37.5t73 -87t18.5 -90.5q0 -63 -32.5 -116t-83.5 -75t-105 -22q-55 0 -96.5 18.5t-69.5 48.5t-42 68.5t-14 79.5zM462 1378q0 -17 6 -33.5t17.5 -29.5t29 -21t40.5 -8q33 0 55 17t29.5 37.5t7.5 37.5q0 29 -14.5 50.5 t-34.5 31.5t-43 10q-32 0 -54.5 -15.5t-30.5 -37t-8 -39.5z" />
<glyph unicode="&#xe6;" horiz-adv-x="1739" d="M82 307q0 190 107 276.5t321 86.5q105 0 231 -11v84q0 70 -21.5 111t-67.5 56.5t-101 15.5q-43 0 -71.5 -7.5t-45.5 -19.5t-26 -22q-18 -18 -29 -48q-14 -38 -66 -38h-133q-34 0 -45.5 11.5t-11.5 33.5q0 45 18 81.5t45 67.5q37 40 95 68t129 38.5t141 10.5 q124 0 205 -30.5t131 -90.5q57 59 132.5 90t174.5 31q119 0 205 -33.5t142 -96t83 -150t27 -195.5v-97q0 -37 -14 -48t-52 -11h-614v-14q0 -144 55.5 -211.5t171.5 -67.5q67 0 111.5 20.5t60 45t21.5 41.5q5 15 16 24.5t39 9.5h127q38 0 50.5 -11t12.5 -36q0 -32 -15 -68 t-35 -65t-36 -45q-41 -43 -100 -70.5t-126 -40t-130 -12.5q-102 0 -183.5 32.5t-138.5 94.5q-36 -38 -94.5 -68t-122.5 -44.5t-118 -14.5h-41q-99 0 -176.5 18.5t-130 59t-80 104.5t-27.5 154zM322 309q0 -69 47 -108t141 -39h31q77 0 122 25t61.5 78t16.5 116v92 q-111 12 -184 12q-102 0 -155 -24t-66.5 -65.5t-13.5 -86.5zM973 655h430q0 131 -53 190.5t-156 59.5t-160.5 -59.5t-60.5 -190.5z" />
<glyph unicode="&#xe7;" horiz-adv-x="1061" d="M92 426v221q0 97 24.5 180t78 144t138 96t204.5 35q92 0 163.5 -18t116 -47t72.5 -56q54 -54 71 -113t17 -120q0 -31 -13.5 -42.5t-52.5 -11.5h-120q-34 0 -48 10t-16 33q-9 59 -29.5 93t-61.5 50.5t-91 16.5q-88 0 -136 -39.5t-60.5 -104.5t-12.5 -137v-159 q0 -72 10.5 -124.5t34 -87t62 -51t94.5 -16.5q72 0 114 25t56.5 63t19.5 72q2 17 13 29t42 12h131q39 0 52.5 -11t13.5 -36q0 -68 -22 -129.5t-70 -112.5q-48 -53 -135.5 -86t-214.5 -33q-120 0 -204.5 35t-138 96t-78 144t-24.5 180zM256 -391q0 9 31 51l100 154 q31 48 42.5 56.5t53.5 8.5h131q22 0 30.5 -3.5t8.5 -12.5q0 -16 -18 -49l-90 -156q-27 -47 -31.5 -52.5t-17.5 -9.5t-33 -4h-160q-26 0 -36.5 4.5t-10.5 12.5z" />
<glyph unicode="&#xe8;" horiz-adv-x="1104" d="M92 444v181q0 105 28 192.5t86 151t145.5 98.5t207.5 35q119 0 205.5 -33.5t142.5 -96t82.5 -150t26.5 -195.5v-97q0 -37 -14 -48t-52 -11h-614v-14q0 -144 56 -211.5t171 -67.5q67 0 111.5 20.5t60 45t21.5 41.5q5 15 16 24.5t39 9.5h127q38 0 50.5 -11t12.5 -36 q0 -32 -15 -68t-35 -64.5t-36 -45.5q-41 -43 -100 -70.5t-126.5 -40t-129.5 -12.5q-120 0 -207.5 35t-145.5 98t-86 149.5t-28 190.5zM313 1440q0 16 47 16h160q35 0 45.5 -9.5t36.5 -53.5l90 -156q18 -35 18 -51q0 -8 -8.5 -11.5t-30.5 -3.5h-122q-31 0 -48 8t-26.5 24 t-22.5 34l-108 152q-31 44 -31 51zM338 655h430q0 131 -53 190.5t-156 59.5t-160.5 -59.5t-60.5 -190.5z" />
<glyph unicode="&#xe9;" horiz-adv-x="1104" d="M92 444v181q0 105 28 192.5t86 151t145.5 98.5t207.5 35q119 0 205.5 -33.5t142.5 -96t82.5 -150t26.5 -195.5v-97q0 -37 -14 -48t-52 -11h-614v-14q0 -144 56 -211.5t171 -67.5q67 0 111.5 20.5t60 45t21.5 41.5q5 15 16 24.5t39 9.5h127q38 0 50.5 -11t12.5 -36 q0 -32 -15 -68t-35 -64.5t-36 -45.5q-41 -43 -100 -70.5t-126.5 -40t-129.5 -12.5q-120 0 -207.5 35t-145.5 98t-86 149.5t-28 190.5zM338 655h430q0 131 -53 190.5t-156 59.5t-160.5 -59.5t-60.5 -190.5zM412 1188q0 17 18 51l91 156q27 48 35.5 55.5t45.5 7.5h160 q23 0 35 -2.5t12 -13.5q0 -9 -30 -51l-109 -152q-33 -46 -45.5 -55.5t-50.5 -9.5h-123q-22 0 -30.5 3t-8.5 11z" />
<glyph unicode="&#xea;" horiz-adv-x="1104" d="M92 444v181q0 105 28 192.5t86 151t145.5 98.5t207.5 35q119 0 205.5 -33.5t142.5 -96t82.5 -150t26.5 -195.5v-97q0 -37 -14 -48t-52 -11h-614v-14q0 -144 56 -211.5t171 -67.5q67 0 111.5 20.5t60 45t21.5 41.5q5 15 16 24.5t39 9.5h127q38 0 50.5 -11t12.5 -36 q0 -32 -15 -68t-35 -64.5t-36 -45.5q-41 -43 -100 -70.5t-126.5 -40t-129.5 -12.5q-120 0 -207.5 35t-145.5 98t-86 149.5t-28 190.5zM211 1192q0 7 15 25l205 196q25 25 42.5 35t41.5 10h94q35 0 84 -45l205 -196q14 -17 14 -25t-9 -13t-32 -5h-121q-54 0 -86 32l-102 97 l-103 -97q-32 -32 -86 -32h-121q-23 0 -32 5t-9 13zM338 655h430q0 131 -53 190.5t-156 59.5t-160.5 -59.5t-60.5 -190.5z" />
<glyph unicode="&#xeb;" horiz-adv-x="1104" d="M92 444v181q0 105 28 192.5t86 151t145.5 98.5t207.5 35q119 0 205.5 -33.5t142.5 -96t82.5 -150t26.5 -195.5v-97q0 -37 -14 -48t-52 -11h-614v-14q0 -144 56 -211.5t171 -67.5q67 0 111.5 20.5t60 45t21.5 41.5q5 15 16 24.5t39 9.5h127q38 0 50.5 -11t12.5 -36 q0 -32 -15 -68t-35 -64.5t-36 -45.5q-41 -43 -100 -70.5t-126.5 -40t-129.5 -12.5q-120 0 -207.5 35t-145.5 98t-86 149.5t-28 190.5zM235 1315v39q0 36 19 64.5t48 39t62 10.5q49 0 78 -19t40 -45.5t11 -49.5v-39q0 -36 -19 -65.5t-48 -40.5t-62 -11t-57.5 9.5t-40 25.5 t-23.5 37.5t-8 44.5zM338 655h430q0 131 -53 190.5t-156 59.5t-160.5 -59.5t-60.5 -190.5zM608 1315v39q0 36 19 64.5t48 39t62 10.5q49 0 78 -19t40 -45.5t11 -49.5v-39q0 -36 -19 -65.5t-48 -40.5t-62 -11t-57.5 9.5t-40 25.5t-23.5 37.5t-8 44.5z" />
<glyph unicode="&#xec;" horiz-adv-x="532" d="M-14 1440q0 16 47 16h160q35 0 45.5 -9.5t36.5 -53.5l90 -156q18 -35 18 -51q0 -8 -8.5 -11.5t-30.5 -3.5h-122q-31 0 -48 8t-26.5 24t-22.5 34l-108 152q-31 44 -31 51zM143 59v955q0 37 14 48t52 11h113q38 0 51.5 -11t13.5 -48v-955q0 -37 -13.5 -48t-51.5 -11h-113 q-38 0 -52 11t-14 48z" />
<glyph unicode="&#xed;" horiz-adv-x="532" d="M143 59v955q0 37 14 48t52 11h113q38 0 51.5 -11t13.5 -48v-955q0 -37 -13.5 -48t-51.5 -11h-113q-38 0 -52 11t-14 48zM170 1188q0 17 18 51l91 156q27 48 35.5 55.5t45.5 7.5h160q23 0 35 -2.5t12 -13.5q0 -9 -30 -51l-109 -152q-33 -46 -45.5 -55.5t-50.5 -9.5h-123 q-22 0 -30.5 3t-8.5 11z" />
<glyph unicode="&#xee;" horiz-adv-x="532" d="M-72 1192q0 7 15 25l205 196q25 25 42.5 35t41.5 10h94q35 0 84 -45l205 -196q14 -17 14 -25t-9 -13t-32 -5h-121q-54 0 -86 32l-102 97l-103 -97q-32 -32 -86 -32h-121q-23 0 -32 5t-9 13zM143 59v955q0 37 14 48t52 11h113q38 0 51.5 -11t13.5 -48v-955 q0 -37 -13.5 -48t-51.5 -11h-113q-38 0 -52 11t-14 48z" />
<glyph unicode="&#xef;" horiz-adv-x="532" d="M-43 1315v39q0 36 19 64.5t48 39t62 10.5q49 0 78 -19t40 -45.5t11 -49.5v-39q0 -36 -19 -65.5t-48 -40.5t-62 -11t-57.5 9.5t-40 25.5t-23.5 37.5t-8 44.5zM143 59v955q0 37 14 48t52 11h113q38 0 51.5 -11t13.5 -48v-955q0 -37 -13.5 -48t-51.5 -11h-113q-38 0 -52 11 t-14 48zM330 1315v39q0 36 19 64.5t48 39t62 10.5q49 0 78 -19t40 -45.5t11 -49.5v-39q0 -36 -19 -65.5t-48 -40.5t-62 -11t-57.5 9.5t-40 25.5t-23.5 37.5t-8 44.5z" />
<glyph unicode="&#xf0;" horiz-adv-x="1096" d="M82 426v63q0 97 27 180.5t79.5 144.5t130 95.5t179.5 34.5q54 0 96.5 -14t72 -31t45.5 -31l15 -14q-8 57 -32 112t-54 100.5t-51 68.5l-72 -76q-12 -15 -20 -15t-17 9l-73 65q-9 11 -9 17q0 5 9 16l81 86q-21 19 -71 61q-45 32 -45 50q0 6 22 38l39 52q33 43 53 43 q19 0 52 -21q45 -32 94 -69l69 73q7 6 19 6q9 0 18 -6l70 -61q10 -10 10 -17q0 -8 -10 -18l-66 -72q117 -112 178.5 -239.5t77 -271.5t15.5 -285v-74q0 -97 -28 -180t-85.5 -144t-145 -96t-206.5 -35q-120 0 -208 35t-145.5 96t-85.5 144t-28 180zM326 459q0 -59 10 -110 t35.5 -89t68.5 -60t109 -22q94 0 144.5 45.5t63.5 111.5t13 124q0 143 -55 210.5t-166 67.5q-113 0 -168 -67.5t-55 -210.5z" />
<glyph unicode="&#xf1;" horiz-adv-x="1141" d="M133 59v955q0 37 13.5 48t52.5 11h108q38 0 52 -11t14 -48v-60q40 53 85 87t102.5 47.5t117.5 13.5q80 0 140.5 -25t101.5 -67q45 -47 66.5 -113t21.5 -166v-672q0 -37 -14 -48t-52 -11h-113q-38 0 -51.5 11t-13.5 48v635q0 56 -11.5 93t-33.5 59q-25 25 -58.5 34 t-76.5 9q-69 0 -118.5 -32t-69 -84.5t-19.5 -113.5v-600q0 -37 -14 -48t-52 -11h-112q-39 0 -52.5 11t-13.5 48zM207 1227q0 71 25 120t71 69t97 20q49 0 67 -6l207 -62q22 -8 43 -8q25 0 33 12t10.5 26t5.5 26t19 12h112q10 0 18.5 -6t8.5 -17q0 -9 1 -18t1 -19 q0 -64 -23.5 -109.5t-66.5 -63t-90 -17.5q-52 0 -72 6l-207 63q-26 9 -45 9q-41 0 -49 -40t-24 -40h-113q-9 0 -17 6.5t-8 15.5q0 6 -2 11t-2 10z" />
<glyph unicode="&#xf2;" horiz-adv-x="1116" d="M92 426v221q0 97 28 180t86 144t145.5 96t207.5 35q119 0 206.5 -35t145 -96t85.5 -144t28 -180v-221q0 -97 -28 -180t-85.5 -144t-145 -96t-206.5 -35q-120 0 -207.5 35t-145.5 96t-86 144t-28 180zM299 1440q0 16 47 16h160q35 0 45.5 -9.5t36.5 -53.5l90 -156 q18 -35 18 -51q0 -8 -8.5 -11.5t-30.5 -3.5h-122q-31 0 -48 8t-26.5 24t-22.5 34l-108 152q-31 44 -31 51zM336 457q0 -144 55.5 -211.5t167.5 -67.5t166.5 67.5t54.5 211.5v159q0 144 -54.5 211.5t-166.5 67.5t-167.5 -67.5t-55.5 -211.5v-159z" />
<glyph unicode="&#xf3;" horiz-adv-x="1116" d="M92 426v221q0 97 28 180t86 144t145.5 96t207.5 35q119 0 206.5 -35t145 -96t85.5 -144t28 -180v-221q0 -97 -28 -180t-85.5 -144t-145 -96t-206.5 -35q-120 0 -207.5 35t-145.5 96t-86 144t-28 180zM336 457q0 -144 55.5 -211.5t167.5 -67.5t166.5 67.5t54.5 211.5v159 q0 144 -54.5 211.5t-166.5 67.5t-167.5 -67.5t-55.5 -211.5v-159zM414 1188q0 17 18 51l91 156q27 48 35.5 55.5t45.5 7.5h160q23 0 35 -2.5t12 -13.5q0 -9 -30 -51l-109 -152q-33 -46 -45.5 -55.5t-50.5 -9.5h-123q-22 0 -30.5 3t-8.5 11z" />
<glyph unicode="&#xf4;" horiz-adv-x="1116" d="M92 426v221q0 97 28 180t86 144t145.5 96t207.5 35q119 0 206.5 -35t145 -96t85.5 -144t28 -180v-221q0 -97 -28 -180t-85.5 -144t-145 -96t-206.5 -35q-120 0 -207.5 35t-145.5 96t-86 144t-28 180zM208 1192q0 7 15 25l205 196q25 25 42.5 35t41.5 10h94q35 0 84 -45 l205 -196q14 -17 14 -25t-9 -13t-32 -5h-121q-54 0 -86 32l-102 97l-103 -97q-32 -32 -86 -32h-121q-23 0 -32 5t-9 13zM336 457q0 -144 55.5 -211.5t167.5 -67.5t166.5 67.5t54.5 211.5v159q0 144 -54.5 211.5t-166.5 67.5t-167.5 -67.5t-55.5 -211.5v-159z" />
<glyph unicode="&#xf5;" horiz-adv-x="1116" d="M92 426v221q0 97 28 180t86 144t145.5 96t207.5 35q119 0 206.5 -35t145 -96t85.5 -144t28 -180v-221q0 -97 -28 -180t-85.5 -144t-145 -96t-206.5 -35q-120 0 -207.5 35t-145.5 96t-86 144t-28 180zM196 1227q0 71 25 120t71 69t97 20q49 0 67 -6l207 -62q22 -8 43 -8 q25 0 33 12t10.5 26t5.5 26t19 12h112q10 0 18.5 -6t8.5 -17q0 -9 1 -18t1 -19q0 -64 -23.5 -109.5t-66.5 -63t-90 -17.5q-52 0 -72 6l-207 63q-26 9 -45 9q-41 0 -49 -40t-24 -40h-113q-9 0 -17 6.5t-8 15.5q0 6 -2 11t-2 10zM336 457q0 -144 55.5 -211.5t167.5 -67.5 t166.5 67.5t54.5 211.5v159q0 144 -54.5 211.5t-166.5 67.5t-167.5 -67.5t-55.5 -211.5v-159z" />
<glyph unicode="&#xf6;" horiz-adv-x="1116" d="M92 426v221q0 97 28 180t86 144t145.5 96t207.5 35q119 0 206.5 -35t145 -96t85.5 -144t28 -180v-221q0 -97 -28 -180t-85.5 -144t-145 -96t-206.5 -35q-120 0 -207.5 35t-145.5 96t-86 144t-28 180zM233 1315v39q0 36 19 64.5t48 39t62 10.5q49 0 78 -19t40 -45.5 t11 -49.5v-39q0 -36 -19 -65.5t-48 -40.5t-62 -11t-57.5 9.5t-40 25.5t-23.5 37.5t-8 44.5zM336 457q0 -144 55.5 -211.5t167.5 -67.5t166.5 67.5t54.5 211.5v159q0 144 -54.5 211.5t-166.5 67.5t-167.5 -67.5t-55.5 -211.5v-159zM606 1315v39q0 36 19 64.5t48 39t62 10.5 q49 0 78 -19t40 -45.5t11 -49.5v-39q0 -36 -19 -65.5t-48 -40.5t-62 -11t-57.5 9.5t-40 25.5t-23.5 37.5t-8 44.5z" />
<glyph unicode="&#xf7;" d="M92 635v106q0 54 47 54h844q32 0 39.5 -11t7.5 -43v-106q0 -53 -47 -53h-844q-32 0 -39.5 10.5t-7.5 42.5zM432 328v39q0 36 19 64.5t48 39t62 10.5q49 0 78 -19t40 -45.5t11 -49.5v-39q0 -36 -19 -65.5t-48 -40.5t-62 -11t-57.5 9.5t-40 25.5t-23.5 37.5t-8 44.5z M432 1012v39q0 36 19 64.5t47.5 39t62.5 10.5q49 0 78 -19t40 -45.5t11 -49.5v-39q0 -36 -19 -65.5t-48 -40.5t-62 -11t-57.5 9.5t-40 25.5t-23.5 37.5t-8 44.5z" />
<glyph unicode="&#xf8;" horiz-adv-x="1116" d="M78 57q0 18 20 41l54 66q-35 56 -51.5 122t-16.5 140v221q0 97 28 180t85.5 144t145.5 96t208 35q94 0 167.5 -22t127.5 -60l47 57q24 29 41 29q21 0 47 -25l23 -18q32 -30 32 -47q0 -16 -20 -39l-62 -76q31 -54 46.5 -118.5t15.5 -135.5v-221q0 -97 -28 -180t-85.5 -144 t-145 -96t-206.5 -35q-91 0 -162 20.5t-127 55.5l-41 -49q-12 -16 -21.5 -22.5t-19.5 -6.5q-19 0 -47 25l-22 18q-33 28 -33 45zM309 457q0 -48 6 -90l398 489q-58 55 -162 55q-242 0 -242 -297v-157zM393 209q58 -49 158 -49q122 0 181 74t59 223v157q0 56 -5 78z" />
<glyph unicode="&#xf9;" horiz-adv-x="1141" d="M133 342v672q0 37 13.5 48t52.5 11h112q38 0 52 -11t14 -48v-635q0 -56 11.5 -93t33.5 -59q25 -24 58.5 -33.5t76.5 -9.5q65 0 115 30t71 84.5t21 115.5v600q0 37 13.5 48t51.5 11h113q38 0 52 -11t14 -48v-955q0 -37 -14 -48t-52 -11h-108q-39 0 -52.5 11t-13.5 48v60 q-24 -32 -50.5 -59.5t-61.5 -47t-80 -30.5t-105 -11q-80 0 -145 25t-105 67q-45 47 -66.5 113t-21.5 166zM320 1440q0 16 47 16h160q35 0 45.5 -9.5t36.5 -53.5l90 -156q18 -35 18 -51q0 -8 -8.5 -11.5t-30.5 -3.5h-122q-31 0 -48 8t-26.5 24t-22.5 34l-108 152 q-31 44 -31 51z" />
<glyph unicode="&#xfa;" horiz-adv-x="1141" d="M133 342v672q0 37 13.5 48t52.5 11h112q38 0 52 -11t14 -48v-635q0 -56 11.5 -93t33.5 -59q25 -24 58.5 -33.5t76.5 -9.5q65 0 115 30t71 84.5t21 115.5v600q0 37 13.5 48t51.5 11h113q38 0 52 -11t14 -48v-955q0 -37 -14 -48t-52 -11h-108q-39 0 -52.5 11t-13.5 48v60 q-24 -32 -50.5 -59.5t-61.5 -47t-80 -30.5t-105 -11q-80 0 -145 25t-105 67q-45 47 -66.5 113t-21.5 166zM440 1188q0 17 18 51l91 156q27 48 35.5 55.5t45.5 7.5h160q23 0 35 -2.5t12 -13.5q0 -9 -30 -51l-109 -152q-33 -46 -45.5 -55.5t-50.5 -9.5h-123q-22 0 -30.5 3 t-8.5 11z" />
<glyph unicode="&#xfb;" horiz-adv-x="1141" d="M133 342v672q0 37 13.5 48t52.5 11h112q38 0 52 -11t14 -48v-635q0 -56 11.5 -93t33.5 -59q25 -24 58.5 -33.5t76.5 -9.5q65 0 115 30t71 84.5t21 115.5v600q0 37 13.5 48t51.5 11h113q38 0 52 -11t14 -48v-955q0 -37 -14 -48t-52 -11h-108q-39 0 -52.5 11t-13.5 48v60 q-24 -32 -50.5 -59.5t-61.5 -47t-80 -30.5t-105 -11q-80 0 -145 25t-105 67q-45 47 -66.5 113t-21.5 166zM227 1192q0 7 15 25l205 196q25 25 42.5 35t41.5 10h94q35 0 84 -45l205 -196q14 -17 14 -25t-9 -13t-32 -5h-121q-54 0 -86 32l-102 97l-103 -97q-32 -32 -86 -32 h-121q-23 0 -32 5t-9 13z" />
<glyph unicode="&#xfc;" horiz-adv-x="1141" d="M133 342v672q0 37 13.5 48t52.5 11h112q38 0 52 -11t14 -48v-635q0 -56 11.5 -93t33.5 -59q25 -24 58.5 -33.5t76.5 -9.5q65 0 115 30t71 84.5t21 115.5v600q0 37 13.5 48t51.5 11h113q38 0 52 -11t14 -48v-955q0 -37 -14 -48t-52 -11h-108q-39 0 -52.5 11t-13.5 48v60 q-24 -32 -50.5 -59.5t-61.5 -47t-80 -30.5t-105 -11q-80 0 -145 25t-105 67q-45 47 -66.5 113t-21.5 166zM248 1315v39q0 36 19 64.5t48 39t62 10.5q49 0 78 -19t40 -45.5t11 -49.5v-39q0 -36 -19 -65.5t-48 -40.5t-62 -11t-57.5 9.5t-40 25.5t-23.5 37.5t-8 44.5zM621 1315 v39q0 36 19 64.5t48 39t62 10.5q49 0 78 -19t40 -45.5t11 -49.5v-39q0 -36 -19 -65.5t-48 -40.5t-62 -11t-57.5 9.5t-40 25.5t-23.5 37.5t-8 44.5z" />
<glyph unicode="&#xfd;" horiz-adv-x="993" d="M5.5 1056q11.5 17 43.5 17h137q27 0 42.5 -12t27.5 -43l256 -690l229 694q10 28 24 39.5t46 11.5h135q66 0 43 -61l-403 -1118q-33 -89 -60 -135.5t-80 -77.5t-118 -31h-185q-32 0 -39.5 10.5t-7.5 42.5v104q0 54 47 54h107q49 0 70 14t36 51l37 92l-387 992 q-12 29 -0.5 46zM365 1188q0 17 18 51l91 156q27 48 35.5 55.5t45.5 7.5h160q23 0 35 -2.5t12 -13.5q0 -9 -30 -51l-109 -152q-33 -46 -45.5 -55.5t-50.5 -9.5h-123q-22 0 -30.5 3t-8.5 11z" />
<glyph unicode="&#xfe;" horiz-adv-x="1153" d="M133 -291v1690q0 37 13.5 48t52.5 11h112q38 0 52 -11t14 -48v-438q27 46 71 79.5t100.5 47.5t113.5 14q142 0 236 -66t128.5 -172t34.5 -217v-180q0 -111 -27 -195.5t-78.5 -142.5t-125.5 -87.5t-168 -29.5q-79 0 -142 23.5t-94 55.5t-49 63v-445q0 -37 -14 -48t-52 -11 h-112q-39 0 -52.5 11t-13.5 48zM373 500q0 -144 57 -213.5t168 -69.5q113 0 166 69.5t53 213.5v112q0 144 -53 213.5t-166 69.5q-111 0 -168 -69.5t-57 -213.5v-112z" />
<glyph unicode="&#xff;" horiz-adv-x="993" d="M5.5 1056q11.5 17 43.5 17h137q27 0 42.5 -12t27.5 -43l256 -690l229 694q10 28 24 39.5t46 11.5h135q66 0 43 -61l-403 -1118q-33 -89 -60 -135.5t-80 -77.5t-118 -31h-185q-32 0 -39.5 10.5t-7.5 42.5v104q0 54 47 54h107q49 0 70 14t36 51l37 92l-387 992 q-12 29 -0.5 46zM180 1315v39q0 36 19 64.5t48 39t62 10.5q49 0 78 -19t40 -45.5t11 -49.5v-39q0 -36 -19 -65.5t-48 -40.5t-62 -11t-57.5 9.5t-40 25.5t-23.5 37.5t-8 44.5zM553 1315v39q0 36 19 64.5t48 39t62 10.5q49 0 78 -19t40 -45.5t11 -49.5v-39q0 -36 -19 -65.5 t-48 -40.5t-62 -11t-57.5 9.5t-40 25.5t-23.5 37.5t-8 44.5z" />
<glyph unicode="&#x152;" horiz-adv-x="1796" d="M111 602v254q0 109 11.5 183.5t35.5 129.5q28 67 73 120.5t107 91t141 57.5t176 20h1002q37 0 48 -13.5t11 -51.5v-107q0 -38 -11 -51.5t-48 -13.5h-543v-336h490q37 0 48 -14t11 -52v-106q0 -38 -11 -52t-48 -14h-490v-409h551q37 0 48 -14t11 -52v-106q0 -39 -11 -52.5 t-48 -13.5h-1010q-97 0 -176 20t-141 57.5t-107 91t-73 120.5q-24 54 -35.5 129t-11.5 184zM377 590q0 -105 17.5 -174.5t52.5 -111.5t87 -59.5t121 -17.5h205v1004h-205q-69 0 -121 -17.5t-87 -59.5t-52.5 -111.5t-17.5 -174.5v-278z" />
<glyph unicode="&#x153;" horiz-adv-x="1788" d="M92 426v221q0 97 28 180t86 144t145.5 96t207.5 35q80 0 149 -21t116.5 -54t76.5 -60q59 58 143 96.5t199 38.5q119 0 205.5 -33.5t142.5 -96t82.5 -150t26.5 -195.5v-97q0 -37 -13.5 -48t-52.5 -11h-614v-14q0 -144 56 -211.5t171 -67.5q67 0 111.5 20.5t60 45 t21.5 41.5q5 15 16 24.5t39 9.5h127q38 0 51 -11t13 -36q0 -32 -16 -70.5t-35 -64.5t-36 -43q-41 -43 -100 -70.5t-126 -40t-130 -12.5q-115 0 -199 36.5t-143 94.5q-57 -56 -142 -93.5t-200 -37.5q-120 0 -207.5 35t-145.5 96t-86 144t-28 180zM336 457q0 -144 55.5 -211.5 t167.5 -67.5t166.5 67.5t54.5 211.5v159q0 144 -54.5 211.5t-166.5 67.5t-167.5 -67.5t-55.5 -211.5v-159zM1022 655h430q0 131 -53 190.5t-156 59.5t-160.5 -59.5t-60.5 -190.5z" />
<glyph unicode="&#x178;" horiz-adv-x="1139" d="M0.5 1427.5q0.5 11.5 7 18t18.5 9.5t27 3h162q28 0 39.5 -6.5t18 -21.5t16.5 -31l291 -568l284 568q9 17 13.5 28.5t10 18t15.5 9.5t29 3h135q32 0 50 -7t21 -21t-5 -31l-437 -846v-494q0 -37 -13.5 -48t-51.5 -11h-119q-38 0 -52 11t-14 48v494l-438 846 q-8 17 -7.5 28.5zM250 1704v39q0 36 19 64.5t48 39t62 10.5q49 0 78 -19t40 -45.5t11 -49.5v-39q0 -36 -19 -65.5t-48 -40.5t-62 -11t-57.5 9.5t-40 25.5t-23.5 37.5t-8 44.5zM623 1704v39q0 36 19 64.5t48 39t62 10.5q49 0 78 -19t40 -45.5t11 -49.5v-39q0 -36 -19 -65.5 t-48 -40.5t-62 -11t-57.5 9.5t-40 25.5t-23.5 37.5t-8 44.5z" />
<glyph unicode="&#x2c6;" horiz-adv-x="737" d="M18 1192q0 7 15 25l205 196q25 25 42.5 35t41.5 10h94q35 0 84 -45l205 -196q14 -17 14 -25t-9 -13t-32 -5h-121q-54 0 -86 32l-102 97l-103 -97q-32 -32 -86 -32h-121q-23 0 -32 5t-9 13z" />
<glyph unicode="&#x2dc;" horiz-adv-x="739" d="M10 1227q0 71 25 120t71 69t97 20q49 0 67 -6l207 -62q22 -8 43 -8q25 0 33 12t10.5 26t5.5 26t19 12h112q10 0 18.5 -6t8.5 -17q0 -9 1 -18t1 -19q0 -64 -23.5 -109.5t-66.5 -63t-90 -17.5q-52 0 -72 6l-207 63q-26 9 -45 9q-41 0 -49 -40t-24 -40h-113q-9 0 -17 6.5 t-8 15.5q0 6 -2 11t-2 10z" />
<glyph unicode="&#x2000;" horiz-adv-x="928" />
<glyph unicode="&#x2001;" horiz-adv-x="1857" />
<glyph unicode="&#x2002;" horiz-adv-x="928" />
<glyph unicode="&#x2003;" horiz-adv-x="1857" />
<glyph unicode="&#x2004;" horiz-adv-x="619" />
<glyph unicode="&#x2005;" horiz-adv-x="464" />
<glyph unicode="&#x2006;" horiz-adv-x="309" />
<glyph unicode="&#x2007;" horiz-adv-x="309" />
<glyph unicode="&#x2008;" horiz-adv-x="232" />
<glyph unicode="&#x2009;" horiz-adv-x="371" />
<glyph unicode="&#x200a;" horiz-adv-x="103" />
<glyph unicode="&#x2010;" horiz-adv-x="795" d="M78 502v94q0 44 11 60t48 16h520q37 0 48.5 -15t11.5 -59v-96q0 -45 -11.5 -59.5t-48.5 -14.5h-520q-36 0 -47.5 13t-11.5 61z" />
<glyph unicode="&#x2011;" horiz-adv-x="795" d="M78 502v94q0 44 11 60t48 16h520q37 0 48.5 -15t11.5 -59v-96q0 -45 -11.5 -59.5t-48.5 -14.5h-520q-36 0 -47.5 13t-11.5 61z" />
<glyph unicode="&#x2012;" horiz-adv-x="795" d="M78 502v94q0 44 11 60t48 16h520q37 0 48.5 -15t11.5 -59v-96q0 -45 -11.5 -59.5t-48.5 -14.5h-520q-36 0 -47.5 13t-11.5 61z" />
<glyph unicode="&#x2013;" horiz-adv-x="1024" d="M0 512v84q0 38 11 53t48 15h906q37 0 48 -14t11 -52v-86q0 -38 -11 -52t-48 -14h-906q-37 0 -48 14t-11 52z" />
<glyph unicode="&#x2014;" horiz-adv-x="1536" d="M0 512v84q0 38 11 53t48 15h1418q37 0 48 -14t11 -52v-86q0 -38 -11 -52t-48 -14h-1418q-37 0 -48 14t-11 52z" />
<glyph unicode="&#x2018;" horiz-adv-x="590" d="M125 1083v19q0 90 11 160.5t42.5 119.5t88 75t147.5 26q9 0 13.5 -4t4.5 -15v-98q0 -14 -20 -14q-76 0 -106 -48.5t-30 -138.5q10 7 24.5 11t33.5 4q44 0 74.5 -24t43.5 -57.5t13 -66.5v-51q0 -45 -23 -80q-18 -31 -51.5 -50.5t-87.5 -19.5q-52 0 -86.5 20t-54.5 54 t-28.5 80t-8.5 98z" />
<glyph unicode="&#x2019;" horiz-adv-x="590" d="M125 1282v51q0 45 22 80q19 31 52.5 50.5t87.5 19.5q74 0 114 -40.5t52 -100t12 -111.5v-19q0 -89 -11 -159.5t-42.5 -120t-88 -75.5t-147.5 -26q-18 0 -18 19v98q0 15 20 15q54 0 85.5 26.5t40.5 71t9 88.5q-9 -6 -23.5 -10t-33.5 -4q-44 0 -75.5 23t-43.5 57t-12 67z " />
<glyph unicode="&#x201a;" horiz-adv-x="590" d="M125 125v51q0 44 22 80q19 31 52.5 50.5t87.5 19.5q74 0 114 -40.5t52 -100t12 -111.5v-19q0 -89 -11 -159.5t-42.5 -120t-88 -75.5t-147.5 -26q-18 0 -18 19v98q0 14 20 14q76 0 105.5 49t29.5 138q-9 -6 -23.5 -10.5t-33.5 -4.5q-44 0 -75.5 23.5t-43.5 57.5t-12 67z " />
<glyph unicode="&#x201c;" horiz-adv-x="1034" d="M125 1083v19q0 90 11 160.5t42.5 119.5t88 75t147.5 26q9 0 13.5 -4t4.5 -15v-98q0 -14 -20 -14q-76 0 -106 -48.5t-30 -138.5q10 7 24.5 11t33.5 4q44 0 74.5 -24t43.5 -57.5t13 -66.5v-51q0 -45 -23 -80q-18 -31 -51.5 -50.5t-87.5 -19.5q-52 0 -86.5 20t-54.5 54 t-28.5 80t-8.5 98zM569 1083v19q0 90 11 160.5t42.5 119.5t88 75t147.5 26q9 0 14 -4t5 -15v-98q0 -14 -21 -14q-75 0 -105 -48.5t-30 -138.5q20 15 57 15q44 0 74.5 -24t43.5 -57.5t13 -66.5v-51q0 -44 -22 -80q-19 -31 -52 -50.5t-87 -19.5q-53 0 -87.5 20t-54.5 54 t-28.5 80t-8.5 98z" />
<glyph unicode="&#x201d;" horiz-adv-x="1034" d="M125 1282v51q0 45 22 80q19 31 52.5 50.5t87.5 19.5q74 0 114 -40.5t52 -100t12 -111.5v-19q0 -89 -11 -159.5t-42.5 -120t-88 -75.5t-147.5 -26q-18 0 -18 19v98q0 15 20 15q54 0 85.5 26.5t40.5 71t9 88.5q-9 -6 -23.5 -10t-33.5 -4q-44 0 -75.5 23t-43.5 57t-12 67z M569 1282v51q0 22 6 42.5t17 37.5q18 31 51.5 50.5t87.5 19.5q74 0 114 -40.5t52 -100t12 -111.5v-19q0 -89 -11 -159.5t-42.5 -120t-88 -75.5t-146.5 -26q-19 0 -19 19v98q0 15 21 15q75 0 105 49t30 137q-10 -6 -24.5 -10t-33.5 -4q-42 0 -74 22.5t-44.5 57t-12.5 67.5z " />
<glyph unicode="&#x201e;" horiz-adv-x="1034" d="M125 125v51q0 44 22 80q19 31 52.5 50.5t87.5 19.5q74 0 114 -40.5t52 -100t12 -111.5v-19q0 -89 -11 -159.5t-42.5 -120t-88 -75.5t-147.5 -26q-18 0 -18 19v98q0 14 20 14q76 0 105.5 49t29.5 138q-9 -6 -23.5 -10.5t-33.5 -4.5q-44 0 -75.5 23.5t-43.5 57.5t-12 67z M569 125v51q0 22 6 42.5t17 37.5q18 31 51.5 50.5t87.5 19.5q74 0 114 -40.5t52 -100t12 -111.5v-19q0 -89 -11 -159.5t-42.5 -120t-88 -75.5t-146.5 -26q-19 0 -19 19v98q0 14 21 14q75 0 105 48.5t30 138.5q-10 -6 -24.5 -10.5t-33.5 -4.5q-42 0 -74.5 23t-44.5 57.5 t-12 67.5z" />
<glyph unicode="&#x2022;" horiz-adv-x="981" d="M195 731q0 61 23.5 115t63.5 94.5t93.5 64t113.5 23.5q62 0 116.5 -23t94.5 -63t63 -94.5t23 -116.5t-23 -116t-63 -94t-93.5 -63.5t-114.5 -23.5q-62 0 -116 23.5t-94 63.5t-63.5 94t-23.5 116z" />
<glyph unicode="&#x2026;" horiz-adv-x="2048" d="M174 127v49q0 47 23 83.5t62 51.5t81 15q60 0 98.5 -25t52 -60t13.5 -65v-49q0 -48 -23 -84.5t-61 -51t-80 -14.5t-73.5 12t-52 33t-30.5 48t-10 57zM858 127v49q0 48 22 84t60.5 51t81.5 15q59 0 99 -25t53.5 -60t13.5 -65v-49q0 -46 -23.5 -83t-62 -52t-80.5 -15 t-73 12t-51.5 33t-30 48t-9.5 57zM1544 127v49q0 48 22 84t61 51t81 15q59 0 99 -25t53.5 -60t13.5 -65v-49q0 -46 -23.5 -83t-62 -52t-80.5 -15t-73 12t-51.5 33t-30 48t-9.5 57z" />
<glyph unicode="&#x202f;" horiz-adv-x="371" />
<glyph unicode="&#x2039;" horiz-adv-x="629" d="M72 535v106q0 28 28 51l383 316q35 26 52 26q14 0 18 -17.5t4 -45.5v-125q0 -32 -22 -49l-250 -211l250 -211q22 -21 22 -51v-119q0 -35 -5.5 -50.5t-16.5 -15.5t-64 41l-371 303q-28 25 -28 52z" />
<glyph unicode="&#x203a;" horiz-adv-x="629" d="M72 205v119q0 30 22 51l250 211l-250 211q-22 17 -22 49v125q0 28 4 45.5t18 17.5q16 0 51 -26l383 -316q29 -24 29 -51v-106q0 -26 -29 -52l-370 -303q-54 -41 -64 -41q-11 0 -16.5 15.5t-5.5 50.5z" />
<glyph unicode="&#x205f;" horiz-adv-x="464" />
<glyph unicode="&#x20ac;" horiz-adv-x="1249" d="M-25 532v58q0 53 47 53h89v139h-89q-32 0 -39.5 10.5t-7.5 42.5v58q0 53 47 53h91q3 48 9 87q12 73 36 132q28 67 73 120.5t107.5 91t142.5 57.5t178 20q136 0 237.5 -35.5t164.5 -101.5q36 -37 57.5 -76.5t33 -80t15.5 -81t4 -78.5q0 -32 -15.5 -43.5t-53.5 -11.5h-141 q-36 0 -48 11.5t-14 39.5q-3 51 -11 90.5t-36 71.5q-64 70 -205 70q-52 0 -93.5 -10t-73 -32.5t-53 -58.5t-34.5 -89q-5 -20 -8 -43.5t-5 -49.5h266q32 0 39.5 -10.5t7.5 -42.5v-58q0 -53 -47 -53h-269v-139h269q32 0 39.5 -10.5t7.5 -42.5v-58q0 -53 -47 -53h-267 q2 -27 5.5 -51t8.5 -45q12 -53 33.5 -88.5t53 -58t72.5 -32t93 -9.5q69 0 119 15.5t82 49.5q28 29 41 69t16 103q2 26 14.5 37.5t47.5 11.5h137q38 0 53.5 -12t15.5 -47q0 -88 -23.5 -167t-92.5 -149q-66 -66 -167.5 -102.5t-244.5 -36.5q-92 0 -169 20t-137.5 57.5 t-105.5 91t-73 120.5q-24 54 -36 129q-6 42 -9 94h-91q-32 0 -39.5 10.5t-7.5 42.5z" />
<glyph unicode="&#x2122;" horiz-adv-x="1571" d="M27 1350v59q0 25 9.5 37t37.5 12h524q28 0 37.5 -12t9.5 -37v-59q0 -26 -9.5 -36.5t-37.5 -10.5h-176v-594q0 -25 -9.5 -37.5t-37.5 -12.5h-78q-28 0 -37.5 12.5t-9.5 37.5v591h-176q-28 0 -37.5 12t-9.5 38zM770 707v704q0 28 12.5 37.5t38.5 9.5h76q17 0 28.5 -5 t20.5 -23l172 -363l174 363q10 18 20.5 23t28.5 5h76q26 0 38.5 -9.5t12.5 -37.5v-704q0 -28 -12.5 -38t-38.5 -10h-63q-26 0 -38.5 10t-12.5 38v415l-107 -215q-14 -26 -49 -26h-57q-20 0 -31 5t-19 19l-106 217v-415q0 -28 -12.5 -38t-38.5 -10h-62q-26 0 -38.5 10 t-12.5 38z" />
<glyph unicode="&#x25fc;" horiz-adv-x="1075" d="M0 0v1075h1075v-1075h-1075z" />
<glyph unicode="&#xfb01;" horiz-adv-x="1233" d="M47 922v98q0 53 47 53h111v158q0 76 30 130t82.5 75.5t110.5 21.5h227q32 0 39.5 -10.5t7.5 -42.5v-94q0 -54 -47 -54h-114q-53 0 -72.5 -19.5t-19.5 -72.5v-92h188q32 0 39.5 -10.5t7.5 -42.5v-98q0 -54 -47 -54h-188v-809q0 -37 -14 -48t-52 -11h-113q-38 0 -51.5 11 t-13.5 48v809h-111q-32 0 -39.5 11t-7.5 43zM821 1315v43q0 40 19 69.5t52.5 43.5t72.5 14q51 0 86 -21.5t47 -51.5t12 -54v-43q0 -40 -20.5 -71t-54 -43.5t-70.5 -12.5q-38 0 -65 10.5t-44.5 27.5t-26 40t-8.5 49zM842 59v955q0 37 13.5 48t51.5 11h113q38 0 51.5 -11 t13.5 -48v-955q0 -37 -13.5 -48t-51.5 -11h-113q-38 0 -51.5 11t-13.5 48z" />
<glyph unicode="&#xfb02;" horiz-adv-x="1233" d="M47 922v98q0 53 47 53h111v158q0 76 30 130t82.5 75.5t110.5 21.5h227q32 0 39.5 -10.5t7.5 -42.5v-94q0 -54 -47 -54h-114q-53 0 -72.5 -19.5t-19.5 -72.5v-92h188q32 0 39.5 -10.5t7.5 -42.5v-98q0 -54 -47 -54h-188v-809q0 -37 -14 -48t-52 -11h-113q-38 0 -51.5 11 t-13.5 48v809h-111q-32 0 -39.5 11t-7.5 43zM842 59v1340q0 37 13.5 48t51.5 11h113q38 0 51.5 -11t13.5 -48v-1340q0 -37 -13.5 -48t-51.5 -11h-113q-38 0 -51.5 11t-13.5 48z" />
</font>
</defs>
</svg>
