<?xml version="1.0" encoding="utf-8"?>
<!-- Generator: Adobe Illustrator 16.0.4, SVG Export Plug-In . SVG Version: 6.00 Build 0)  -->
<!DOCTYPE svg PUBLIC "-//W3C//DTD SVG 1.1//EN" "http://www.w3.org/Graphics/SVG/1.1/DTD/svg11.dtd">
<svg version="1.1" id="Layer_1" xmlns="http://www.w3.org/2000/svg" xmlns:xlink="http://www.w3.org/1999/xlink" x="0px" y="0px"
	 width="150px" height="75px" viewBox="0 0 150 75" style="enable-background:new 0 0 150 75;" xml:space="preserve">
<g>
	<g>
		<g>
			<path style="fill:#FFFFFF;" d="M15.998-20.292C7.176-20.292,0-27.468,0-36.292c0-8.821,7.176-16,15.998-16
				c8.824,0,16.002,7.179,16.002,16C32-27.468,24.822-20.292,15.998-20.292z M15.998-51.062c-8.145,0-14.771,6.625-14.771,14.771
				c0,8.144,6.627,14.773,14.771,14.773c8.146,0,14.773-6.629,14.773-14.773C30.771-44.437,24.145-51.062,15.998-51.062z"/>
		</g>
	</g>
	<g>
		<g>
			<g>
				<polygon style="fill:#FFFFFF;" points="15.973,-33.706 6.373,-39.56 6.373,-30.862 25.572,-30.862 25.572,-39.56 				"/>
			</g>
			<g>
				<polygon style="fill:#FFFFFF;" points="15.973,-35.104 25.572,-40.962 25.572,-41.862 6.373,-41.862 6.373,-40.962 				"/>
			</g>
		</g>
	</g>
</g>
<g>
	<g>
		<g>
			<path style="fill:#FFFFFF;" d="M56.657-20.788c-8.824,0-16-7.178-16-16c0-8.824,7.176-16,16-16c8.82,0,16,7.176,16,16
				C72.657-27.966,65.478-20.788,56.657-20.788z M56.657-51.56c-8.146,0-14.773,6.626-14.773,14.772
				c0,8.144,6.627,14.771,14.773,14.771c8.143,0,14.771-6.627,14.771-14.771C71.429-44.934,64.8-51.56,56.657-51.56z"/>
		</g>
		<g>
			<path style="fill:#FFFFFF;" d="M46.038-39.147l1.227,4.115l0.977-3.195H49.2l0.951,3.195l1.258-4.115h1.004l-1.791,5.822h-0.947
				l-0.961-3.186l-0.98,3.186h-0.941l-1.76-5.822H46.038z"/>
			<path style="fill:#FFFFFF;" d="M54.081-39.147l1.227,4.115l0.973-3.195h0.961l0.949,3.195l1.26-4.115h1.008l-1.795,5.822h-0.947
				l-0.961-3.186l-0.98,3.186h-0.941l-1.76-5.822H54.081z"/>
			<path style="fill:#FFFFFF;" d="M62.122-39.147l1.227,4.115l0.977-3.195h0.959l0.949,3.195l1.26-4.115h1.006l-1.793,5.822h-0.947
				l-0.961-3.186l-0.982,3.186h-0.939l-1.76-5.822H62.122z"/>
		</g>
	</g>
</g>
<g>
	<g>
		<g>
			<path style="fill:#FFFFFF;" d="M16.264,33.977c-8.547,0-15.499-6.953-15.499-15.5c0-8.546,6.952-15.5,15.499-15.5
				c8.549,0,15.502,6.954,15.502,15.5C31.766,27.023,24.813,33.977,16.264,33.977z M16.264,4.167c-7.891,0-14.31,6.418-14.31,14.31
				c0,7.89,6.419,14.311,14.31,14.311c7.892,0,14.312-6.421,14.312-14.311C30.576,10.585,24.156,4.167,16.264,4.167z"/>
		</g>
	</g>
	<g>
		<g>
			<g>
				<polygon style="fill:#FFFFFF;" points="16.239,20.98 6.939,15.31 6.939,23.736 25.539,23.736 25.539,15.31 				"/>
			</g>
			<g>
				<polygon style="fill:#FFFFFF;" points="16.239,19.625 25.539,13.951 25.539,13.08 6.939,13.08 6.939,13.951 				"/>
			</g>
		</g>
	</g>
</g>
<g>
	<g>
		<g>
			<path style="fill:#FFFFFF;" d="M55.653,33.496c-8.548,0-15.5-6.953-15.5-15.5c0-8.549,6.952-15.5,15.5-15.5
				c8.545,0,15.5,6.952,15.5,15.5C71.154,26.542,64.198,33.496,55.653,33.496z M55.653,3.685c-7.892,0-14.312,6.418-14.312,14.311
				c0,7.89,6.42,14.309,14.312,14.309c7.889,0,14.31-6.419,14.31-14.309C69.963,10.103,63.542,3.685,55.653,3.685z"/>
		</g>
		<g>
			<path style="fill:#FFFFFF;" d="M45.366,15.709l1.188,3.987l0.946-3.096h0.929l0.921,3.096l1.218-3.987h0.973l-1.735,5.641h-0.917
				l-0.931-3.087l-0.95,3.087h-0.912l-1.705-5.641H45.366z"/>
			<path style="fill:#FFFFFF;" d="M53.158,15.709l1.188,3.987l0.942-3.096h0.931l0.919,3.096l1.22-3.987h0.977l-1.739,5.641h-0.918
				l-0.931-3.087l-0.95,3.087h-0.912l-1.705-5.641H53.158z"/>
			<path style="fill:#FFFFFF;" d="M60.948,15.709l1.188,3.987l0.946-3.096h0.929l0.92,3.096l1.221-3.987h0.974l-1.737,5.641h-0.917
				l-0.931-3.087l-0.952,3.087h-0.911l-1.705-5.641H60.948z"/>
		</g>
	</g>
</g>
<g>
	<g>
		<g>
			<g>
				<path style="fill:#FFFFFF;" d="M230.842-70.671c-8.547,0-15.498-6.953-15.498-15.5c0-8.546,6.951-15.5,15.498-15.5
					c8.549,0,15.502,6.954,15.502,15.5C246.344-77.624,239.391-70.671,230.842-70.671z M230.842-100.481
					c-7.891,0-14.311,6.418-14.311,14.31c0,7.89,6.42,14.311,14.311,14.311c7.893,0,14.312-6.421,14.312-14.311
					C245.154-94.062,238.734-100.481,230.842-100.481z"/>
			</g>
		</g>
		<g>
			<g>
				<g>
					<polygon style="fill:#FFFFFF;" points="230.816,-83.667 221.518,-89.338 221.518,-80.911 240.117,-80.911 240.117,-89.338 
											"/>
				</g>
				<g>
					<polygon style="fill:#FFFFFF;" points="230.816,-85.022 240.117,-90.696 240.117,-91.567 221.518,-91.567 221.518,-90.696 
											"/>
				</g>
			</g>
		</g>
	</g>
	<g>
		<g>
			<g>
				<path style="fill:#FFFFFF;" d="M270.23-71.152c-8.548,0-15.5-6.953-15.5-15.5c0-8.549,6.952-15.5,15.5-15.5
					c8.545,0,15.501,6.952,15.501,15.5C285.731-78.105,278.775-71.152,270.23-71.152z M270.23-100.963
					c-7.892,0-14.312,6.418-14.312,14.311c0,7.89,6.42,14.309,14.312,14.309c7.889,0,14.311-6.419,14.311-14.309
					C284.541-94.544,278.119-100.963,270.23-100.963z"/>
			</g>
			<g>
				<path style="fill:#FFFFFF;" d="M259.943-88.938l1.188,3.987l0.946-3.096h0.93l0.921,3.096l1.218-3.987h0.973l-1.734,5.641
					h-0.918l-0.931-3.087l-0.95,3.087h-0.912l-1.705-5.641H259.943z"/>
				<path style="fill:#FFFFFF;" d="M267.736-88.938l1.188,3.987l0.941-3.096h0.932l0.92,3.096l1.22-3.987h0.977l-1.739,5.641h-0.918
					l-0.93-3.087l-0.95,3.087h-0.912l-1.705-5.641H267.736z"/>
				<path style="fill:#FFFFFF;" d="M275.525-88.938l1.188,3.987l0.946-3.096h0.928l0.92,3.096l1.221-3.987h0.975l-1.736,5.641
					h-0.918l-0.932-3.087l-0.951,3.087h-0.91l-1.705-5.641H275.525z"/>
			</g>
		</g>
	</g>
	<g>
		<g>
			<path style="fill:#FFFFFF;" d="M230.844-34.356c-8.549,0-15.5-6.955-15.5-15.5c0-8.549,6.951-15.5,15.5-15.5
				c8.547,0,15.5,6.951,15.5,15.5C246.344-41.312,239.391-34.356,230.844-34.356z M230.844-64.169
				c-7.893,0-14.312,6.418-14.312,14.312c0,7.891,6.42,14.309,14.312,14.309c7.889,0,14.311-6.418,14.311-14.309
				C245.154-57.751,238.732-64.169,230.844-64.169z"/>
		</g>
		<g>
			<path style="fill:#FFFFFF;" d="M246.174-38.79c0,3.02-2.449,5.465-5.469,5.465c-3.018,0-5.466-2.445-5.466-5.465
				c0-3.021,2.448-5.465,5.466-5.465C243.725-44.255,246.174-41.812,246.174-38.79z"/>
		</g>
		<g>
			<path style="fill:#FFFFFF;" d="M236.129-57.925v-1.541h-4.318h-1.544v1.541v1.545v1.539v8.48
				c-0.432-0.242-0.933-0.385-1.465-0.385c-1.661,0-3.007,1.35-3.007,3.008c0,1.664,1.346,3.008,3.007,3.008
				s3.009-1.344,3.009-3.008v-11.104h4.318v-1.539h-4.318v-1.545H236.129z"/>
		</g>
		<g>
			<g>
				<rect x="240.111" y="-42.04" style="fill:#007E84;" width="1.188" height="3.941"/>
			</g>
			<g>
				<g>
					<polygon style="fill:#007E84;" points="238.927,-38.62 240.705,-35.54 242.484,-38.62 					"/>
				</g>
			</g>
		</g>
	</g>
	<g>
		<g>
			<g>
				<g>
					<g>
						<path style="fill:#FFFFFF;" d="M309.619-70.858c-8.549,0-15.5-6.956-15.5-15.5c0-8.548,6.951-15.5,15.5-15.5
							c8.547,0,15.5,6.952,15.5,15.5C325.119-77.814,318.166-70.858,309.619-70.858z M309.619-100.672
							c-7.893,0-14.312,6.419-14.312,14.313c0,7.89,6.42,14.309,14.312,14.309c7.889,0,14.311-6.419,14.311-14.309
							C323.93-94.253,317.508-100.672,309.619-100.672z"/>
					</g>
					<g>
						<circle style="fill:#FFFFFF;" cx="319.481" cy="-75.292" r="5.468"/>
					</g>
					<g>
						<g>
							<rect x="318.887" y="-78.543" style="fill:#007E84;" width="1.188" height="3.941"/>
						</g>
						<g>
							<g>
								<polygon style="fill:#007E84;" points="317.701,-75.121 319.48,-72.042 321.258,-75.121 								"/>
							</g>
						</g>
					</g>
					<g>
						<g>
							<rect x="300.379" y="-90.385" style="fill:#FFFFFF;" width="16.047" height="9.956"/>
						</g>
						<g>
							
								<rect x="299.914" y="-94.776" transform="matrix(0.9729 -0.2312 0.2312 0.9729 30.0142 68.6492)" style="fill:#FFFFFF;" width="16.048" height="2.056"/>
						</g>
						<g>
							<polygon style="fill:#007E84;" points="306.854,-88.625 306.854,-82.189 311.49,-85.407 							"/>
						</g>
					</g>
				</g>
			</g>
		</g>
	</g>
	<g>
		<g>
			<g>
				<path style="fill:#FFFFFF;" d="M349.006-70.858c-8.549,0-15.5-6.953-15.5-15.5c0-8.547,6.951-15.5,15.5-15.5
					c8.547,0,15.5,6.953,15.5,15.5C364.506-77.811,357.553-70.858,349.006-70.858z M349.006-100.67
					c-7.893,0-14.311,6.42-14.311,14.311c0,7.89,6.418,14.312,14.311,14.312c7.889,0,14.311-6.422,14.311-14.312
					C363.316-94.25,356.895-100.67,349.006-100.67z"/>
			</g>
			<g>
				<polygon style="fill:#FFFFFF;" points="355.615,-78.567 351.244,-78.567 347.23,-78.567 345.467,-79.826 345.467,-78.914 
					342.166,-78.914 340.613,-88.392 345.467,-88.392 345.467,-87.4 348.799,-91.583 348.799,-95.103 351.312,-95.103 
					352.383,-92.211 351.854,-88.848 357.402,-88.848 				"/>
			</g>
		</g>
	</g>
	<g>
		<g>
			<g>
				<g>
					<path style="fill:#FFFFFF;" d="M305.365-54.544c-0.18-0.053-0.367-0.523-0.504-0.684c-0.18-0.213-0.396-0.398-0.654-0.494
						c-0.686-0.25-1.367,0.15-1.844,0.629c-1.182,1.178-1.883,2.918-2.395,4.494c-0.621,1.926-1.082,4.123-0.729,6.148
						c0.02,0.113,0.041,0.223,0.066,0.334c0.297,1.299,1.635,3.049,3.004,1.92c1.162-0.941,1.826-2.619,2.42-3.963
						c0.127-0.277,0.25-0.561,0.373-0.84c0.064-0.139,0.127-0.279,0.199-0.412c0.115-0.209,0.188-0.18,0.432-0.18
						c1.359,0,2.721,0,4.084,0c0.672,0,1.344,0,2.02,0c0.336,0,0.672,0,1.008,0c0.17,0,0.338,0,0.508,0
						c0.217,0,0.504-0.111,0.504,0.152c0.049,0.684,0.303,1.359,0.584,1.973c0.555,1.201,1.363,2.5,2.496,3.199
						c1.281,0.795,2.334-0.047,2.795-1.342c0.576-1.621,0.416-3.516,0.131-5.182c-0.299-1.762-0.814-3.561-1.695-5.109
						c-0.457-0.803-1.08-1.582-1.953-1.906c-0.746-0.281-1.568-0.123-2.094,0.514c-0.141,0.166-0.254,0.357-0.344,0.557
						c-0.131,0.285-0.516,0.262-0.809,0.295C312.119-54.345,306.625-54.192,305.365-54.544z M305.982-50.435h-1.457v1.5h-1.604v-1.5
						h-1.459v-1.658h1.459v-1.5h1.604v1.5h1.457V-50.435z M315.621-53.187c0.414,0,0.752,0.348,0.752,0.777
						s-0.336,0.779-0.752,0.779c-0.418,0-0.756-0.35-0.756-0.779S315.203-53.187,315.621-53.187z M314.191-50.161
						c-0.416,0-0.752-0.346-0.752-0.775s0.336-0.777,0.752-0.777c0.418,0,0.756,0.348,0.756,0.777S314.609-50.161,314.191-50.161z
						 M315.621-48.687c-0.418,0-0.756-0.35-0.756-0.779c0-0.428,0.338-0.775,0.756-0.775c0.414,0,0.752,0.348,0.752,0.775
						C316.373-49.036,316.035-48.687,315.621-48.687z M317.047-50.161c-0.416,0-0.754-0.346-0.754-0.775s0.338-0.777,0.754-0.777
						s0.754,0.348,0.754,0.777S317.463-50.161,317.047-50.161z"/>
				</g>
				<g>
					<g>
						<path style="fill:#FFFFFF;" d="M309.619-34.356c-8.549,0-15.5-6.951-15.5-15.5c0-8.547,6.951-15.5,15.5-15.5
							c8.547,0,15.5,6.953,15.5,15.5C325.119-41.308,318.166-34.356,309.619-34.356z M309.619-64.169
							c-7.893,0-14.312,6.422-14.312,14.312c0,7.893,6.42,14.312,14.312,14.312c7.889,0,14.311-6.42,14.311-14.312
							C323.93-57.747,317.508-64.169,309.619-64.169z"/>
					</g>
				</g>
			</g>
		</g>
		<g>
			<g>
				<g>
					<path style="fill:#FFFFFF;" d="M270.23-34.356c-8.548,0-15.5-6.955-15.5-15.5c0-8.547,6.952-15.5,15.5-15.5
						c8.547,0,15.501,6.953,15.501,15.5C285.731-41.312,278.777-34.356,270.23-34.356z M270.23-64.169
						c-7.892,0-14.312,6.42-14.312,14.312c0,7.891,6.42,14.311,14.312,14.311c7.889,0,14.311-6.42,14.311-14.311
						C284.541-57.749,278.119-64.169,270.23-64.169z"/>
				</g>
			</g>
			<g>
				<g>
					<circle style="fill:#FFFFFF;" cx="280.094" cy="-38.79" r="5.467"/>
				</g>
			</g>
			<g>
				<g>
					<rect x="279.499" y="-42.04" style="fill:#007E84;" width="1.188" height="3.941"/>
				</g>
				<g>
					<g>
						<polygon style="fill:#007E84;" points="278.314,-38.618 280.093,-35.538 281.871,-38.618 						"/>
					</g>
				</g>
			</g>
			<g>
				<g>
					<g>
						<rect x="261.312" y="-55.46" style="fill:#FFFFFF;" width="5.833" height="5.832"/>
					</g>
					<g>
						<rect x="268.214" y="-55.46" style="fill:#FFFFFF;" width="5.832" height="5.832"/>
					</g>
					<g>
						<rect x="275.117" y="-55.46" style="fill:#FFFFFF;" width="5.829" height="5.832"/>
					</g>
					<g>
						<rect x="261.312" y="-48.558" style="fill:#FFFFFF;" width="5.833" height="5.832"/>
					</g>
					<g>
						<rect x="268.214" y="-48.558" style="fill:#FFFFFF;" width="5.832" height="5.832"/>
					</g>
				</g>
			</g>
		</g>
	</g>
	<g>
		<g>
			<g>
				<path style="fill:#FFFFFF;" d="M349.006-33.364c-8.549,0-15.5-6.951-15.5-15.5c0-8.547,6.951-15.5,15.5-15.5
					c8.547,0,15.5,6.953,15.5,15.5C364.506-40.315,357.553-33.364,349.006-33.364z M349.006-63.177
					c-7.893,0-14.311,6.422-14.311,14.312c0,7.893,6.418,14.311,14.311,14.311c7.889,0,14.311-6.418,14.311-14.311
					C363.316-56.755,356.895-63.177,349.006-63.177z"/>
			</g>
		</g>
		<g>
			<g>
				<g>
					<rect x="342.051" y="-43.021" style="fill:#FFFFFF;" width="13.906" height="4.213"/>
				</g>
				<g>
					<rect x="342.051" y="-58.44" style="fill:#FFFFFF;" width="13.906" height="14.061"/>
				</g>
			</g>
		</g>
		<g>
			<g>
				<circle style="fill:#007E84;" cx="349.006" cy="-53.343" r="2.512"/>
			</g>
			<g>
				<path style="fill:#007E84;" d="M353.398-46.89c0-2.424-1.967-4.391-4.393-4.391c-2.428,0-4.393,1.967-4.393,4.391H353.398z"/>
			</g>
		</g>
		<g>
			<circle style="fill:#007E84;" cx="349.006" cy="-41.513" r="1.076"/>
		</g>
	</g>
</g>
</svg>
