<?xml version="1.0" encoding="utf-8"?>
<!-- Generator: Adobe Illustrator 16.0.4, SVG Export Plug-In . SVG Version: 6.00 Build 0)  -->
<!DOCTYPE svg PUBLIC "-//W3C//DTD SVG 1.1//EN" "http://www.w3.org/Graphics/SVG/1.1/DTD/svg11.dtd">
<svg version="1.1" id="Layer_1" xmlns="http://www.w3.org/2000/svg" xmlns:xlink="http://www.w3.org/1999/xlink" x="0px" y="0px"
	 width="150px" height="75px" viewBox="0 0 150 75" style="enable-background:new 0 0 150 75;" xml:space="preserve">
<g>
	<g>
		<g>
			<path style="fill:#FFFFFF;" d="M16.264,33.977c-8.547,0-15.499-6.953-15.499-15.5c0-8.546,6.952-15.5,15.499-15.5
				c8.549,0,15.502,6.954,15.502,15.5C31.766,27.023,24.813,33.977,16.264,33.977z M16.264,4.167c-7.891,0-14.31,6.418-14.31,14.31
				c0,7.89,6.419,14.311,14.31,14.311c7.892,0,14.312-6.421,14.312-14.311C30.576,10.585,24.156,4.167,16.264,4.167z"/>
		</g>
	</g>
	<g>
		<g>
			<g>
				<polygon style="fill:#FFFFFF;" points="16.239,20.98 6.939,15.31 6.939,23.736 25.539,23.736 25.539,15.31 				"/>
			</g>
			<g>
				<polygon style="fill:#FFFFFF;" points="16.239,19.625 25.539,13.951 25.539,13.08 6.939,13.08 6.939,13.951 				"/>
			</g>
		</g>
	</g>
</g>
<g>
	<g>
		<g>
			<path style="fill:#FFFFFF;" d="M55.653,33.496c-8.548,0-15.5-6.953-15.5-15.5c0-8.549,6.952-15.5,15.5-15.5
				c8.545,0,15.5,6.952,15.5,15.5C71.154,26.542,64.198,33.496,55.653,33.496z M55.653,3.685c-7.892,0-14.312,6.418-14.312,14.311
				c0,7.89,6.42,14.309,14.312,14.309c7.889,0,14.31-6.419,14.31-14.309C69.963,10.103,63.542,3.685,55.653,3.685z"/>
		</g>
		<g>
			<path style="fill:#FFFFFF;" d="M45.366,15.709l1.188,3.987l0.946-3.096h0.929l0.921,3.096l1.218-3.987h0.973l-1.735,5.641h-0.917
				l-0.931-3.087l-0.95,3.087h-0.912l-1.705-5.641H45.366z"/>
			<path style="fill:#FFFFFF;" d="M53.158,15.709l1.188,3.987l0.942-3.096h0.931l0.919,3.096l1.22-3.987h0.977l-1.739,5.641h-0.918
				l-0.931-3.087l-0.95,3.087h-0.912l-1.705-5.641H53.158z"/>
			<path style="fill:#FFFFFF;" d="M60.948,15.709l1.188,3.987l0.946-3.096h0.929l0.92,3.096l1.221-3.987h0.974l-1.737,5.641h-0.917
				l-0.931-3.087l-0.952,3.087h-0.911l-1.705-5.641H60.948z"/>
		</g>
	</g>
</g>
<g>
	<g>
		<path style="fill:#FFFFFF;" d="M16.266,70.291c-8.549,0-15.5-6.955-15.5-15.5c0-8.549,6.952-15.5,15.5-15.5
			c8.547,0,15.5,6.951,15.5,15.5C31.766,63.336,24.813,70.291,16.266,70.291z M16.266,40.479c-7.893,0-14.312,6.418-14.312,14.312
			c0,7.891,6.419,14.309,14.312,14.309c7.888,0,14.31-6.418,14.31-14.309C30.576,46.896,24.154,40.479,16.266,40.479z"/>
	</g>
	<g>
		<path style="fill:#FFFFFF;" d="M31.596,65.857c0,3.02-2.449,5.465-5.468,5.465c-3.018,0-5.466-2.445-5.466-5.465
			c0-3.021,2.448-5.465,5.466-5.465C29.147,60.393,31.596,62.836,31.596,65.857z"/>
	</g>
	<g>
		<path style="fill:#FFFFFF;" d="M21.551,46.723v-1.541h-4.318h-1.544v1.541v1.545v1.539v8.48c-0.432-0.242-0.933-0.385-1.465-0.385
			c-1.661,0-3.006,1.35-3.006,3.008c0,1.664,1.345,3.008,3.006,3.008c1.662,0,3.009-1.344,3.009-3.008V49.807h4.318v-1.539h-4.318
			v-1.545H21.551z"/>
	</g>
	<g>
		<g>
			<rect x="25.534" y="62.607" style="fill:#007E84;" width="1.188" height="3.941"/>
		</g>
		<g>
			<g>
				<polygon style="fill:#007E84;" points="24.349,66.027 26.128,69.107 27.907,66.027 				"/>
			</g>
		</g>
	</g>
</g>
<g>
	<g>
		<g>
			<g>
				<g>
					<path style="fill:#FFFFFF;" d="M95.041,33.789c-8.549,0-15.5-6.956-15.5-15.5c0-8.548,6.951-15.5,15.5-15.5
						c8.547,0,15.5,6.952,15.5,15.5C110.541,26.833,103.588,33.789,95.041,33.789z M95.041,3.976
						c-7.893,0-14.312,6.419-14.312,14.313c0,7.89,6.42,14.309,14.312,14.309c7.889,0,14.311-6.419,14.311-14.309
						C109.352,10.395,102.93,3.976,95.041,3.976z"/>
				</g>
				<g>
					<circle style="fill:#FFFFFF;" cx="104.904" cy="29.355" r="5.467"/>
				</g>
				<g>
					<g>
						<rect x="104.309" y="26.104" style="fill:#007E84;" width="1.188" height="3.941"/>
					</g>
					<g>
						<g>
							<polygon style="fill:#007E84;" points="103.124,29.526 104.902,32.605 106.681,29.526 							"/>
						</g>
					</g>
				</g>
				<g>
					<g>
						<rect x="85.802" y="14.262" style="fill:#FFFFFF;" width="16.047" height="9.956"/>
					</g>
					<g>
						
							<rect x="85.336" y="9.872" transform="matrix(0.9729 -0.2312 0.2312 0.9729 0.0092 21.8781)" style="fill:#FFFFFF;" width="16.048" height="2.056"/>
					</g>
					<g>
						<polygon style="fill:#007E84;" points="92.275,16.022 92.275,22.458 96.912,19.241 						"/>
					</g>
				</g>
			</g>
		</g>
	</g>
</g>
<g>
	<g>
		<g>
			<path style="fill:#FFFFFF;" d="M134.429,33.789c-8.549,0-15.501-6.953-15.501-15.5c0-8.547,6.952-15.5,15.501-15.5
				c8.546,0,15.5,6.953,15.5,15.5C149.929,26.836,142.975,33.789,134.429,33.789z M134.429,3.978
				c-7.893,0-14.312,6.42-14.312,14.311c0,7.89,6.419,14.312,14.312,14.312c7.888,0,14.311-6.422,14.311-14.312
				C148.739,10.397,142.316,3.978,134.429,3.978z"/>
		</g>
		<g>
			<polygon style="fill:#FFFFFF;" points="141.038,26.081 136.667,26.081 132.652,26.081 130.889,24.822 130.889,25.733 
				127.589,25.733 126.035,16.256 130.889,16.256 130.889,17.248 134.221,13.064 134.221,9.545 136.735,9.545 137.805,12.436 
				137.276,15.799 142.824,15.799 			"/>
		</g>
	</g>
</g>
<g>
	<g>
		<g>
			<g>
				<path style="fill:#FFFFFF;" d="M90.787,50.104c-0.18-0.053-0.367-0.523-0.503-0.684c-0.18-0.213-0.397-0.398-0.655-0.494
					c-0.685-0.25-1.366,0.15-1.844,0.629c-1.182,1.178-1.883,2.918-2.395,4.494c-0.621,1.926-1.082,4.123-0.729,6.148
					c0.02,0.113,0.042,0.223,0.066,0.334c0.298,1.299,1.636,3.049,3.004,1.92c1.163-0.941,1.826-2.619,2.421-3.963
					c0.126-0.277,0.249-0.561,0.373-0.84c0.063-0.139,0.127-0.279,0.199-0.412c0.115-0.209,0.187-0.18,0.431-0.18
					c1.36,0,2.721,0,4.084,0c0.672,0,1.345,0,2.02,0c0.336,0,0.673,0,1.009,0c0.169,0,0.338,0,0.507,0
					c0.217,0,0.505-0.111,0.505,0.152c0.049,0.684,0.302,1.359,0.584,1.973c0.555,1.201,1.363,2.5,2.496,3.199
					c1.28,0.795,2.334-0.047,2.794-1.342c0.577-1.621,0.416-3.516,0.131-5.182c-0.299-1.762-0.813-3.561-1.695-5.109
					c-0.456-0.803-1.079-1.582-1.953-1.906c-0.745-0.281-1.567-0.123-2.094,0.514c-0.14,0.166-0.254,0.357-0.344,0.557
					c-0.131,0.285-0.515,0.262-0.808,0.295C97.542,50.303,92.048,50.455,90.787,50.104z M91.404,54.213h-1.456v1.5h-1.604v-1.5
					h-1.459v-1.658h1.459v-1.5h1.604v1.5h1.456V54.213z M101.043,51.461c0.415,0,0.753,0.348,0.753,0.777s-0.337,0.779-0.753,0.779
					c-0.417,0-0.755-0.35-0.755-0.779S100.626,51.461,101.043,51.461z M99.614,54.486c-0.417,0-0.753-0.346-0.753-0.775
					s0.336-0.777,0.753-0.777s0.755,0.348,0.755,0.777S100.031,54.486,99.614,54.486z M101.043,55.961
					c-0.417,0-0.755-0.35-0.755-0.779c0-0.428,0.338-0.775,0.755-0.775c0.415,0,0.753,0.348,0.753,0.775
					C101.796,55.611,101.458,55.961,101.043,55.961z M102.469,54.486c-0.415,0-0.753-0.346-0.753-0.775s0.338-0.777,0.753-0.777
					c0.417,0,0.754,0.348,0.754,0.777S102.886,54.486,102.469,54.486z"/>
			</g>
			<g>
				<g>
					<path style="fill:#FFFFFF;" d="M95.041,70.291c-8.549,0-15.5-6.951-15.5-15.5c0-8.547,6.951-15.5,15.5-15.5
						c8.547,0,15.5,6.953,15.5,15.5C110.541,63.34,103.588,70.291,95.041,70.291z M95.041,40.479
						c-7.893,0-14.312,6.422-14.312,14.312c0,7.893,6.42,14.312,14.312,14.312c7.889,0,14.311-6.42,14.311-14.312
						C109.352,46.9,102.93,40.479,95.041,40.479z"/>
				</g>
			</g>
		</g>
	</g>
	<g>
		<g>
			<g>
				<path style="fill:#FFFFFF;" d="M55.653,70.291c-8.548,0-15.5-6.955-15.5-15.5c0-8.547,6.952-15.5,15.5-15.5
					c8.547,0,15.5,6.953,15.5,15.5C71.154,63.336,64.2,70.291,55.653,70.291z M55.653,40.479c-7.892,0-14.312,6.42-14.312,14.312
					c0,7.891,6.42,14.311,14.312,14.311c7.889,0,14.31-6.42,14.31-14.311C69.963,46.898,63.542,40.479,55.653,40.479z"/>
			</g>
		</g>
		<g>
			<g>
				<circle style="fill:#FFFFFF;" cx="65.516" cy="65.857" r="5.467"/>
			</g>
		</g>
		<g>
			<g>
				<rect x="64.921" y="62.607" style="fill:#007E84;" width="1.188" height="3.941"/>
			</g>
			<g>
				<g>
					<polygon style="fill:#007E84;" points="63.736,66.029 65.515,69.109 67.294,66.029 					"/>
				</g>
			</g>
		</g>
		<g>
			<g>
				<g>
					<rect x="46.734" y="49.188" style="fill:#FFFFFF;" width="5.833" height="5.832"/>
				</g>
				<g>
					<rect x="53.636" y="49.188" style="fill:#FFFFFF;" width="5.832" height="5.832"/>
				</g>
				<g>
					<rect x="60.539" y="49.188" style="fill:#FFFFFF;" width="5.83" height="5.832"/>
				</g>
				<g>
					<rect x="46.734" y="56.09" style="fill:#FFFFFF;" width="5.833" height="5.832"/>
				</g>
				<g>
					<rect x="53.636" y="56.09" style="fill:#FFFFFF;" width="5.832" height="5.832"/>
				</g>
			</g>
		</g>
	</g>
</g>
<g>
	<g>
		<g>
			<path style="fill:#FFFFFF;" d="M134.429,71.283c-8.549,0-15.501-6.951-15.501-15.5c0-8.547,6.952-15.5,15.501-15.5
				c8.546,0,15.5,6.953,15.5,15.5C149.929,64.332,142.975,71.283,134.429,71.283z M134.429,41.471
				c-7.893,0-14.312,6.422-14.312,14.312c0,7.893,6.419,14.311,14.312,14.311c7.888,0,14.311-6.418,14.311-14.311
				C148.739,47.893,142.316,41.471,134.429,41.471z"/>
		</g>
	</g>
	<g>
		<g>
			<g>
				<rect x="127.473" y="61.627" style="fill:#FFFFFF;" width="13.907" height="4.213"/>
			</g>
			<g>
				<rect x="127.473" y="46.207" style="fill:#FFFFFF;" width="13.907" height="14.061"/>
			</g>
		</g>
	</g>
	<g>
		<g>
			<circle style="fill:#007E84;" cx="134.428" cy="51.305" r="2.512"/>
		</g>
		<g>
			<path style="fill:#007E84;" d="M138.82,57.758c0-2.424-1.966-4.391-4.392-4.391c-2.428,0-4.394,1.967-4.394,4.391H138.82z"/>
		</g>
	</g>
	<g>
		<circle style="fill:#007E84;" cx="134.428" cy="63.135" r="1.077"/>
	</g>
</g>
</svg>
