<?xml version="1.0" encoding="utf-8"?>
<!-- Generator: Adobe Illustrator 16.0.4, SVG Export Plug-In . SVG Version: 6.00 Build 0)  -->
<!DOCTYPE svg PUBLIC "-//W3C//DTD SVG 1.1//EN" "http://www.w3.org/Graphics/SVG/1.1/DTD/svg11.dtd">
<svg version="1.1" id="Layer_1" xmlns="http://www.w3.org/2000/svg" xmlns:xlink="http://www.w3.org/1999/xlink" x="0px" y="0px"
	 width="150px" height="75px" viewBox="0 0 150 75" style="enable-background:new 0 0 150 75;" xml:space="preserve">
<g>
	<g>
		<g>
			<path style="fill:#FFFFFF;" d="M16.264,33.977c-8.547,0-15.499-6.953-15.499-15.5c0-8.546,6.952-15.5,15.499-15.5
				c8.549,0,15.502,6.954,15.502,15.5C31.766,27.023,24.813,33.977,16.264,33.977z M16.264,4.167c-7.891,0-14.31,6.418-14.31,14.31
				c0,7.89,6.419,14.311,14.31,14.311c7.892,0,14.312-6.421,14.312-14.311C30.576,10.585,24.156,4.167,16.264,4.167z"/>
		</g>
	</g>
	<g>
		<g>
			<g>
				<polygon style="fill:#FFFFFF;" points="16.239,20.98 6.939,15.31 6.939,23.736 25.539,23.736 25.539,15.31 				"/>
			</g>
			<g>
				<polygon style="fill:#FFFFFF;" points="16.239,19.625 25.539,13.951 25.539,13.08 6.939,13.08 6.939,13.951 				"/>
			</g>
		</g>
	</g>
</g>
<g>
	<g>
		<g>
			<path style="fill:#FFFFFF;" d="M55.653,33.496c-8.548,0-15.5-6.953-15.5-15.5c0-8.549,6.952-15.5,15.5-15.5
				c8.545,0,15.5,6.952,15.5,15.5C71.154,26.542,64.198,33.496,55.653,33.496z M55.653,3.685c-7.892,0-14.312,6.418-14.312,14.311
				c0,7.89,6.42,14.309,14.312,14.309c7.889,0,14.31-6.419,14.31-14.309C69.963,10.103,63.542,3.685,55.653,3.685z"/>
		</g>
		<g>
			<path style="fill:#FFFFFF;" d="M45.366,15.709l1.188,3.987l0.946-3.096h0.929l0.921,3.096l1.218-3.987h0.973l-1.735,5.641h-0.917
				l-0.931-3.087l-0.95,3.087h-0.912l-1.705-5.641H45.366z"/>
			<path style="fill:#FFFFFF;" d="M53.158,15.709l1.188,3.987l0.942-3.096h0.931l0.919,3.096l1.22-3.987h0.977l-1.739,5.641h-0.918
				l-0.931-3.087l-0.95,3.087h-0.912l-1.705-5.641H53.158z"/>
			<path style="fill:#FFFFFF;" d="M60.948,15.709l1.188,3.987l0.946-3.096h0.929l0.92,3.096l1.221-3.987h0.974l-1.737,5.641h-0.917
				l-0.931-3.087l-0.952,3.087h-0.911l-1.705-5.641H60.948z"/>
		</g>
	</g>
</g>
<g>
	<g>
		<path style="fill:#FFFFFF;" d="M16.266,70.291c-8.549,0-15.5-6.955-15.5-15.5c0-8.549,6.952-15.5,15.5-15.5
			c8.547,0,15.5,6.951,15.5,15.5C31.766,63.336,24.813,70.291,16.266,70.291z M16.266,40.479c-7.893,0-14.312,6.418-14.312,14.312
			c0,7.891,6.419,14.309,14.312,14.309c7.888,0,14.31-6.418,14.31-14.309C30.576,46.896,24.154,40.479,16.266,40.479z"/>
	</g>
	<g>
		<path style="fill:#FFFFFF;" d="M31.596,65.857c0,3.02-2.449,5.465-5.468,5.465c-3.018,0-5.466-2.445-5.466-5.465
			c0-3.021,2.448-5.465,5.466-5.465C29.147,60.393,31.596,62.836,31.596,65.857z"/>
	</g>
	<g>
		<path style="fill:#FFFFFF;" d="M21.551,46.723v-1.541h-4.318h-1.544v1.541v1.545v1.539v8.48c-0.432-0.242-0.933-0.385-1.465-0.385
			c-1.661,0-3.006,1.35-3.006,3.008c0,1.664,1.345,3.008,3.006,3.008c1.662,0,3.009-1.344,3.009-3.008V49.807h4.318v-1.539h-4.318
			v-1.545H21.551z"/>
	</g>
	<g>
		<g>
			<rect x="25.534" y="62.607" style="fill:#007E84;" width="1.188" height="3.941"/>
		</g>
		<g>
			<g>
				<polygon style="fill:#007E84;" points="24.349,66.027 26.128,69.107 27.907,66.027 				"/>
			</g>
		</g>
	</g>
</g>
<g>
	<g>
		<g>
			<g>
				<g>
					<path style="fill:#FFFFFF;" d="M95.041,33.789c-8.549,0-15.5-6.956-15.5-15.5c0-8.548,6.951-15.5,15.5-15.5
						c8.547,0,15.5,6.952,15.5,15.5C110.541,26.833,103.588,33.789,95.041,33.789z M95.041,3.976
						c-7.893,0-14.312,6.419-14.312,14.313c0,7.89,6.42,14.309,14.312,14.309c7.889,0,14.311-6.419,14.311-14.309
						C109.352,10.395,102.93,3.976,95.041,3.976z"/>
				</g>
				<g>
					<circle style="fill:#FFFFFF;" cx="104.904" cy="29.355" r="5.467"/>
				</g>
				<g>
					<g>
						<rect x="104.309" y="26.104" style="fill:#007E84;" width="1.188" height="3.941"/>
					</g>
					<g>
						<g>
							<polygon style="fill:#007E84;" points="103.124,29.526 104.902,32.605 106.681,29.526 							"/>
						</g>
					</g>
				</g>
				<g>
					<g>
						<rect x="85.802" y="14.262" style="fill:#FFFFFF;" width="16.047" height="9.956"/>
					</g>
					<g>
						
							<rect x="85.336" y="9.872" transform="matrix(0.9729 -0.2312 0.2312 0.9729 0.0092 21.8781)" style="fill:#FFFFFF;" width="16.048" height="2.056"/>
					</g>
					<g>
						<polygon style="fill:#007E84;" points="92.275,16.022 92.275,22.458 96.912,19.241 						"/>
					</g>
				</g>
			</g>
		</g>
	</g>
</g>
<g>
	<g>
		<g>
			<path style="fill:#FFFFFF;" d="M134.429,33.789c-8.549,0-15.501-6.953-15.501-15.5c0-8.547,6.952-15.5,15.501-15.5
				c8.546,0,15.5,6.953,15.5,15.5C149.929,26.836,142.975,33.789,134.429,33.789z M134.429,3.978
				c-7.893,0-14.312,6.42-14.312,14.311c0,7.89,6.419,14.312,14.312,14.312c7.888,0,14.311-6.422,14.311-14.312
				C148.739,10.397,142.316,3.978,134.429,3.978z"/>
		</g>
		<g>
			<polygon style="fill:#FFFFFF;" points="141.038,26.081 136.667,26.081 132.652,26.081 130.889,24.822 130.889,25.733 
				127.589,25.733 126.035,16.256 130.889,16.256 130.889,17.248 134.221,13.064 134.221,9.545 136.735,9.545 137.805,12.436 
				137.276,15.799 142.824,15.799 			"/>
		</g>
	</g>
</g>
<g>
	<g>
		<g>
			<path style="fill:#FFFFFF;" d="M55.653,70.291c-8.548,0-15.5-6.955-15.5-15.5c0-8.547,6.952-15.5,15.5-15.5
				c8.547,0,15.5,6.953,15.5,15.5C71.154,63.336,64.2,70.291,55.653,70.291z M55.653,40.479c-7.892,0-14.312,6.42-14.312,14.312
				c0,7.891,6.42,14.311,14.312,14.311c7.889,0,14.31-6.42,14.31-14.311C69.963,46.898,63.542,40.479,55.653,40.479z"/>
		</g>
	</g>
	<g>
		<g>
			<circle style="fill:#FFFFFF;" cx="65.516" cy="65.857" r="5.467"/>
		</g>
	</g>
	<g>
		<g>
			<rect x="64.921" y="62.607" style="fill:#007E84;" width="1.188" height="3.941"/>
		</g>
		<g>
			<g>
				<polygon style="fill:#007E84;" points="63.736,66.029 65.515,69.109 67.294,66.029 				"/>
			</g>
		</g>
	</g>
	<g>
		<g>
			<g>
				<rect x="46.734" y="49.188" style="fill:#FFFFFF;" width="5.833" height="5.832"/>
			</g>
			<g>
				<rect x="53.636" y="49.188" style="fill:#FFFFFF;" width="5.832" height="5.832"/>
			</g>
			<g>
				<rect x="60.539" y="49.188" style="fill:#FFFFFF;" width="5.83" height="5.832"/>
			</g>
			<g>
				<rect x="46.734" y="56.09" style="fill:#FFFFFF;" width="5.833" height="5.832"/>
			</g>
			<g>
				<rect x="53.636" y="56.09" style="fill:#FFFFFF;" width="5.832" height="5.832"/>
			</g>
		</g>
	</g>
</g>
</svg>
