<?xml version="1.0" encoding="utf-8"?>
<!-- Generator: Adobe Illustrator 16.0.4, SVG Export Plug-In . SVG Version: 6.00 Build 0)  -->
<!DOCTYPE svg PUBLIC "-//W3C//DTD SVG 1.1//EN" "http://www.w3.org/Graphics/SVG/1.1/DTD/svg11.dtd">
<svg version="1.1" id="Layer_1" xmlns="http://www.w3.org/2000/svg" xmlns:xlink="http://www.w3.org/1999/xlink" x="0px" y="0px"
	 width="50px" height="50px" viewBox="0 0 50 50" style="enable-background:new 0 0 50 50;" xml:space="preserve">
<g id="XMLID_5_">
	<g>
		<path style="fill:#FFFFFF;" d="M45.443,7.355v25.21H4.429V7.355c0-1.431,1.167-2.592,2.598-2.592h35.819
			C44.277,4.763,45.443,5.924,45.443,7.355z M41.935,29.056V8.267H7.938v20.789H41.935z"/>
		<path style="fill:#FFFFFF;" d="M30.006,41.529l-1.033-3.046H25v-3.963h20.703l3.891,6.835c0.459,0.795,0.453,1.783-0.01,2.582
			c-0.469,0.805-1.324,1.299-2.251,1.299H25v-3.707H30.006z"/>
		<path style="fill:#FFFFFF;" d="M2.667,45.236c-0.927,0-1.782-0.494-2.251-1.299c-0.463-0.799-0.469-1.787-0.01-2.582l3.891-6.835
			H25v3.963h-3.973l-1.034,3.046H25v3.707H2.667z"/>
	</g>
	<g>
	</g>
</g>
</svg>
