<?xml version="1.0" encoding="utf-8"?>
<!-- Generator: Adobe Illustrator 16.0.4, SVG Export Plug-In . SVG Version: 6.00 Build 0)  -->
<!DOCTYPE svg PUBLIC "-//W3C//DTD SVG 1.1//EN" "http://www.w3.org/Graphics/SVG/1.1/DTD/svg11.dtd">
<svg version="1.1" id="Layer_1" xmlns="http://www.w3.org/2000/svg" xmlns:xlink="http://www.w3.org/1999/xlink" x="0px" y="0px"
	 width="50px" height="50px" viewBox="0 0 50 50" style="enable-background:new 0 0 50 50;" xml:space="preserve">
<path id="tablet-4-icon_3_" style="fill:#FFFFFF;" d="M25.685,38.783c0.011-0.043,0.026-0.082,0.04-0.123H5.476V10.013h38.978
	v17.192c2.661,0.977,4.571,4.492,5.445,7.213V9.043c0-2.142-1.733-3.877-3.872-3.877H3.902c-2.139,0-3.874,1.735-3.874,3.877v30.587
	c0,2.139,1.735,3.877,3.874,3.877h23.927C25.789,42.309,25.248,40.373,25.685,38.783z M26.473,23.248
	c1.326,0,2.604,0.843,3.022,2.25c-0.537-0.413-1.167-0.615-1.802-0.615c-0.642,0-1.29,0.205-1.856,0.608
	c-1.125,0.804-1.621,2.169-1.188,3.462c-1.746-1.25-1.754-3.862,0.005-5.121C25.215,23.433,25.848,23.248,26.473,23.248
	 M27.931,26.611c0.562,0,1.116,0.262,1.469,0.756l4.387,6.145c0.129,0.182,0.329,0.277,0.536,0.277c0.132,0,0.266-0.041,0.384-0.123
	c0.293-0.211,0.363-0.623,0.151-0.922l-1.08-1.516c0.489-0.125,1.083-0.271,1.738-0.432c0.091-0.023,0.184-0.033,0.272-0.033
	c0.365,0,0.717,0.174,0.935,0.48l0.883,1.24c0.132,0.18,0.334,0.277,0.54,0.277c0.13,0,0.267-0.039,0.381-0.121
	c0.298-0.213,0.366-0.625,0.155-0.92l-1.021-1.436c0.563-0.131,1.139-0.262,1.707-0.383c0.08-0.018,0.163-0.025,0.243-0.025
	c0.366,0,0.718,0.174,0.935,0.479l0.753,1.057c0.127,0.182,0.33,0.275,0.537,0.275c0.133,0,0.267-0.039,0.382-0.121
	c0.296-0.211,0.364-0.623,0.154-0.92l-0.842-1.184c0.17-0.033,0.338-0.061,0.502-0.09c0.226-0.039,0.441-0.059,0.642-0.059
	c1.359,0,2.198,0.859,3.126,2.164c2.392,3.357,1.729,5.721,4.137,9.102c-3.03,2.164-6.093,4.348-9.283,6.629
	c-5.013-3.738-9.339-4.936-10.736-5.404c-1.333-0.451-2.194-1.305-1.896-2.377c0.282-1.025,1.306-1.371,2.208-1.371
	c0.052,0,0.105,0.002,0.159,0.006c1.409,0.064,2.554,0.488,2.554,0.488l-6.477-9.09c-0.578-0.809-0.39-1.936,0.423-2.514
	C27.202,26.721,27.566,26.611,27.931,26.611"/>
</svg>
