<?xml version="1.0" encoding="utf-8"?>
<!-- Generator: Adobe Illustrator 16.0.4, SVG Export Plug-In . SVG Version: 6.00 Build 0)  -->
<!DOCTYPE svg PUBLIC "-//W3C//DTD SVG 1.1//EN" "http://www.w3.org/Graphics/SVG/1.1/DTD/svg11.dtd">
<svg version="1.1" id="Layer_1" xmlns="http://www.w3.org/2000/svg" xmlns:xlink="http://www.w3.org/1999/xlink" x="0px" y="0px"
	 width="50px" height="50px" viewBox="0 0 50 50" style="enable-background:new 0 0 50 50;" xml:space="preserve">
<g id="Your_Icon_3_">
	<path style="fill:#FFFFFF;" d="M5.117,38.846c0.438-4.136,1.799-8.826,3.645-12.549c1.498-3.02,3.899-6.618,6.829-6.641
		c0.109-0.01,0.22-0.017,0.331-0.017c1.071,0,2.581,0.487,3.865,2.714c0.622,0.141,1.383,0.218,2.285,0.235V1.297
		c0-0.756-0.594-1.368-1.327-1.368H1.326C0.595-0.07,0,0.542,0,1.297v42.464c0,0.754,0.595,1.367,1.326,1.367h3.968
		C4.928,43.36,4.862,41.253,5.117,38.846z M4.18,28.831c-0.524,0-0.953-0.607-0.953-1.358V4.46c0-0.751,0.429-1.357,0.953-1.357
		h0.64c0.524,0,0.953,0.606,0.953,1.357v23.012c0,0.751-0.429,1.358-0.953,1.358H4.18z"/>
	<g>
		<path style="fill:#FFFFFF;" d="M19.126,23.507c-0.374-0.104-0.763-1.079-1.046-1.413c-0.372-0.441-0.823-0.826-1.359-1.023
			c-1.415-0.519-2.829,0.311-3.822,1.301c-2.446,2.444-3.9,6.048-4.96,9.321c-1.289,3.988-2.245,8.539-1.512,12.744
			c0.04,0.232,0.085,0.462,0.138,0.691c0.615,2.692,3.39,6.317,6.228,3.978c2.41-1.947,3.785-5.428,5.019-8.212
			c0.26-0.58,0.512-1.161,0.772-1.741c0.131-0.284,0.261-0.575,0.414-0.854c0.235-0.435,0.387-0.375,0.891-0.375
			c2.822,0,5.644,0,8.463,0c1.396,0,2.793,0,4.19,0c0.697,0,1.396,0,2.093,0c0.348,0,0.697,0,1.048,0
			c0.451,0,1.045-0.232,1.045,0.32c0.105,1.412,0.631,2.815,1.217,4.083c1.146,2.491,2.824,5.186,5.173,6.631
			c2.651,1.653,4.835-0.095,5.79-2.775c1.193-3.36,0.864-7.289,0.274-10.742c-0.622-3.648-1.687-7.385-3.517-10.596
			c-0.944-1.662-2.236-3.279-4.049-3.949c-1.547-0.582-3.25-0.252-4.34,1.064c-0.291,0.346-0.527,0.74-0.717,1.154
			c-0.268,0.592-1.064,0.544-1.668,0.613C33.13,23.925,21.735,24.242,19.126,23.507z M20.404,32.028h-3.02v3.111h-3.33v-3.111
			h-3.019v-3.434h3.019V25.48h3.33v3.114h3.02V32.028z M40.385,26.328c0.86,0,1.561,0.718,1.561,1.608s-0.698,1.613-1.561,1.613
			c-0.866,0-1.563-0.723-1.563-1.613S39.519,26.328,40.385,26.328z M37.426,32.6c-0.866,0-1.564-0.723-1.564-1.61
			c0-0.89,0.698-1.612,1.564-1.612c0.862,0,1.56,0.723,1.56,1.612C38.985,31.877,38.288,32.6,37.426,32.6z M40.385,35.65
			c-0.866,0-1.563-0.722-1.563-1.61c0-0.89,0.697-1.611,1.563-1.611c0.86,0,1.561,0.722,1.561,1.611
			C41.945,34.929,41.245,35.65,40.385,35.65z M43.343,32.6c-0.864,0-1.564-0.723-1.564-1.61c0-0.89,0.7-1.612,1.564-1.612
			c0.862,0,1.562,0.723,1.562,1.612C44.904,31.877,44.205,32.6,43.343,32.6z"/>
	</g>
</g>
</svg>
