<?xml version="1.0" encoding="utf-8"?>
<!-- Generator: Adobe Illustrator 18.1.0, SVG Export Plug-In . SVG Version: 6.00 Build 0)  -->
<svg version="1.1" id="Capa_1" xmlns="http://www.w3.org/2000/svg" xmlns:xlink="http://www.w3.org/1999/xlink" x="0px" y="0px"
	 viewBox="0 0 50 50" enable-background="new 0 0 50 50" xml:space="preserve">
<g>
	<path fill="#FFFFFF" d="M25,39C17.3,39,11,32.7,11,25S17.3,10.9,25,10.9S39.1,17.2,39.1,25S32.8,39,25,39z M25,13
		c-6.6,0-11.9,5.3-11.9,11.9c0,6.6,5.3,11.9,11.9,11.9C31.6,36.9,37,31.5,37,25C37,18.4,31.6,13,25,13z"/>
</g>
<g>
	<path fill="#FFFFFF" d="M47.4,26H2.6C2,26,1.5,25.5,1.5,25c0-0.6,0.5-1.1,1.1-1.1h44.9c0.6,0,1.1,0.5,1.1,1.1
		C48.5,25.5,48,26,47.4,26z"/>
</g>
<g>
	<path fill="#FFFFFF" d="M25,48.7c-0.6,0-1.1-0.5-1.1-1.1V2.7c0-0.6,0.5-1.1,1.1-1.1c0.6,0,1.1,0.5,1.1,1.1v44.9
		C26.1,48.2,25.6,48.7,25,48.7z"/>
</g>
</svg>
