<?xml version="1.0" encoding="utf-8"?>
<!-- Generator: Adobe Illustrator 18.1.0, SVG Export Plug-In . SVG Version: 6.00 Build 0)  -->
<svg version="1.1" id="Capa_1" xmlns="http://www.w3.org/2000/svg" xmlns:xlink="http://www.w3.org/1999/xlink" x="0px" y="0px"
	 viewBox="0 0 50 50" enable-background="new 0 0 50 50" xml:space="preserve">
<g>
	<path fill="#FFFFFF" d="M47,46.1C47,46.1,47,46.1,47,46.1H4c-0.7,0-1.4-0.4-1.7-1s-0.4-1.4,0-2L23.8,5.4c0.4-0.6,1-1,1.7-1
		c0.7,0,1.4,0.4,1.7,1l21.3,37.4c0.3,0.3,0.4,0.8,0.4,1.2C49,45.2,48.1,46.1,47,46.1z M7.5,42.1h36.1l-18-31.6L7.5,42.1z"/>
</g>
<g>
	<path fill="#FFFFFF" stroke="#FFFFFF" stroke-miterlimit="10" d="M27.5,21.8l-0.5,11.5c0,0.3-0.2,0.5-0.5,0.5h-2
		c-0.3,0-0.5-0.2-0.5-0.5l-0.5-11.5v0c0-0.2,0.3-0.4,0.5-0.4h2.9C27.3,21.3,27.5,21.5,27.5,21.8L27.5,21.8z M27,39h-2.7
		c-0.3,0-0.5-0.2-0.5-0.5v-2.9c0-0.3,0.2-0.4,0.5-0.4H27c0.3,0,0.4,0.2,0.4,0.4v2.9C27.4,38.8,27.2,39,27,39z"/>
</g>
</svg>
