<?xml version="1.0" encoding="utf-8"?>
<!-- Generator: Adobe Illustrator 18.1.0, SVG Export Plug-In . SVG Version: 6.00 Build 0)  -->
<svg version="1.1" id="Capa_1" xmlns="http://www.w3.org/2000/svg" xmlns:xlink="http://www.w3.org/1999/xlink" x="0px" y="0px"
	 viewBox="0 0 50 50" enable-background="new 0 0 50 50" xml:space="preserve">
<path fill="#FFFFFF" stroke="#FFFFFF" stroke-miterlimit="10" d="M46.9,20.2l-8.1-7V6.3c0-1.6-1.3-2.9-2.9-2.9h-2.1
	c-1.6,0-2.9,1.3-2.9,2.9v0.2L26.8,3c-0.6-0.5-1.3-0.7-2-0.7c-0.1,0-0.1,0-0.1,0c-0.8,0-1.6,0.2-2.2,0.7L2.4,20.2
	c-1.3,1.1-1.4,3-0.3,4.3l1.6,1.8c0.6,0.8,1.6,1.1,2.6,1v16.8c0,1.6,1.3,2.9,2.9,2.9h8v0.1h15.1V47h8c1.6,0,2.9-1.3,2.9-2.9V27.4
	c0.1,0,0.2,0,0.3,0c0.9,0,1.7-0.4,2.3-1.1l1.6-1.8C48.4,23.3,48.2,21.3,46.9,20.2z M32.2,6.3c0-0.9,0.7-1.6,1.6-1.6h2.1
	c0.9,0,1.6,0.7,1.6,1.6v5.9l-5.4-4.6V6.3L32.2,6.3z M31,45.8H18.4V29.9c0-0.9,0.7-1.6,1.6-1.6h9.4c0.9,0,1.6,0.7,1.6,1.6V45.8z
	 M41.8,44.2c0,0.9-0.7,1.6-1.6,1.6h-8V29.9c0-1.6-1.3-2.9-2.9-2.9H20c-1.6,0-2.9,1.3-2.9,2.9v15.8h-8c-0.9,0-1.6-0.7-1.6-1.6V27
	c0.2-0.1,0.3-0.2,0.5-0.3l16.7-14.3l16.7,14.3c0.1,0.1,0.3,0.2,0.5,0.3V44.2L41.8,44.2z M46.3,23.7l-1.6,1.8
	c-0.6,0.7-1.8,0.8-2.6,0.2l-17.5-15l-17.5,15c-0.7,0.6-1.9,0.5-2.6-0.2L3,23.7c-0.6-0.8-0.6-1.9,0.2-2.6L23.3,4
	c0.3-0.3,0.7-0.4,1.2-0.4l0.2,0l0.1,0c0.4,0,0.8,0.2,1.2,0.4l20.1,17.2C46.9,21.8,47,23,46.3,23.7z"/>
</svg>
