<?xml version="1.0" encoding="utf-8"?>
<!-- Generator: Adobe Illustrator 18.1.0, SVG Export Plug-In . SVG Version: 6.00 Build 0)  -->
<svg version="1.1" id="Capa_1" xmlns="http://www.w3.org/2000/svg" xmlns:xlink="http://www.w3.org/1999/xlink" x="0px" y="0px"
	 viewBox="0 0 50 50" enable-background="new 0 0 50 50" xml:space="preserve">
<g>
	<path fill="#FFFFFF" d="M23.4,45v-5c-2.9,0-5.8-0.9-7.6-2.2l1.2-3.3c1.8,1.2,4.4,2.1,7.1,2.1c3.5,0,5.9-2,5.9-4.8
		c0-2.7-1.9-4.4-5.6-5.9c-5-2-8.2-4.3-8.2-8.6c0-4.1,2.9-7.2,7.5-8v-5h3.1v4.8c3,0.1,5,0.9,6.4,1.7L32,14.2c-1-0.6-3.1-1.7-6.2-1.7
		c-3.8,0-5.2,2.3-5.2,4.3c0,2.6,1.8,3.9,6.1,5.6c5.1,2.1,7.7,4.6,7.7,9c0,3.9-2.7,7.6-7.8,8.4V45H23.4z"/>
</g>
</svg>
