<?xml version="1.0" encoding="utf-8"?>
<!-- Generator: Adobe Illustrator 18.1.0, SVG Export Plug-In . SVG Version: 6.00 Build 0)  -->
<svg version="1.1" id="Capa_1" xmlns="http://www.w3.org/2000/svg" xmlns:xlink="http://www.w3.org/1999/xlink" x="0px" y="0px"
	 viewBox="0 0 50 50" enable-background="new 0 0 50 50" xml:space="preserve">
<g>
	<g>
		<path fill="#FFFFFF" d="M47,44.6H3.5c-1.1,0-2-0.9-2-2V6.7c0-1.1,0.9-2,2-2H47c1.1,0,2,0.9,2,2v35.9C49,43.7,48.1,44.6,47,44.6z
			 M5.5,40.6H45V8.7H5.5V40.6z"/>
	</g>
	<g>
		<path fill="#FFFFFF" d="M38.5,19H11.9c-1.1,0-2-0.9-2-2s0.9-2,2-2h26.6c1.1,0,2,0.9,2,2S39.6,19,38.5,19z"/>
	</g>
	<g>
		<path fill="#FFFFFF" d="M38.5,26.7H11.9c-1.1,0-2-0.9-2-2s0.9-2,2-2h26.6c1.1,0,2,0.9,2,2S39.6,26.7,38.5,26.7z"/>
	</g>
	<g>
		<path fill="#FFFFFF" d="M38.5,34.8H11.9c-1.1,0-2-0.9-2-2s0.9-2,2-2h26.6c1.1,0,2,0.9,2,2S39.6,34.8,38.5,34.8z"/>
	</g>
</g>
</svg>
