<?xml version="1.0" encoding="utf-8"?>
<!-- Generator: Adobe Illustrator 18.1.0, SVG Export Plug-In . SVG Version: 6.00 Build 0)  -->
<svg version="1.1" id="Capa_1" xmlns="http://www.w3.org/2000/svg" xmlns:xlink="http://www.w3.org/1999/xlink" x="0px" y="0px"
	 viewBox="0 0 50 50" enable-background="new 0 0 50 50" xml:space="preserve">
<g id="facebook_1_">
	<path fill="#FFFFFF" d="M22.9,6.7c-1.5,0.8-2.6,1.9-3.2,3.3c-0.6,1.3-0.8,3.1-0.8,5.6v0.8h-4v8h4v21.4h9.5V24.5h5.3v-8h-5.3v-0.7
		c0-1.5,0.3-1.9,0.4-2c0.2-0.2,0.7-0.3,1.4-0.3c0.9,0,2,0.1,3,0.4l1.2,0.3l1.4-7.3l-1-0.3C30.6,5.2,25.8,5.1,22.9,6.7z M32.5,11.2
		c-2.3-0.4-4.4-0.2-5.4,0.9c-0.7,0.7-1,1.9-1,3.6v3.1h5.3v3.2H26v21.4h-4.8V22.1h-4v-3.2h4v-3.2c0-2.1,0.2-3.7,0.6-4.6
		c0.4-0.9,1.1-1.6,2.1-2.2c2.1-1.1,5.7-1.2,9-0.3L32.5,11.2z"/>
</g>
</svg>
