<?xml version="1.0" encoding="utf-8"?>
<!-- Generator: Adobe Illustrator 18.1.0, SVG Export Plug-In . SVG Version: 6.00 Build 0)  -->
<svg version="1.1" id="Capa_1" xmlns="http://www.w3.org/2000/svg" xmlns:xlink="http://www.w3.org/1999/xlink" x="0px" y="0px"
	 viewBox="0 0 50 50" enable-background="new 0 0 50 50" xml:space="preserve">
<path fill="#FFFFFF" d="M20.2,1.1c-4.4,0-8,3.6-8,8c0,3.4,2.1,6.3,5.1,7.4v-2.6c-1.6-1-2.7-2.8-2.7-4.8c0-3.1,2.5-5.6,5.6-5.6
	c3.1,0,5.6,2.5,5.6,5.6c0,2-1.1,3.8-2.7,4.8v2.6c2.9-1.2,5-4.1,5-7.4C28.2,4.7,24.6,1.1,20.2,1.1z"/>
<path fill="#FFFFFF" d="M37.3,22.6c-0.6,0-1.2,0.1-1.7,0.4c-0.3-1.9-2-3.4-4-3.4c-0.6,0-1.2,0.1-1.7,0.4c-0.3-1.9-2-3.3-4-3.3
	c-0.6,0-1.2,0.1-1.7,0.4v-8c0-2.2-1.8-4-4-4c-2.2,0-4,1.8-4,4v14.4l-0.1-0.2c-0.6-1.5-2.1-2.5-3.7-2.5c-0.5,0-1,0.1-1.5,0.3
	c-2.1,0.8-3,3.2-2.2,5.3l5.8,14.2l0,0.1c2.4,4.9,7.3,8,12.7,8c7.8,0,14.2-6.4,14.2-14.2v-7.7C41.4,24.4,39.6,22.6,37.3,22.6z
	 M39,34.4c0,6.5-5.3,11.8-11.8,11.8c-4.5,0-8.6-2.5-10.6-6.6l-5.8-14.2c-0.2-0.4-0.2-0.9,0-1.3c0.2-0.4,0.5-0.7,0.9-0.9
	c0.2-0.1,0.4-0.1,0.6-0.1c0.7,0,1.3,0.4,1.6,1.1l4.6,10.9v-26c0-0.9,0.8-1.7,1.7-1.7s1.7,0.8,1.7,1.7v17.7c0,0.6,0.5,1.2,1.2,1.2
	c0.7,0,1.2-0.5,1.2-1.2v-6c0-0.9,0.8-1.7,1.7-1.7c0.9,0,1.7,0.8,1.7,1.7v8.1l0,0l0,0c0,0.7,0.5,1.2,1.2,1.2c0.7,0,1.2-0.5,1.2-1.2
	l0,0l0,0v-5.2c0-0.9,0.8-1.7,1.7-1.7c0.9,0,1.7,0.8,1.7,1.7v7.3h0l0,0c0,0.6,0.5,1.2,1.2,1.2c0.6,0,1.2-0.5,1.2-1.2v0v0v-4.2
	c0-0.9,0.8-1.7,1.7-1.7c0.9,0,1.7,0.8,1.7,1.7L39,34.4L39,34.4z"/>
</svg>
