<?xml version="1.0" encoding="utf-8"?>
<!-- Generator: Adobe Illustrator 18.1.0, SVG Export Plug-In . SVG Version: 6.00 Build 0)  -->
<svg version="1.1" id="Capa_1" xmlns="http://www.w3.org/2000/svg" xmlns:xlink="http://www.w3.org/1999/xlink" x="0px" y="0px"
	 viewBox="0 0 50 50" enable-background="new 0 0 50 50" xml:space="preserve">
<g>
	<path fill="#FFFFFF" d="M10.3,9.4l2,1.7l0.3-0.3c0.1-0.1,5.6-5,9.4-3.9l-0.5,3.6c0,0.7,0.3,1.3,0.7,1.6c-0.1,0.1-0.2,0.3-0.3,0.5
		L9.3,45.4c-0.3,0.7,0.1,1.6,0.8,1.9l2.9,1.1c0.7,0.3,1.6-0.1,1.9-0.8l12.7-32.8c0.1-0.2,0.1-0.3,0.1-0.5c0.7,0.2,1.3,0,1.9-0.6
		l1.1-1.3c0.1-0.1,0.8-0.4,1.8,0c0.5,0.2,0.7,0.4,1,0.8c0.3,0.4,0.7,0.8,1.5,1.2c0.1,0.5,0.4,0.9,0.9,1l1.7,0.7
		c0.8,0.3,1.6-0.1,1.9-0.8l2.3-5.8c0.3-0.8-0.1-1.6-0.8-1.9l-1.7-0.7c-0.4-0.2-0.9-0.1-1.3,0.1c-0.9-0.3-1.5-0.2-2-0.2
		c-0.4,0.1-0.7,0.1-1.2-0.1c-1.2-0.5-1.3-1.2-1.4-1.3l0-0.1l-0.1-0.1c-0.1-0.1-2.1-2.7-8.2-3.5C18.2,0.6,11,8.7,10.7,9L10.3,9.4z
		 M38.2,7.9c0.1-0.3,0.4-0.4,0.7-0.3l1.7,0.7C40.9,8.4,41,8.7,40.9,9l-2.3,5.8c-0.1,0.3-0.4,0.4-0.7,0.3l-1.7-0.7
		c-0.3-0.1-0.4-0.4-0.3-0.7L38.2,7.9z M22.9,12.9c0.1-0.2,0.4-0.4,0.6-0.3l2.9,1.1c0.2,0.1,0.4,0.4,0.3,0.6L13.9,47.2
		c-0.1,0.2-0.4,0.4-0.6,0.3l-2.9-1.1c-0.2-0.1-0.4-0.4-0.3-0.6L22.9,12.9z M11.7,9.3c1.5-1.6,7.6-7.6,13.3-6.8
		c5.1,0.7,7.2,2.7,7.5,3.1C32.6,6,33,6.9,34.4,7.5c0.8,0.3,1.3,0.2,1.7,0.1c0.4-0.1,0.7-0.1,1.2,0l-2.2,5.6
		c-0.4-0.2-0.6-0.5-0.9-0.8c-0.3-0.4-0.6-0.8-1.4-1.1c-1.7-0.7-2.8,0.1-2.8,0.2L30,11.6L28.8,13c-0.5,0.5-0.7,0.4-0.9,0.4l-5-1.9
		c-0.3-0.1-0.5-0.4-0.5-0.8l0.6-4.3l-0.4-0.1C19,4.6,13.7,8.7,12.3,9.8L11.7,9.3z"/>
	<path fill="#FFFFFF" d="M13.5,48.9c-0.2,0-0.5,0-0.7-0.1l-2.9-1.1c-0.5-0.2-0.8-0.5-1.1-1c-0.2-0.5-0.2-1,0-1.5l12.7-32.8
		c0-0.1,0.1-0.2,0.1-0.3c-0.4-0.4-0.6-1-0.6-1.7l0.5-3.2c-0.2,0-0.4,0-0.6,0c-3.5,0-8,3.9-8,4l-0.6,0.6L9.7,9.4l0.6-0.7
		C10.6,8.4,17.1,1,23.9,1c0.4,0,0.8,0,1.2,0.1c6.3,0.9,8.4,3.6,8.5,3.7l0.2,0.4c0,0,0.1,0.6,1.1,1c0.3,0.1,0.4,0.1,0.5,0.1
		c0.2,0,0.3,0,0.5-0.1c0.5-0.1,1.3-0.1,2,0.1c0.5-0.2,1-0.2,1.4,0L41.1,7c1,0.4,1.5,1.5,1.1,2.5l-2.3,5.8c-0.4,1-1.5,1.5-2.5,1.1
		l-1.7-0.7c-0.5-0.2-0.9-0.6-1.1-1.1c-0.8-0.4-1.2-0.9-1.5-1.2c-0.3-0.3-0.4-0.5-0.8-0.6c-0.6-0.2-1.2-0.1-1.4-0.1l-1.1,1.2
		c-0.6,0.6-1.2,0.9-1.8,0.9c0,0,0,0.1,0,0.1L15.3,47.7C15,48.4,14.3,48.9,13.5,48.9z M21,6.3c0.4,0,0.9,0.1,1.3,0.2l0.4,0.1l-0.6,4
		c0,0.5,0.2,0.9,0.6,1.2L23,12l-0.4,0.4c-0.1,0.1-0.2,0.2-0.2,0.3L9.7,45.5c-0.1,0.2-0.1,0.5,0,0.8c0.1,0.2,0.3,0.4,0.6,0.5l2.9,1.1
		c0.5,0.2,1.1-0.1,1.3-0.6l12.7-32.8c0-0.1,0.1-0.2,0.1-0.4l0-0.6l0.6,0.2c0.5,0.2,0.9,0,1.4-0.5l1.2-1.4c0.2-0.1,0.5-0.3,1.1-0.3
		c0.4,0,0.8,0.1,1.2,0.2c0.6,0.2,0.9,0.6,1.2,0.9c0.3,0.3,0.6,0.7,1.3,1.1l0.2,0.1l0.1,0.2c0.1,0.3,0.3,0.6,0.6,0.7l1.7,0.7
		c0.5,0.2,1.1-0.1,1.3-0.6l2.3-5.8c0.2-0.5-0.1-1.1-0.6-1.3l-1.7-0.7c-0.3-0.1-0.6-0.1-0.9,0.1L38,7.3l-0.2-0.1
		C37.1,7,36.5,7,36.1,7.1c-0.5,0.1-0.9,0.1-1.5-0.1C33.2,6.4,33,5.4,33,5.4l0,0c0,0-1.9-2.5-7.9-3.3c-0.4-0.1-0.7-0.1-1.1-0.1
		C17.6,1.9,11.3,9,11,9.3l0,0l1.4,1.2l0,0C12.4,10.4,17.1,6.3,21,6.3z M13.5,47.9c-0.1,0-0.2,0-0.3-0.1l-2.9-1.1
		c-0.2-0.1-0.4-0.3-0.5-0.5c-0.1-0.2-0.1-0.5,0-0.7l12.7-32.8c0.2-0.5,0.7-0.7,1.2-0.5l2.9,1.1c0.2,0.1,0.4,0.3,0.5,0.5
		c0.1,0.2,0.1,0.5,0,0.7L14.4,47.3C14.2,47.7,13.9,47.9,13.5,47.9z M23.4,13.1C23.4,13.1,23.3,13.1,23.4,13.1L10.6,45.9l2.9,1.2
		l12.8-32.8L23.4,13.1z M38.1,15.6c-0.1,0-0.2,0-0.3-0.1l-1.7-0.7c-0.5-0.2-0.7-0.8-0.5-1.2l2.3-5.8C38,7.3,38.6,7,39,7.2l1.7,0.7
		C41,8,41.2,8.2,41.3,8.4s0.1,0.5,0,0.7L39,15C38.9,15.3,38.5,15.6,38.1,15.6z M38.7,8C38.7,8,38.7,8.1,38.7,8l-2.3,5.9l1.8,0.7
		l2.3-5.9L38.7,8z M35.3,13.9l-0.5-0.2c-0.5-0.3-0.8-0.6-1-0.9c-0.3-0.3-0.5-0.7-1.2-0.9c-0.4-0.2-0.8-0.2-1.2-0.2
		c-0.8,0-1.2,0.3-1.2,0.3l-1.2,1.3c-0.3,0.4-0.7,0.6-1,0.6c-0.2,0-0.3,0-0.4-0.1l-5-1.9c-0.5-0.2-0.8-0.7-0.7-1.3l0.6-4l0,0
		c-0.5-0.2-1.1-0.3-1.7-0.3c-3.4,0-7.2,3-8.3,3.9l-0.3,0.2l-1.3-1.1L11.4,9c1.6-1.6,7.1-7,12.5-7C24.3,2,24.7,2,25,2
		c5.3,0.7,7.4,2.8,7.8,3.2l0.1,0.2C33,5.8,33.4,6.6,34.6,7c0.6,0.2,1.1,0.2,1.5,0.1c0.4-0.1,0.9-0.1,1.3,0l0.5,0.1L35.3,13.9z
		 M21,5.3c0.7,0,1.4,0.1,2,0.4L23.7,6L23,10.6c0,0.1,0.1,0.3,0.2,0.4l5,1.9c0,0,0.1,0,0.4-0.2l1.3-1.4c0,0,0.7-0.6,1.8-0.6
		c0.5,0,1,0.1,1.5,0.3c0.9,0.3,1.3,0.8,1.6,1.2c0.1,0.1,0.2,0.2,0.3,0.3L36.7,8c-0.2,0-0.3,0-0.4,0.1c-0.6,0.1-1.3,0.1-2-0.2
		c-1.5-0.6-2-1.6-2.2-2.1c-0.5-0.5-2.4-2.2-7.2-2.9c-0.3,0-0.6-0.1-1-0.1c-4.6,0-9.4,4.3-11.3,6.1C14.3,7.7,17.8,5.3,21,5.3z"/>
</g>
</svg>
