<?xml version="1.0" encoding="utf-8"?>
<!-- Generator: Adobe Illustrator 18.1.0, SVG Export Plug-In . SVG Version: 6.00 Build 0)  -->
<svg version="1.1" id="Capa_1" xmlns="http://www.w3.org/2000/svg" xmlns:xlink="http://www.w3.org/1999/xlink" x="0px" y="0px"
	 viewBox="0 0 792 612" enable-background="new 0 0 792 612" xml:space="preserve">
<g>
	<path fill="#E30613" d="M600,22.3c-74.2-37.8-164.1-11.4-206.7,58.6l-0.1-0.1l-38.1,66.1c-5.4-51.5-35.9-99.4-85.4-124.7
		C191.9-17.4,96.7,13.5,57,91.3c-39.7,77.8-8.7,173,69.1,212.7c44.3,22.6,94.2,22.2,136.3,3.5l-34.6,59.8l0.1,0
		c-2,3.3-4,6.6-5.8,10.1c-39.7,77.8-8.7,173.1,69.1,212.8c74.1,37.7,163.8,11.4,206.6-58.4l0,0.1L664.1,244l0-0.1
		c1.7-2.9,3.5-5.9,5.1-9C708.8,157.2,677.9,61.9,600,22.3z"/>
	<path fill="#64257E" d="M761.6,532.3c0,41.5-33.6,75.1-75.1,75.1c-41.5,0-75.1-33.6-75.1-75.1c0-41.5,33.6-75.1,75.1-75.1
		C727.9,457.1,761.6,490.8,761.6,532.3z"/>
</g>
</svg>
