<?xml version="1.0" encoding="utf-8"?>
<!-- Generator: Adobe Illustrator 18.1.0, SVG Export Plug-In . SVG Version: 6.00 Build 0)  -->
<svg version="1.1" id="Capa_1" xmlns="http://www.w3.org/2000/svg" xmlns:xlink="http://www.w3.org/1999/xlink" x="0px" y="0px"
	 viewBox="153.4 0 491.3 612" enable-background="new 153.4 0 491.3 612" xml:space="preserve">
<g>
	<g>
		<g>
			<path fill="#FFFFFF" d="M213.3,609.7c8.2-0.2,10.8-6.2,11.3-7.3c0.5-1.1,23.8-63.7,23.8-63.7c0.1-0.3,0.2-0.5,0.2-0.8
				c0-1.3-1.2-1.8-2.1-1.8h-13.5c-1.2,0-2.3,0.5-2.7,1.4c-0.3,0.7-16.8,49.5-16.8,49.5c0,0-16.6-48.8-16.9-49.5
				c-0.3-0.9-1.4-1.4-2.6-1.4h-13.5c-0.9,0-2.1,0.5-2.1,1.8c0,0.3,0.1,0.5,0.2,0.8c0,0,23.4,62.9,23.7,63.7
				C202.5,603.3,205.2,609.5,213.3,609.7z"/>
			<path fill="#FFFFFF" d="M318,562.7c0-3,1.1-4.9,2.7-6.6c1.5-1.6,4-2.3,6-2.3l18.4,0c0.8,0,1.8-0.1,2.5-0.8
				c0.8-0.7,0.9-1.7,0.9-2.3l0-11.7c0-0.6-0.2-1.6-0.9-2.3c-0.6-0.5-1.4-0.7-2.1-0.8l0,0h-17.1c-8.2,0-15.6,1.8-20.6,6.3
				c-5,4.6-7.8,11.8-7.8,22V606c0,0.9,0.1,1.8,0.8,2.5c0.7,0.8,1.7,0.9,2.3,0.9l11.7,0c0.6,0,1.6-0.1,2.3-0.9
				c0.5-0.6,0.7-1.4,0.8-2.1l0,0L318,562.7z"/>
			<path fill="#FFFFFF" d="M256.3,517.5c0-0.8,0.1-1.8,0.8-2.5c0.7-0.8,1.7-0.9,2.3-0.9H271c0.6,0,1.6,0.1,2.3,0.9
				c0.7,0.8,0.8,1.7,0.8,2.5v18.8l14.9,0c0.9,0,1.7,0.1,2.5,0.8c0.8,0.7,0.9,1.6,0.9,2.3v11.6c0,0.6-0.1,1.5-0.9,2.3
				c-0.8,0.7-1.7,0.8-2.5,0.8l-14.9,0V583c0,3,1,4.9,2.7,6.6c1.5,1.6,4,2.3,6,2.3l6.2,0c0.8,0,1.8,0.1,2.5,0.7
				c0.8,0.7,0.9,1.6,0.9,2.3l0,11.7c0,0.6-0.1,1.6-0.9,2.3c-0.6,0.5-1.4,0.7-2.1,0.8l-4.9,0c-8.2,0-15.6-1.7-20.6-6.3
				c-5-4.6-7.7-11.8-7.7-22V517.5z"/>
		</g>
		<g>
			<path fill="#FFFFFF" d="M399.4,542.6c11.7,0,21.3,6.5,25.7,17.4c0.1,0.3,0.4,0.5,0.8,0.5h5.3c0.3,0,0.5-0.1,0.7-0.3
				c0.2-0.2,0.2-0.5,0.1-0.8c-4.9-14.5-17.4-23.6-32.6-23.6c-19.4,0-35.2,16.7-35.2,37.2c0,20.2,15.8,36.7,35.2,36.7
				c15.4,0,27.9-9,32.6-23.6c0.1-0.2,0-0.5-0.1-0.8c-0.2-0.2-0.4-0.3-0.7-0.3H426c-0.4,0-0.7,0.2-0.8,0.5
				c-4.1,11-13.7,17.5-25.8,17.5c-15.8,0-28.6-13.5-28.6-30.1C370.8,556.3,383.7,542.6,399.4,542.6z"/>
			<path fill="#FFFFFF" d="M591.5,535.9c-10.5,0-19.1,5.2-23.3,14c-4.5-8.7-13.5-14-24-14c-8.3,0-15.6,3.4-20.3,9.3v-6.7
				c0-0.5-0.4-0.8-0.8-0.8h-4.9c-0.5,0-0.8,0.4-0.8,0.8v68.9c0,0.5,0.4,0.8,0.8,0.8h4.9c0.5,0,0.8-0.4,0.8-0.8v-44.4
				c0-11.8,8.5-20.3,20.3-20.3c11.8,0,20.4,8.5,20.4,20.3v44.4c0,0.5,0.4,0.8,0.8,0.8h4.9c0.5,0,0.8-0.4,0.8-0.8v-44.4
				c0-11.8,8.5-20.3,20.3-20.3c11.8,0,20.4,8.5,20.4,20.3v44.4c0,0.5,0.4,0.8,0.8,0.8h5c0.5,0,0.8-0.4,0.8-0.8v-44.4
				C618.6,547.2,607.2,535.9,591.5,535.9z"/>
			<path fill="#FFFFFF" d="M473.5,535.9c-20.4,0-36.9,16.5-36.9,36.9c0,20.4,16.5,36.9,36.9,36.9c20.4,0,37-16.5,37-36.9
				C510.5,552.4,493.9,535.9,473.5,535.9z M473.5,603.2c-16.8,0-30.4-13.6-30.4-30.4c0-16.8,13.6-30.4,30.4-30.4
				c16.8,0,30.4,13.6,30.4,30.4C503.9,589.6,490.3,603.2,473.5,603.2z"/>
		</g>
		<path fill="#FFFFFF" d="M357.6,600.8c0-4.9-4-8.9-8.9-8.9c-4.9,0-8.9,4-8.9,8.9c0,4.9,4,8.9,8.9,8.9
			C353.6,609.7,357.6,605.8,357.6,600.8z"/>
	</g>
	<g>
		<path fill="#E30613" d="M534.7,12.8C484.2-13,423,5,394.1,52.6l-0.1-0.1l-25.9,45c-3.7-35.1-24.4-67.7-58.1-84.8
			c-53-27-117.8-6-144.8,47c-27,53-5.9,117.8,47,144.7c30.1,15.4,64.1,15.1,92.8,2.4l-23.5,40.7l0.1,0c-1.4,2.3-2.7,4.5-3.9,6.9
			c-27,53-5.9,117.8,47,144.8c50.4,25.7,111.5,7.7,140.6-39.7l0,0l113.1-196l0,0c1.2-2,2.4-4,3.5-6.1
			C608.8,104.6,587.7,39.7,534.7,12.8z"/>
		<path fill="#64257E" d="M644.7,359.9c0,28.3-22.9,51.1-51.1,51.1c-28.3,0-51.1-22.9-51.1-51.1c0-28.2,22.9-51.1,51.1-51.1
			C621.8,308.8,644.7,331.7,644.7,359.9z"/>
	</g>
</g>
</svg>
