<?xml version="1.0" encoding="utf-8"?>
<!-- Generator: Adobe Illustrator 18.1.0, SVG Export Plug-In . SVG Version: 6.00 Build 0)  -->
<svg version="1.1" id="Capa_1" xmlns="http://www.w3.org/2000/svg" xmlns:xlink="http://www.w3.org/1999/xlink" x="0px" y="0px"
	 viewBox="0 0 50 50" enable-background="new 0 0 50 50" xml:space="preserve">
<g>
	<g>
		<path fill="#999999" d="M28.1,33.2c-0.6,0-1.2-0.4-1.5-0.9c-1.3-1.7-10.4-14-10.4-19.9C16.3,6,21.5,0.7,28,0.7
			c6.5,0,11.8,5.3,11.8,11.8C39.8,17,31.3,33.2,28.1,33.2z M28,4.1c-4.6,0-8.4,3.8-8.4,8.4c0,3.3,4.9,11.2,8.6,16.4
			c2.6-3.5,8.1-12.8,8.1-16.4C36.4,7.8,32.7,4.1,28,4.1z"/>
		<path fill="#999999" d="M28,17.5c-2.8,0-5.1-2.3-5.1-5.1c0-2.8,2.3-5.1,5.1-5.1c2.8,0,5.1,2.3,5.1,5.1
			C33.2,15.2,30.9,17.5,28,17.5z M28,10.7c-0.9,0-1.7,0.8-1.7,1.7c0,0.9,0.8,1.7,1.7,1.7c0.9,0,1.7-0.8,1.7-1.7
			C29.7,11.5,29,10.7,28,10.7z"/>
		<path fill="#999999" d="M22.9,49.3c-0.1,0-0.2,0-0.3,0L5.9,46.4c-0.8-0.1-1.4-0.9-1.4-1.7l0.4-13L2.4,18.6C2.3,18,2.5,17.4,2.9,17
			c0.4-0.4,1-0.5,1.6-0.4l11.2,3l3.9-1.7c0.9-0.4,1.9,0,2.2,0.9c0.4,0.9,0,1.9-0.9,2.2L16.5,23c-0.4,0.2-0.8,0.2-1.1,0.1l-9.1-2.5
			l2,10.6c0,0.1,0,0.2,0,0.4L7.9,43.3l14.6,2.5l9.4-6.1c0.4-0.3,0.9-0.4,1.4-0.2l10.2,2.9L43,32.1l0.5-10.3l-7.3-2.9
			c-0.9-0.3-1.3-1.3-1-2.2c0.3-0.9,1.3-1.3,2.2-1l8.5,3.4c0.7,0.3,1.1,0.9,1.1,1.7l-0.6,11.3L47,44.7c0,0.5-0.2,1.1-0.6,1.4
			c-0.4,0.3-1,0.5-1.5,0.3L33.1,43l-9.3,6C23.6,49.2,23.2,49.3,22.9,49.3z"/>
	</g>
</g>
</svg>
