<?xml version="1.0" encoding="utf-8"?>
<!-- Generator: Adobe Illustrator 18.1.0, SVG Export Plug-In . SVG Version: 6.00 Build 0)  -->
<svg version="1.1" id="Capa_1" xmlns="http://www.w3.org/2000/svg" xmlns:xlink="http://www.w3.org/1999/xlink" x="0px" y="0px"
	 viewBox="0 0 44 35.2" enable-background="new 0 0 44 35.2" xml:space="preserve">
<g>
	<g>
		<path fill="#FDFEFF" d="M41.5,5h-39C1.1,5,0,3.9,0,2.5S1.1,0,2.5,0h39C42.9,0,44,1.1,44,2.5S42.9,5,41.5,5z"/>
	</g>
	<g>
		<path fill="#FDFEFF" d="M41.5,20.2h-39c-1.4,0-2.5-1.1-2.5-2.5s1.1-2.5,2.5-2.5h39c1.4,0,2.5,1.1,2.5,2.5S42.9,20.2,41.5,20.2z"/>
	</g>
	<g>
		<path fill="#FDFEFF" d="M41.5,35.2h-39c-1.4,0-2.5-1.1-2.5-2.5s1.1-2.5,2.5-2.5h39c1.4,0,2.5,1.1,2.5,2.5S42.9,35.2,41.5,35.2z"/>
	</g>
</g>
</svg>
