<?xml version="1.0" encoding="utf-8"?>
<!-- Generator: Adobe Illustrator 18.1.0, SVG Export Plug-In . SVG Version: 6.00 Build 0)  -->
<svg version="1.1" id="Capa_1" xmlns="http://www.w3.org/2000/svg" xmlns:xlink="http://www.w3.org/1999/xlink" x="0px" y="0px"
	 viewBox="0 0 50 50" enable-background="new 0 0 50 50" xml:space="preserve">
<path fill="#E20613" d="M25,0.2C11.3,0.2,0.1,11.3,0.1,25.1C0.1,38.8,11.3,50,25,50c13.7,0,24.9-11.1,24.9-24.9S38.8,0.2,25,0.2z
	 M39.8,39.9C36,43.7,30.8,46,25,46c-5.8,0-11-2.3-14.8-6.1c-3.8-3.8-6.1-9-6.1-14.8c0-5.8,2.3-11,6.1-14.8c3.8-3.8,9-6.1,14.8-6.1
	c5.8,0,11,2.3,14.8,6.1c3.8,3.8,6.1,9,6.1,14.8C46,30.9,43.6,36.1,39.8,39.9z M34.6,15.5c-1.3-1.3-3.3-1.3-4.6,0l-5,5l-5-5
	c-1.3-1.3-3.3-1.3-4.6,0c-1.3,1.3-1.3,3.3,0,4.6l5,5l-5,5c-1.3,1.3-1.3,3.3,0,4.6c0.6,0.6,1.5,1,2.3,1c0.8,0,1.7-0.3,2.3-1l5-5l5,5
	c0.6,0.6,1.5,1,2.3,1c0.8,0,1.7-0.3,2.3-1c1.3-1.3,1.3-3.3,0-4.6l-5-5l5-5C35.9,18.8,35.9,16.8,34.6,15.5z"/>
</svg>
