<?xml version="1.0" encoding="utf-8"?>
<!-- Generator: Adobe Illustrator 18.1.0, SVG Export Plug-In . SVG Version: 6.00 Build 0)  -->
<svg version="1.1" id="Capa_1" xmlns="http://www.w3.org/2000/svg" xmlns:xlink="http://www.w3.org/1999/xlink" x="0px" y="0px"
	 viewBox="0 0 50 50" enable-background="new 0 0 50 50" xml:space="preserve">
<g>
	<path fill="#FFFFFF" d="M5.1,47.9c-0.3,0-0.5-0.1-0.7-0.3c-0.3-0.3-0.4-0.7-0.2-1l6-17.7c0-0.1,0.1-0.3,0.2-0.4L34.2,4.7
		c0.2-0.2,0.4-0.3,0.7-0.3c0.3,0,0.5,0.1,0.7,0.3l11.6,11.7c0.4,0.4,0.4,1,0,1.4L23.3,41.7c-0.1,0.1-0.2,0.2-0.4,0.2L5.4,47.8
		C5.3,47.9,5.2,47.9,5.1,47.9z M12,29.7L6.7,45.3l15.4-5.1l23-23L34.9,6.9L12,29.7z"/>
</g>
<g>
	<path fill="#FFFFFF" d="M19.8,33.5c-0.3,0-0.5-0.1-0.7-0.3c-0.4-0.4-0.4-1,0-1.4l21.1-21.1c0.4-0.4,1-0.4,1.4,0s0.4,1,0,1.4
		L20.5,33.2C20.3,33.4,20,33.5,19.8,33.5z"/>
</g>
</svg>
