<?xml version="1.0" encoding="utf-8"?>
<!-- Generator: Adobe Illustrator 18.1.0, SVG Export Plug-In . SVG Version: 6.00 Build 0)  -->
<svg version="1.1" id="Capa_1" xmlns="http://www.w3.org/2000/svg" xmlns:xlink="http://www.w3.org/1999/xlink" x="0px" y="0px"
	 viewBox="0 0 50 50" enable-background="new 0 0 50 50" xml:space="preserve">
<g>
	<path fill="#FFFFFF" d="M24.8,35.4c-9.4,0-17.1-7.7-17.1-17.1c0-9.4,7.7-17.1,17.1-17.1c9.4,0,17.1,7.7,17.1,17.1
		C41.9,27.7,34.2,35.4,24.8,35.4z M24.8,3.4c-8.2,0-14.9,6.7-14.9,14.9c0,8.2,6.7,14.9,14.9,14.9c8.2,0,14.9-6.7,14.9-14.9
		C39.7,10.1,33,3.4,24.8,3.4z"/>
</g>
<g>
	<path fill="#FFFFFF" d="M9.3,17.6c-0.5,0-1-0.4-1.1-0.9c-0.1-0.6,0.3-1.2,0.9-1.3c13.2-2.5,21.9-11,22-11.1c0.4-0.4,1.1-0.4,1.5,0
		c0.4,0.4,0.4,1.1,0,1.5c-0.4,0.4-9.3,9.1-23.1,11.7C9.4,17.6,9.4,17.6,9.3,17.6z"/>
</g>
<g>
	<path fill="#FFFFFF" d="M45.9,47.8H3.8c-0.7,0-1.3-0.4-1.7-1c-0.7-1.3-0.3-3.3,0.5-4.7c2.2-3.8,7.4-9,11.4-11.4
		c0.5-0.3,1.2-0.2,1.5,0.4c0.3,0.5,0.2,1.2-0.4,1.5c-3.6,2.2-8.6,7.2-10.6,10.7c-0.6,1-0.6,2-0.5,2.4h41.8c0.1-0.4,0-1.5-0.5-2.5
		C43.4,39.6,38.1,35,34,32.5c-0.5-0.3-0.7-1-0.4-1.5c0.3-0.5,1-0.7,1.5-0.4c4.5,2.7,10,7.6,12,11.6c0.7,1.4,1.1,3.5,0.3,4.7
		C47.1,47.5,46.5,47.8,45.9,47.8z"/>
</g>
<g>
	<path fill="#FFFFFF" d="M26.3,47.8L26.3,47.8l-2.9,0c-0.4,0-0.8-0.3-1-0.6l-6.1-13.7c-0.2-0.5,0-1.2,0.5-1.4c0.5-0.2,1.2,0,1.4,0.5
		l5.9,13l1.5,0l5.9-13.1c0.2-0.5,0.9-0.8,1.4-0.5c0.5,0.2,0.8,0.9,0.5,1.4l-6.2,13.7C27.2,47.6,26.8,47.8,26.3,47.8z"/>
</g>
</svg>
