<?xml version="1.0" encoding="utf-8"?>
<!-- Generator: Adobe Illustrator 18.1.0, SVG Export Plug-In . SVG Version: 6.00 Build 0)  -->
<svg version="1.1" id="Capa_1" xmlns="http://www.w3.org/2000/svg" xmlns:xlink="http://www.w3.org/1999/xlink" x="0px" y="0px"
	 viewBox="0 0 50 50" enable-background="new 0 0 50 50" xml:space="preserve">
<path fill="none" stroke="#FFFFFF" stroke-width="3" stroke-miterlimit="10" d="M24.9,1.8c-8.7,0-15.7,7-15.7,15.7
	c0,0.2,0,0.4,0,0.6c0.1,1.6,0.4,3.2,0.9,4.7c3.3,11,14.8,25.3,14.8,25.3s11.4-14.3,14.8-25.3c0.5-1.5,0.8-3.1,0.9-4.7
	c0-0.2,0-0.4,0-0.6C40.6,8.8,33.6,1.8,24.9,1.8z M24.9,25.2c-4.2,0-7.7-3.4-7.7-7.7c0-4.2,3.4-7.7,7.7-7.7c4.2,0,7.7,3.4,7.7,7.7
	C32.6,21.7,29.2,25.2,24.9,25.2z"/>
</svg>
