<?xml version="1.0" encoding="utf-8"?>
<!-- Generator: Adobe Illustrator 18.1.0, SVG Export Plug-In . SVG Version: 6.00 Build 0)  -->
<svg version="1.1" id="Capa_1" xmlns="http://www.w3.org/2000/svg" xmlns:xlink="http://www.w3.org/1999/xlink" x="0px" y="0px"
	 viewBox="0 0 50 50" enable-background="new 0 0 50 50" xml:space="preserve">
<g>
	<g>
		<g>
			<path fill="#98005E" d="M34.2,24.9l-5.5,1.6l3.5,4.7c0.1,0.2,0.2,0.5,0.2,0.7s0,0.4-0.3,0.6l-2.5,1.8c-0.1,0.1-0.3,0.1-0.4,0.1
				c-0.3,0-0.6-0.2-0.8-0.5l-3.3-4.8L21.7,34c-0.2,0.3-0.5,0.5-0.8,0.5c-0.1,0-0.3,0-0.4-0.1L18,32.5c-0.2-0.1-0.3-0.3-0.3-0.6
				c0-0.2,0.1-0.4,0.3-0.7l3.5-4.7L16,24.9c-0.4-0.1-0.8-0.4-0.8-0.8c0,0,0-0.1,0-0.2l1-3c0.1-0.3,0.3-0.5,0.6-0.5
				c0.2,0,0.3,0,0.5,0.1l5.5,1.8l-0.1-5.7c0-0.5,0.2-1,0.8-1h3.2c0.5,0,0.7,0.5,0.7,1v5.7l5.4-1.8c0.2,0,0.3-0.1,0.5-0.1
				c0.3,0,0.5,0.1,0.6,0.5l1,3c0,0.1,0,0.2,0,0.3C34.9,24.5,34.6,24.8,34.2,24.9z"/>
		</g>
	</g>
</g>
<g>
	<path fill="#98005E" d="M25.3,49.6c-13.5,0-24.4-10.9-24.4-24.4c0-13.5,10.9-24.4,24.4-24.4s24.4,10.9,24.4,24.4
		C49.7,38.7,38.8,49.6,25.3,49.6z M25.3,3.8c-11.8,0-21.4,9.6-21.4,21.4c0,11.8,9.6,21.4,21.4,21.4S46.7,37,46.7,25.2
		C46.7,13.4,37.1,3.8,25.3,3.8z"/>
</g>
</svg>
