<?xml version="1.0" encoding="utf-8"?>
<!-- Generator: Adobe Illustrator 18.1.0, SVG Export Plug-In . SVG Version: 6.00 Build 0)  -->
<svg version="1.1" id="Capa_1" xmlns="http://www.w3.org/2000/svg" xmlns:xlink="http://www.w3.org/1999/xlink" x="0px" y="0px"
	 viewBox="0 0 50 50" enable-background="new 0 0 50 50" xml:space="preserve">
<g id="Your_Icon_3_">
	<g>
		<g>
			<path fill="#999999" d="M25.2,26.8l10.9-5.3c1.6-0.7,0.5-3-1.1-2.3l-9.3,4.2v-11c0-1.7-2.6-1.6-2.6,0l0,13.1
				C23.2,26.6,24.2,27.3,25.2,26.8z"/>
		</g>
		<path fill="#999999" d="M25.2,2.8c-11.8,0-21.4,9.6-21.4,21.4c0,11.8,9.6,21.4,21.4,21.4c11.8,0,21.4-9.6,21.4-21.4
			C46.7,12.4,37.1,2.8,25.2,2.8z M25.2,43.2c-10.5,0-19-8.5-19-19c0-10.5,8.5-19,19-19c10.5,0,19,8.5,19,19
			C44.2,34.8,35.7,43.2,25.2,43.2z"/>
		<path fill="#999999" d="M25.2,24.3"/>
	</g>
</g>
</svg>
