<?xml version="1.0" encoding="utf-8"?>
<!-- Generator: Adobe Illustrator 18.1.0, SVG Export Plug-In . SVG Version: 6.00 Build 0)  -->
<svg version="1.1" id="Capa_1" xmlns="http://www.w3.org/2000/svg" xmlns:xlink="http://www.w3.org/1999/xlink" x="0px" y="0px"
	 viewBox="0 0 50 50" enable-background="new 0 0 50 50" xml:space="preserve">
<g id="Your_Icon_2_">
	<g>
		<path fill="#FFFFFF" d="M25,27.9l12.7-6.2c1.8-0.8,0.6-3.5-1.3-2.6L25.6,24V11.2c0-2-3-1.9-3,0l0,15.3
			C22.6,27.7,23.8,28.5,25,27.9z"/>
	</g>
	<path fill="#FFFFFF" d="M25,0C11.2,0,0,11.2,0,25c0,13.8,11.2,25,25,25c13.8,0,25-11.2,25-25C50,11.2,38.8,0,25,0z M25,47.1
		C12.8,47.1,2.9,37.2,2.9,25C2.9,12.8,12.8,2.9,25,2.9c12.2,0,22.1,9.9,22.1,22.1C47.1,37.2,37.2,47.1,25,47.1z"/>
	<path fill="#FFFFFF" d="M25,25"/>
</g>
</svg>
