<?xml version="1.0" encoding="utf-8"?>
<!-- Generator: Adobe Illustrator 18.1.0, SVG Export Plug-In . SVG Version: 6.00 Build 0)  -->
<svg version="1.1" id="Capa_1" xmlns="http://www.w3.org/2000/svg" xmlns:xlink="http://www.w3.org/1999/xlink" x="0px" y="0px"
	 viewBox="0 0 50 50" enable-background="new 0 0 50 50" xml:space="preserve">
<path fill="#FFFFFF" d="M2.9,11v27.8c0,3.9,3.2,7.1,7.1,7.1h30.6c3.9,0,7.1-3.2,7.1-7.1V11c0-3.9-3.2-7.1-7.1-7.1H10.1
	C6.1,3.8,2.9,7,2.9,11z M45.7,38.8c0,2.8-2.3,5.1-5.1,5.1H10.1c-2.8,0-5.1-2.3-5.1-5.1V34c1.3,1.3,3.1,2.2,5.1,2.2h30.6
	c2,0,3.8-0.8,5.1-2.1V38.8z M40.6,5.9c2.8,0,5.1,2.3,5.1,5.1v18c0,2.8-2.3,5.1-5.1,5.1H10.1C7.2,34.1,5,31.8,5,29V11
	c0-2.8,2.3-5.1,5.1-5.1H40.6z"/>
<path fill="#FFFFFF" d="M7.2,27.9c0,1.7,1.4,3.1,3.1,3.1c1.7,0,3.1-1.4,3.1-3.1c0-1.7-1.4-3.1-3.1-3.1C8.6,24.9,7.2,26.2,7.2,27.9z
	 M11.8,27.9c0,0.8-0.7,1.5-1.5,1.5c-0.8,0-1.5-0.7-1.5-1.5c0-0.8,0.7-1.5,1.5-1.5C11.1,26.4,11.8,27.1,11.8,27.9z"/>
<path fill="#FFFFFF" d="M15.5,27.9c0,1.7,1.4,3.2,3.2,3.2c1.7,0,3.2-1.4,3.2-3.2c0-1.7-1.4-3.2-3.2-3.2
	C16.9,24.8,15.5,26.2,15.5,27.9z M20.3,27.9c0,0.9-0.7,1.6-1.6,1.6c-0.9,0-1.6-0.7-1.6-1.6c0-0.9,0.7-1.6,1.6-1.6
	C19.6,26.3,20.3,27,20.3,27.9z"/>
</svg>
