<?xml version="1.0" encoding="utf-8"?>
<!-- Generator: Adobe Illustrator 18.1.0, SVG Export Plug-In . SVG Version: 6.00 Build 0)  -->
<svg version="1.1" id="Capa_1" xmlns="http://www.w3.org/2000/svg" xmlns:xlink="http://www.w3.org/1999/xlink" x="0px" y="0px"
	 viewBox="0 0 50 50" enable-background="new 0 0 50 50" xml:space="preserve">
<g>
	<g>
		<path fill="#FFFFFF" d="M25.8,20.6l2.9-2.9c0.2-0.2,0.3-0.6,0.2-0.9c-1.4-3.6-0.7-7.3,1.9-9.9c2.4-2.4,5.8-3.3,8.9-2.5l-4.3,4.3
			c-0.9,0.9-1.4,2.2-1.4,3.5c0,1.3,0.5,2.5,1.4,3.5c0.9,0.9,2.2,1.4,3.5,1.4c1.3,0,2.5-0.5,3.5-1.4l4.3-4.3c0.8,3.2-0.1,6.6-2.5,8.9
			c-2.6,2.6-6.3,3.3-9.9,1.9c-0.4-0.2-0.9,0-1,0.5c-0.2,0.4,0,0.9,0.5,1c1.4,0.6,2.9,0.8,4.3,0.8c2.7,0,5.3-1,7.3-3.1
			c3.1-3.1,4.1-7.8,2.5-11.9c-0.1-0.2-0.3-0.4-0.6-0.5c-0.3-0.1-0.5,0-0.7,0.2l-5.2,5.2c-0.6,0.6-1.5,1-2.3,1c-0.9,0-1.7-0.3-2.3-1
			c-0.6-0.6-1-1.5-1-2.3c0-0.9,0.3-1.7,1-2.3l5.2-5.2c0.2-0.2,0.3-0.5,0.2-0.7c-0.1-0.3-0.2-0.5-0.5-0.6c-4.1-1.6-8.7-0.6-11.8,2.5
			c-2.9,2.9-3.8,7.1-2.4,11.1l-2.5,2.5c-0.3,0.3-0.3,0.8,0,1.1C25,20.9,25.5,20.9,25.8,20.6z"/>
		<path fill="#FFFFFF" d="M37.9,25c-1.5,0-3-0.3-4.5-0.9c-0.7-0.3-1-1-0.7-1.7c0.3-0.7,1-1,1.7-0.7c1.2,0.5,2.3,0.7,3.5,0.7
			c2.2,0,4.3-0.8,5.9-2.4c2-2,2.9-4.8,2.5-7.6L42.7,16c-1,1-2.4,1.6-3.8,1.6c-1.4,0-2.8-0.6-3.8-1.6c-1-1-1.6-2.4-1.6-3.8
			c0-1.4,0.6-2.8,1.6-3.8l3.6-3.6c-2.8-0.4-5.6,0.6-7.6,2.5c-2.4,2.4-3.1,5.9-1.8,9.4c0.2,0.5,0.1,1-0.3,1.4l-2.9,2.9
			c-0.5,0.5-1.4,0.5-1.8,0c-0.5-0.5-0.5-1.3,0-1.8l2.3-2.3c-1.3-4.1-0.3-8.4,2.6-11.3c2.2-2.2,5.1-3.4,8.2-3.4
			c1.4,0,2.9,0.3,4.2,0.8C42,3,42.3,3.4,42.4,3.8c0.1,0.4,0,0.9-0.4,1.2l-5.2,5.2c-0.5,0.5-0.8,1.2-0.8,2c0,0.7,0.3,1.5,0.8,2
			c1.1,1.1,2.9,1.1,4,0L46,8.9c0.3-0.3,0.8-0.4,1.2-0.4C47.7,8.7,48,9,48.2,9.4c1.7,4.3,0.7,9.1-2.6,12.4C43.5,23.8,40.8,25,37.9,25
			z M33.9,22.6c-0.1,0-0.2,0.1-0.3,0.2c-0.1,0.1,0,0.3,0.2,0.4c1.4,0.5,2.7,0.8,4.1,0.8c2.7,0,5.1-1,7-2.9c3-3,3.9-7.4,2.4-11.3
			c0-0.1-0.1-0.2-0.2-0.2c-0.2,0-0.2,0-0.3,0.1l-5.2,5.2c-1.4,1.4-3.9,1.4-5.4,0c-0.7-0.7-1.1-1.7-1.1-2.7c0-1,0.4-2,1.1-2.7
			l5.2-5.2c0.1-0.1,0.1-0.2,0.1-0.3c0-0.1-0.1-0.2-0.2-0.2c-1.2-0.5-2.5-0.7-3.9-0.7c-2.8,0-5.5,1.1-7.5,3.1
			c-2.8,2.8-3.6,6.7-2.3,10.6l0.1,0.3L25,19.8c-0.1,0.1-0.1,0.1-0.1,0.2s0,0.2,0.1,0.2c0.1,0.1,0.3,0.1,0.4,0l2.9-2.9
			c0.1-0.1,0.1-0.2,0.1-0.3c-1.5-3.8-0.7-7.7,2-10.4c1.9-1.9,4.4-2.9,7-2.9c0.8,0,1.6,0.1,2.4,0.3l0.9,0.2L35.8,9
			c-0.8,0.8-1.3,1.9-1.3,3.1c0,1.2,0.5,2.3,1.3,3.1c0.8,0.8,1.9,1.3,3.1,1.3c1.2,0,2.3-0.5,3.1-1.3l4.9-4.9l0.2,0.9
			c0.8,3.4-0.2,7-2.6,9.4c-2.7,2.7-6.7,3.5-10.4,2C34,22.6,33.9,22.6,33.9,22.6z"/>
	</g>
	<g>
		<path fill="#FFFFFF" d="M21.8,33.9L9.8,45.9c0,0-1.5,1.5-3.2,0.9c-0.4-0.1-0.9,0.1-1,0.5c-0.1,0.4,0.1,0.9,0.5,1
			c0.4,0.1,0.9,0.2,1.3,0.2c2,0,3.5-1.4,3.6-1.5l11.9-11.9c0.3-0.3,0.3-0.8,0-1.1C22.6,33.6,22.1,33.6,21.8,33.9z"/>
		<path fill="#FFFFFF" d="M7.4,49c-0.5,0-0.9-0.1-1.4-0.2c-0.3-0.1-0.6-0.3-0.8-0.6c-0.2-0.3-0.2-0.7-0.1-1c0.2-0.7,0.9-1.1,1.6-0.9
			c0.2,0.1,0.4,0.1,0.6,0.1c1,0,1.9-0.7,2.1-0.9l11.9-11.9c0.5-0.5,1.3-0.5,1.8,0c0.2,0.2,0.4,0.6,0.4,0.9s-0.1,0.7-0.4,0.9
			L11.3,47.3C11.2,47.4,9.6,49,7.4,49z M6.4,47.3c-0.2,0-0.3,0.1-0.3,0.2c0,0.1,0,0.2,0,0.2c0,0.1,0.1,0.1,0.2,0.1
			C6.6,48,7,48,7.4,48c1.8,0,3.2-1.4,3.2-1.4l11.9-11.9c0.1-0.1,0.1-0.1,0.1-0.2c0-0.1,0-0.2-0.1-0.2c-0.1-0.1-0.3-0.1-0.4,0l-12,12
			c-0.3,0.2-1.4,1.1-2.7,1.1C7.1,47.4,6.8,47.4,6.4,47.3C6.4,47.3,6.4,47.3,6.4,47.3z"/>
	</g>
	<g>
		<path fill="#FFFFFF" d="M20,26.4c0.3-0.3,0.3-0.8,0-1.1c-0.3-0.3-0.8-0.3-1.1,0L4,40.1c-0.1,0.1-2.2,2.2-1.3,4.8
			c0.1,0.3,0.4,0.6,0.8,0.6c0.1,0,0.2,0,0.2,0c0.4-0.1,0.7-0.6,0.5-1c-0.5-1.7,0.9-3.2,0.9-3.2L20,26.4z"/>
		<path fill="#FFFFFF" d="M3.5,46c-0.6,0-1.1-0.4-1.2-0.9c-0.9-2.7,1-4.9,1.4-5.3l14.8-14.8c0.5-0.5,1.3-0.5,1.8,0
			c0.2,0.2,0.4,0.6,0.4,0.9c0,0.3-0.1,0.7-0.4,0.9L5.5,41.5c-0.2,0.2-1.2,1.4-0.8,2.7c0.1,0.3,0.1,0.7-0.1,1
			c-0.2,0.3-0.4,0.5-0.8,0.6C3.7,45.9,3.6,46,3.5,46z M19.4,25.5c-0.1,0-0.2,0-0.2,0.1L4.4,40.4c-0.3,0.3-1.9,2.1-1.2,4.3
			c0,0.1,0.2,0.2,0.3,0.2c0,0,0.1,0,0.1,0c0.2-0.1,0.2-0.2,0.2-0.4c-0.6-1.8,0.8-3.4,1-3.7L19.6,26c0.1-0.1,0.1-0.1,0.1-0.2
			c0-0.1,0-0.2-0.1-0.2C19.6,25.5,19.5,25.5,19.4,25.5z"/>
	</g>
	<g>
		<path fill="#FFFFFF" d="M31.6,25.2c-0.1-0.1-0.2-0.2-0.3-0.2l-8.5-2.8l-8.6-8.6c-0.2-0.2-0.4-0.2-0.6-0.2H8.3L4.5,7.1l2-2l6.3,3.8
			v2.4c0,0.4,0.4,0.8,0.8,0.8c0.4,0,0.8-0.4,0.8-0.8V8.4c0-0.3-0.1-0.5-0.4-0.7L6.8,3.4c-0.3-0.2-0.7-0.1-1,0.1L2.9,6.4
			c-0.3,0.3-0.3,0.7-0.1,1l4.3,7.2C7.3,14.9,7.5,15,7.8,15h5.5l8.5,8.5c0,0,0,0,0,0c0.1,0.1,0.1,0.1,0.2,0.2c0,0,0,0,0,0
			c0,0,0,0,0,0l8.5,2.8l14.4,14.4c0,0,1.8,1.8,1.2,3.5c-0.1,0.4,0.1,0.9,0.5,1c0.1,0,0.2,0,0.2,0c0.3,0,0.7-0.2,0.8-0.6
			c0.8-2.6-1.5-5.1-1.6-5.2L31.6,25.2z"/>
		<path fill="#FFFFFF" d="M47,46c-0.1,0-0.2,0-0.4-0.1c-0.7-0.2-1.1-0.9-0.9-1.6c0.4-1.4-1.1-3-1.1-3L30.3,26.9l-8.6-2.9
			c-0.1,0-0.2-0.1-0.3-0.2l-0.1,0l-0.1-0.1l-8.3-8.2H7.8c-0.5,0-0.9-0.2-1.1-0.6L2.4,7.6C2,7.1,2.1,6.5,2.5,6l2.9-2.9
			C5.9,2.7,6.5,2.6,7,2.9l7.2,4.3c0.4,0.2,0.6,0.7,0.6,1.1v2.9c0,0.7-0.6,1.3-1.3,1.3c-0.7,0-1.3-0.6-1.3-1.3V9.1L6.6,5.7L5.1,7.2
			l3.5,5.7h5.1c0.3,0,0.7,0.1,0.9,0.4l8.5,8.5l8.4,2.8c0.2,0.1,0.4,0.2,0.5,0.3l14.5,14.5c0,0,2.7,2.7,1.8,5.7
			C48,45.6,47.5,46,47,46z M22.1,23.1L22.1,23.1C22.1,23.1,22.2,23.2,22.1,23.1l8.8,3l14.5,14.4c0,0,2,2,1.4,4c0,0.2,0,0.3,0.2,0.4
			l0.1,0c0.1,0,0.2-0.1,0.3-0.2c0.7-2.3-1.5-4.6-1.5-4.6L31.2,25.6c0,0-0.1-0.1-0.1-0.1l-8.6-2.9L13.8,14c-0.1-0.1-0.1-0.1-0.2-0.1
			H8L3.8,7l2.6-2.6l6.9,4.1v2.7c0,0.2,0.1,0.3,0.3,0.3c0.2,0,0.3-0.1,0.3-0.3V8.4c0-0.1-0.1-0.2-0.1-0.3L6.5,3.8
			c-0.1-0.1-0.3-0.1-0.4,0L3.3,6.7C3.2,6.8,3.1,7,3.2,7.1l4.3,7.3c0.1,0.1,0.2,0.1,0.3,0.1h5.7L22.1,23.1z"/>
	</g>
	<g>
		<path fill="#FFFFFF" d="M43.8,46.8c-1.7,0.5-3.5-1.2-3.5-1.2L25.9,31.2L24.5,27c-0.1-0.4-0.6-0.6-1-0.5c-0.4,0.1-0.6,0.6-0.5,1
			l1.5,4.4c0,0.1,0.1,0.2,0.2,0.3l14.5,14.5c0.1,0.1,1.9,1.8,4,1.8c0.4,0,0.8-0.1,1.2-0.2c0.4-0.1,0.6-0.6,0.5-1
			C44.7,46.9,44.2,46.7,43.8,46.8z"/>
		<path fill="#FFFFFF" d="M43.2,49c-2.3,0-4.1-1.8-4.4-2L24.3,32.5C24.2,32.4,24,32.2,24,32l-1.4-4.3c-0.1-0.3-0.1-0.7,0.1-1
			c0.2-0.3,0.4-0.5,0.8-0.6c0.6-0.2,1.4,0.2,1.6,0.8l1.4,4.1l14.3,14.3c0.6,0.5,2,1.5,3,1.1c0.7-0.2,1.4,0.2,1.6,0.8
			c0.1,0.3,0.1,0.7-0.1,1c-0.2,0.3-0.4,0.5-0.8,0.6C44,48.9,43.6,49,43.2,49z M23.8,27c-0.2,0-0.2,0.1-0.3,0.2c0,0.1,0,0.2,0,0.2
			l1.5,4.4c0,0,0,0.1,0.1,0.1l14.5,14.5c0.1,0.1,1.7,1.7,3.6,1.7c0.3,0,0.7-0.1,1-0.2c0.1,0,0.1-0.1,0.2-0.1c0-0.1,0-0.2,0-0.2
			c0-0.1-0.2-0.2-0.3-0.2c-0.3,0.1-0.6,0.1-0.9,0.1c-1.6,0-2.9-1.2-3.2-1.5L25.5,31.4L24,27.2C24,27,23.9,27,23.8,27z"/>
	</g>
	<g>
		<path fill="#FFFFFF" d="M42.6,44c0.2,0,0.4-0.1,0.6-0.2c0.3-0.3,0.3-0.8,0-1.1L28.7,28.1c-0.3-0.3-0.8-0.3-1.1,0
			c-0.3,0.3-0.3,0.8,0,1.1L42,43.8C42.2,43.9,42.4,44,42.6,44z"/>
		<path fill="#FFFFFF" d="M42.6,44.5c-0.3,0-0.7-0.1-0.9-0.4L27.2,29.6c-0.5-0.5-0.5-1.3,0-1.8c0.5-0.5,1.3-0.5,1.8,0l14.5,14.5
			c0.5,0.5,0.5,1.3,0,1.8C43.3,44.4,43,44.5,42.6,44.5z M28.1,28.4c-0.1,0-0.2,0-0.2,0.1c-0.1,0.1-0.1,0.3,0,0.4l14.5,14.5
			c0.2,0.2,0.3,0.1,0.4,0c0.1-0.1,0.1-0.3,0-0.4L28.3,28.5C28.3,28.4,28.2,28.4,28.1,28.4z"/>
	</g>
</g>
</svg>
