<?xml version="1.0" encoding="utf-8"?>
<!-- Generator: Adobe Illustrator 18.1.0, SVG Export Plug-In . SVG Version: 6.00 Build 0)  -->
<svg version="1.1" id="Capa_1" xmlns="http://www.w3.org/2000/svg" xmlns:xlink="http://www.w3.org/1999/xlink" x="0px" y="0px"
	 viewBox="0 0 50 50" enable-background="new 0 0 50 50" xml:space="preserve">
<g>
	<path fill="#A6C847" d="M25,0.4C11.4,0.4,0.3,11.5,0.3,25.1S11.4,49.9,25,49.9c13.6,0,24.7-11.1,24.7-24.7S38.6,0.4,25,0.4z
		 M25,46.2c-11.6,0-21.1-9.5-21.1-21.1C3.9,13.5,13.4,4.1,25,4.1c11.6,0,21.1,9.5,21.1,21.1C46.1,36.8,36.6,46.2,25,46.2z"/>
	<path fill="#A6C847" d="M34.4,16.1L22.4,30.3l-6.9-7.5C14.9,22,13.8,22,13,22.6c-0.7,0.7-0.8,1.8-0.1,2.6l8.3,9.1
		c0.3,0.4,0.8,0.6,1.3,0.6c0,0,0,0,0,0c0.5,0,1-0.3,1.4-0.7l13.3-15.8c0.6-0.8,0.5-1.9-0.2-2.6C36.2,15.2,35,15.3,34.4,16.1z"/>
</g>
</svg>
