<?xml version="1.0" encoding="utf-8"?>
<!-- Generator: Adobe Illustrator 18.1.0, SVG Export Plug-In . SVG Version: 6.00 Build 0)  -->
<svg version="1.1" id="Capa_1" xmlns="http://www.w3.org/2000/svg" xmlns:xlink="http://www.w3.org/1999/xlink" x="0px" y="0px"
	 viewBox="0 0 50 50" enable-background="new 0 0 50 50" xml:space="preserve">
<g>
	<g>
		<path fill="#FFFFFF" d="M31.8,16.1L31.8,16.1l-4.6,0l1.6-15.3l4.4,0.3l0.2,0.1c1.1,0.4,1.9,1.6,1.9,2.7l0,0.2l-1,9.6
			C34.2,14.9,33.2,16.1,31.8,16.1z M31.7,13.2l0,1.4L31.7,13.2C31.8,13.2,31.8,13.2,31.7,13.2z M30.4,13.2l1.1,0l1-9.3l-1.1-0.1
			L30.4,13.2z"/>
	</g>
	<g>
		<path fill="#FFFFFF" d="M29,49.1l-1.6,0c-1.3,0-3.1-0.3-4.7-0.8c-1-0.3-3.4-1.1-4.8-2.2l-0.3-0.2l-0.1-0.3
			C16,41.9,13.3,33.5,13.3,25c0-8.5,2.7-17,4.3-20.6l0.1-0.3L18,3.8c1.4-1.2,3.8-1.9,4.8-2.2l0.1,0c1.6-0.4,2.5-0.7,3.7-0.7l1.6,0
			L26.6,16l-1,0.1c-0.2,0.1-0.4,0.2-0.7,0.3c-0.2,0-0.3,0.1-0.4,0.1c0,0.1-0.1,0.3-0.2,0.8c-0.1,1.1-0.5,4.1-0.5,7.7
			c0,3.6,0.4,6.6,0.5,7.7c0.1,0.5,0.2,0.7,0.2,0.8c0.1,0,0.2,0.1,0.4,0.1c0.6,0.2,0.9,0.2,1.2,0.2l1.2,0.1L29,49.1z M20.1,44.1
			c0.7,0.5,2,1.1,3.5,1.5c0.7,0.2,1.5,0.4,2.3,0.5l-1-9.6c-0.2,0-0.4-0.1-0.6-0.2c-1.7-0.5-2.3-1.2-2.6-3.2
			c-0.1-1.1-0.4-3.6-0.5-6.7h0l0-2.9h0c0.1-3.1,0.4-5.6,0.5-6.7c0.3-2,0.9-2.7,2.4-3.2L25,4c-0.4,0.1-0.8,0.2-1.3,0.4l-0.1,0
			c-1.4,0.4-2.7,1-3.5,1.5c-1.9,4.5-3.9,12.3-3.9,19.1C16.2,31.8,18.2,39.6,20.1,44.1z"/>
	</g>
	<g>
		<path fill="#FFFFFF" d="M29.5,49.1L28,33.9h4.6c0,0,0,0,0,0c1.5,0,2.4,1.2,2.6,2.4l1,9.7l0,0.1c0,1.2-0.8,2.3-1.9,2.7l-0.2,0.1
			L29.5,49.1z M31.2,36.7l1,9.4l1.1-0.1c0,0,0,0,0,0l-1-9.3H31.2z"/>
	</g>
</g>
</svg>
