<?xml version="1.0" encoding="utf-8"?>
<!-- Generator: Adobe Illustrator 18.1.0, SVG Export Plug-In . SVG Version: 6.00 Build 0)  -->
<svg version="1.1" id="Capa_1" xmlns="http://www.w3.org/2000/svg" xmlns:xlink="http://www.w3.org/1999/xlink" x="0px" y="0px"
	 viewBox="0 0 50 50" enable-background="new 0 0 50 50" xml:space="preserve">
<g id="twitter">
	<path fill="#FFFFFF" d="M44.2,13c0.3-1,0-2.1-0.9-2.7c-0.5-0.4-1-0.6-1.6-0.6c-0.4,0-0.9,0.1-1.3,0.4c-0.8,0.5-1.6,0.8-2.5,1.1
		c-1.7-1.3-3.7-2-5.8-2c-4.8,0-8.9,3.6-9.5,8.3c-3.9-0.8-7.4-3-9.9-6.1c-0.5-0.6-1.2-0.9-2-0.9c-0.1,0-0.1,0-0.2,0
		c-0.8,0.1-1.6,0.5-2,1.2c-0.9,1.5-1.3,3.1-1.3,4.8c0,1.1,0.2,2.3,0.6,3.3c-0.4,0.5-0.6,1.1-0.6,1.7c0,2.5,0.9,4.8,2.5,6.6
		c-0.1,0.4-0.1,0.9,0.1,1.3c0.5,1.7,1.5,3.2,2.8,4.3c-0.8,0.2-1.7,0.3-2.6,0.3c-0.5,0-0.9,0-1.4-0.1c-0.1,0-0.2,0-0.3,0
		c-1.1,0-2,0.7-2.4,1.7c-0.4,1.1,0,2.4,1,3c3.6,2.3,7.8,3.6,12.2,3.6c14,0,22.4-11.3,22.6-22.3c1.1-1,2.1-2.1,3-3.3
		c0.3-0.4,0.5-1,0.5-1.5C45.2,14.2,44.8,13.5,44.2,13z M39.2,18.7c0,0.3,0,0.6,0,0.9c0,9.3-7.1,20-20,20c-4,0-7.7-1.2-10.8-3.2
		c0.5,0.1,1.1,0.1,1.7,0.1c3.3,0,6.3-1.1,8.7-3c-3.1-0.1-5.7-2.1-6.6-4.9c0.4,0.1,0.9,0.1,1.3,0.1c0.6,0,1.3-0.1,1.9-0.2
		c-3.2-0.7-5.7-3.5-5.7-6.9c0,0,0-0.1,0-0.1c1,0.5,2,0.8,3.2,0.9C11,21.2,9.8,19,9.8,16.6c0-1.3,0.3-2.5,1-3.5
		c3.5,4.3,8.7,7.1,14.5,7.4c-0.1-0.5-0.2-1.1-0.2-1.6c0-3.9,3.2-7,7-7c2,0,3.9,0.9,5.1,2.2c1.6-0.3,3.1-0.9,4.5-1.7
		c-0.5,1.6-1.6,3-3.1,3.9c1.4-0.2,2.8-0.5,4-1.1C41.7,16.5,40.5,17.7,39.2,18.7z"/>
</g>
</svg>
