<?xml version="1.0" encoding="utf-8"?>
<!-- Generator: Adobe Illustrator 18.1.0, SVG Export Plug-In . SVG Version: 6.00 Build 0)  -->
<svg version="1.1" id="Capa_1" xmlns="http://www.w3.org/2000/svg" xmlns:xlink="http://www.w3.org/1999/xlink" x="0px" y="0px"
	 viewBox="0 0 50 50" enable-background="new 0 0 50 50" xml:space="preserve">
<path fill="#FFFFFF" stroke="#FFFFFF" stroke-miterlimit="10" d="M37.7,27.8L14.9,6.1c-0.3-0.3-0.8-0.5-1.2-0.5
	c-0.2,0-0.5,0-0.7,0.1c-0.6,0.3-1,0.9-1,1.6l0,31.4c0,0.7,0.4,1.3,1.1,1.6c0.2,0.1,0.4,0.1,0.7,0.1c0.4,0,0.9-0.2,1.2-0.5l6.7-6.7
	l5.7,11.6c0.3,0.6,0.9,1,1.5,1c0.2,0,0.5,0,0.7-0.2l1.8-0.8c0.9-0.4,1.2-1.4,0.9-2.2L27.1,31l9.5-0.2c0.7,0,1.3-0.5,1.6-1.1
	C38.3,29,38.2,28.3,37.7,27.8z M36.7,29.1c0,0.1-0.1,0.2-0.3,0.2L27,29.6c-0.5,0-0.9,0.3-1.2,0.7c-0.3,0.4-0.3,0.9-0.1,1.3l5.1,11.7
	c0.1,0.1,0,0.3-0.1,0.4L29,44.4c0,0-0.1,0-0.1,0c-0.1,0-0.2,0-0.3-0.2l-5.7-11.6c-0.2-0.4-0.6-0.7-1-0.8c-0.1,0-0.2,0-0.2,0
	c-0.4,0-0.7,0.1-1,0.4L13.9,39c-0.1,0.1-0.2,0.1-0.2,0.1c0,0-0.1,0-0.1,0c-0.1,0-0.2-0.1-0.2-0.3l0-31.4c0-0.1,0.1-0.2,0.2-0.3
	c0,0,0.1,0,0.1,0c0,0,0.1,0,0.2,0.1l22.7,21.7C36.8,28.9,36.8,29,36.7,29.1z"/>
</svg>
